<svg width="614" height="465" viewBox="0 0 614 465" fill="none" xmlns="http://www.w3.org/2000/svg">
<path d="M137.946 59.1621H81.2715L80.5156 68.2399H137.946V59.1621Z" stroke="#292D34" stroke-miterlimit="10"/>
<path d="M137.946 68.2402H81.2715L80.5156 77.318H137.946V68.2402Z" stroke="#292D34" stroke-miterlimit="10"/>
<path d="M137.946 77.3179H81.2715L80.5156 86.3956H137.946V77.3179Z" stroke="#292D34" stroke-miterlimit="10"/>
<path d="M137.946 86.396H81.2715L80.5156 95.4738H137.946V86.396Z" stroke="#292D34" stroke-miterlimit="10"/>
<path d="M137.946 95.4736H81.2715L80.5156 104.541H137.946V95.4736Z" stroke="#292D34" stroke-miterlimit="10"/>
<path d="M137.946 104.541H81.2715L80.5156 113.619H137.946V104.541Z" stroke="#292D34" stroke-miterlimit="10"/>
<path d="M137.946 113.619H81.2715L80.5156 122.696H137.946V113.619Z" stroke="#292D34" stroke-miterlimit="10"/>
<path d="M137.946 122.696H81.2715L80.5156 131.774H137.946V122.696Z" stroke="#292D34" stroke-miterlimit="10"/>
<path d="M137.946 131.774H81.2715L80.5156 140.852H137.946V131.774Z" stroke="#292D34" stroke-miterlimit="10"/>
<path d="M137.946 140.852H81.2715L80.5156 149.93H137.946V140.852Z" stroke="#292D34" stroke-miterlimit="10"/>
<path d="M137.946 149.93H81.2715L80.5156 159.007H137.946V149.93Z" stroke="#292D34" stroke-miterlimit="10"/>
<path d="M137.946 159.007H81.2715L80.5156 168.085H137.946V159.007Z" stroke="#292D34" stroke-miterlimit="10"/>
<path d="M137.946 168.085H81.2715L80.5156 177.163H137.946V168.085Z" stroke="#292D34" stroke-miterlimit="10"/>
<path d="M137.946 177.163H81.2715L80.5156 186.241H137.946V177.163Z" stroke="#292D34" stroke-miterlimit="10"/>
<path d="M137.946 186.241H81.2715L80.5156 195.318H137.946V186.241Z" stroke="#292D34" stroke-miterlimit="10"/>
<path d="M137.946 195.297H81.2715L80.5156 204.375H137.946V195.297Z" stroke="#292D34" stroke-miterlimit="10"/>
<path d="M137.946 204.365H81.2715L80.5156 213.443H137.946V204.365Z" stroke="#292D34" stroke-miterlimit="10"/>
<path d="M137.946 213.422H81.2715L80.5156 222.5H137.946V213.422Z" stroke="#292D34" stroke-miterlimit="10"/>
<path d="M137.946 222.489H81.2715L80.5156 231.567H137.946V222.489Z" stroke="#292D34" stroke-miterlimit="10"/>
<path d="M137.946 231.546H81.2715L80.5156 240.624H137.946V231.546Z" stroke="#292D34" stroke-miterlimit="10"/>
<path d="M137.946 240.613H81.2715L80.5156 249.68H137.946V240.613Z" stroke="#292D34" stroke-miterlimit="10"/>
<path d="M196.214 59.1621H139.53L138.783 68.2399H196.214V59.1621Z" stroke="#292D34" stroke-miterlimit="10"/>
<path d="M196.214 68.2402H139.53L138.783 77.318H196.214V68.2402Z" stroke="#292D34" stroke-miterlimit="10"/>
<path d="M196.214 77.3179H139.53L138.783 86.3956H196.214V77.3179Z" stroke="#292D34" stroke-miterlimit="10"/>
<path d="M196.214 86.396H139.53L138.783 95.4738H196.214V86.396Z" stroke="#292D34" stroke-miterlimit="10"/>
<path d="M196.214 95.4736H139.53L138.783 104.541H196.214V95.4736Z" stroke="#292D34" stroke-miterlimit="10"/>
<path d="M196.214 104.541H139.53L138.783 113.619H196.214V104.541Z" stroke="#292D34" stroke-miterlimit="10"/>
<path d="M196.214 113.619H139.53L138.783 122.696H196.214V113.619Z" stroke="#292D34" stroke-miterlimit="10"/>
<path d="M196.214 122.696H139.53L138.783 131.774H196.214V122.696Z" stroke="#292D34" stroke-miterlimit="10"/>
<path d="M196.214 131.774H139.53L138.783 140.852H196.214V131.774Z" stroke="#292D34" stroke-miterlimit="10"/>
<path d="M196.214 140.852H139.53L138.783 149.93H196.214V140.852Z" stroke="#292D34" stroke-miterlimit="10"/>
<path d="M196.214 149.93H139.53L138.783 159.007H196.214V149.93Z" stroke="#292D34" stroke-miterlimit="10"/>
<path d="M196.214 159.007H139.53L138.783 168.085H196.214V159.007Z" stroke="#292D34" stroke-miterlimit="10"/>
<path d="M196.214 168.085H139.53L138.783 177.163H196.214V168.085Z" stroke="#292D34" stroke-miterlimit="10"/>
<path d="M196.214 177.163H139.53L138.783 186.241H196.214V177.163Z" stroke="#292D34" stroke-miterlimit="10"/>
<path d="M196.214 186.241H139.53L138.783 195.318H196.214V186.241Z" stroke="#292D34" stroke-miterlimit="10"/>
<path d="M196.214 195.297H139.53L138.783 204.375H196.214V195.297Z" stroke="#292D34" stroke-miterlimit="10"/>
<path d="M196.214 204.365H139.53L138.783 213.443H196.214V204.365Z" stroke="#292D34" stroke-miterlimit="10"/>
<path d="M196.214 213.422H139.53L138.783 222.5H196.214V213.422Z" stroke="#292D34" stroke-miterlimit="10"/>
<path d="M196.214 222.489H139.53L138.783 231.567H196.214V222.489Z" stroke="#292D34" stroke-miterlimit="10"/>
<path d="M196.214 231.546H139.53L138.783 240.624H196.214V231.546Z" stroke="#292D34" stroke-miterlimit="10"/>
<path d="M196.214 240.613H139.53L138.783 249.68H196.214V240.613Z" stroke="#292D34" stroke-miterlimit="10"/>
<path d="M199.049 52.1289H79.1934V58.9739H199.049V52.1289Z" stroke="#292D34" stroke-miterlimit="10"/>
<path d="M199.049 58.9844V179.574" stroke="#292D34" stroke-miterlimit="10"/>
<path d="M197.744 59.1729V141.911" stroke="#292D34" stroke-miterlimit="10"/>
<path d="M199.904 179.312H198.293V182.383H199.904V179.312Z" fill="#292D34" stroke="#292D34" stroke-miterlimit="10"/>
<path d="M198.445 141.261H196.834V144.332H198.445V141.261Z" fill="#292D34" stroke="#292D34" stroke-miterlimit="10"/>
<path d="M484.591 59.1621H427.907L427.16 68.2399H484.591V59.1621Z" stroke="#292D34" stroke-miterlimit="10"/>
<path d="M484.591 68.2402H427.907L427.16 77.318H484.591V68.2402Z" stroke="#292D34" stroke-miterlimit="10"/>
<path d="M484.591 77.3179H427.907L427.16 86.3956H484.591V77.3179Z" stroke="#292D34" stroke-miterlimit="10"/>
<path d="M484.591 86.396H427.907L427.16 95.4738H484.591V86.396Z" stroke="#292D34" stroke-miterlimit="10"/>
<path d="M484.591 95.4736H427.907L427.16 104.541H484.591V95.4736Z" stroke="#292D34" stroke-miterlimit="10"/>
<path d="M484.591 104.541H427.907L427.16 113.619H484.591V104.541Z" stroke="#292D34" stroke-miterlimit="10"/>
<path d="M484.591 113.619H427.907L427.16 122.696H484.591V113.619Z" stroke="#292D34" stroke-miterlimit="10"/>
<path d="M484.591 122.696H427.907L427.16 131.774H484.591V122.696Z" stroke="#292D34" stroke-miterlimit="10"/>
<path d="M484.591 131.774H427.907L427.16 140.852H484.591V131.774Z" stroke="#292D34" stroke-miterlimit="10"/>
<path d="M484.591 140.852H427.907L427.16 149.93H484.591V140.852Z" stroke="#292D34" stroke-miterlimit="10"/>
<path d="M484.591 149.93H427.907L427.16 159.007H484.591V149.93Z" stroke="#292D34" stroke-miterlimit="10"/>
<path d="M484.591 159.007H427.907L427.16 168.085H484.591V159.007Z" stroke="#292D34" stroke-miterlimit="10"/>
<path d="M484.591 168.085H427.907L427.16 177.163H484.591V168.085Z" stroke="#292D34" stroke-miterlimit="10"/>
<path d="M484.591 177.163H427.907L427.16 186.241H484.591V177.163Z" stroke="#292D34" stroke-miterlimit="10"/>
<path d="M484.591 186.241H427.907L427.16 195.318H484.591V186.241Z" stroke="#292D34" stroke-miterlimit="10"/>
<path d="M484.591 195.297H427.907L427.16 204.375H484.591V195.297Z" stroke="#292D34" stroke-miterlimit="10"/>
<path d="M484.591 204.365H427.907L427.16 213.443H484.591V204.365Z" stroke="#292D34" stroke-miterlimit="10"/>
<path d="M484.591 213.422H427.907L427.16 222.5H484.591V213.422Z" stroke="#292D34" stroke-miterlimit="10"/>
<path d="M484.591 222.489H427.907L427.16 231.567H484.591V222.489Z" stroke="#292D34" stroke-miterlimit="10"/>
<path d="M484.591 231.546H427.907L427.16 240.624H484.591V231.546Z" stroke="#292D34" stroke-miterlimit="10"/>
<path d="M484.591 240.613H427.907L427.16 249.68H484.591V240.613Z" stroke="#292D34" stroke-miterlimit="10"/>
<path d="M542.858 59.1621H486.175L485.428 68.2399H542.858V59.1621Z" stroke="#292D34" stroke-miterlimit="10"/>
<path d="M542.858 68.2402H486.175L485.428 77.318H542.858V68.2402Z" stroke="#292D34" stroke-miterlimit="10"/>
<path d="M542.858 77.3179H486.175L485.428 86.3956H542.858V77.3179Z" stroke="#292D34" stroke-miterlimit="10"/>
<path d="M542.858 86.396H486.175L485.428 95.4738H542.858V86.396Z" stroke="#292D34" stroke-miterlimit="10"/>
<path d="M542.858 95.4736H486.175L485.428 104.541H542.858V95.4736Z" stroke="#292D34" stroke-miterlimit="10"/>
<path d="M542.858 104.541H486.175L485.428 113.619H542.858V104.541Z" stroke="#292D34" stroke-miterlimit="10"/>
<path d="M542.858 113.619H486.175L485.428 122.696H542.858V113.619Z" stroke="#292D34" stroke-miterlimit="10"/>
<path d="M542.858 122.696H486.175L485.428 131.774H542.858V122.696Z" stroke="#292D34" stroke-miterlimit="10"/>
<path d="M542.858 131.774H486.175L485.428 140.852H542.858V131.774Z" stroke="#292D34" stroke-miterlimit="10"/>
<path d="M542.858 140.852H486.175L485.428 149.93H542.858V140.852Z" stroke="#292D34" stroke-miterlimit="10"/>
<path d="M542.858 149.93H486.175L485.428 159.007H542.858V149.93Z" stroke="#292D34" stroke-miterlimit="10"/>
<path d="M542.858 159.007H486.175L485.428 168.085H542.858V159.007Z" stroke="#292D34" stroke-miterlimit="10"/>
<path d="M542.858 168.085H486.175L485.428 177.163H542.858V168.085Z" stroke="#292D34" stroke-miterlimit="10"/>
<path d="M542.858 177.163H486.175L485.428 186.241H542.858V177.163Z" stroke="#292D34" stroke-miterlimit="10"/>
<path d="M542.858 186.241H486.175L485.428 195.318H542.858V186.241Z" stroke="#292D34" stroke-miterlimit="10"/>
<path d="M542.858 195.297H486.175L485.428 204.375H542.858V195.297Z" stroke="#292D34" stroke-miterlimit="10"/>
<path d="M542.858 204.365H486.175L485.428 213.443H542.858V204.365Z" stroke="#292D34" stroke-miterlimit="10"/>
<path d="M542.858 213.422H486.175L485.428 222.5H542.858V213.422Z" stroke="#292D34" stroke-miterlimit="10"/>
<path d="M542.858 222.489H486.175L485.428 231.567H542.858V222.489Z" stroke="#292D34" stroke-miterlimit="10"/>
<path d="M542.858 231.546H486.175L485.428 240.624H542.858V231.546Z" stroke="#292D34" stroke-miterlimit="10"/>
<path d="M542.858 240.613H486.175L485.428 249.68H542.858V240.613Z" stroke="#292D34" stroke-miterlimit="10"/>
<path d="M545.693 52.1289H425.838V58.9739H545.693V52.1289Z" stroke="#292D34" stroke-miterlimit="10"/>
<path d="M545.693 58.9844V179.574" stroke="#292D34" stroke-miterlimit="10"/>
<path d="M544.387 59.1729V141.911" stroke="#292D34" stroke-miterlimit="10"/>
<path d="M546.539 179.312H544.928V182.383H546.539V179.312Z" fill="#292D34" stroke="#292D34" stroke-miterlimit="10"/>
<path d="M545.089 141.261H543.479V144.332H545.089V141.261Z" fill="#292D34" stroke="#292D34" stroke-miterlimit="10"/>
<path d="M23.9864 349.798C23.8054 348.849 23.5463 347.922 23.2125 347.031C22.8636 346.016 22.4639 345.025 22.0157 344.064C21.2417 342.417 20.357 340.843 19.37 339.358C19.3378 339.304 19.2902 339.266 19.2359 339.25C19.1815 339.234 19.124 339.241 19.0739 339.27C19.0238 339.3 18.9843 339.349 18.9627 339.409C18.941 339.469 18.9387 339.537 18.9561 339.599C19.0911 340.228 19.2621 341.066 19.469 342.01C19.676 342.953 19.829 344.033 20.009 345.154C20.4049 347.251 20.6659 349.557 20.9988 351.171C21.2058 352.167 21.4128 353.111 21.5928 353.97C21.754 354.72 21.9523 355.459 22.1867 356.182L20.3869 354.306C19.802 353.677 19.1451 353.142 18.5242 352.545C18.8522 351.579 18.9456 350.528 18.7941 349.505C18.6122 347.746 18.2246 346.025 17.6423 344.389C17.2964 343.488 16.9027 342.613 16.4634 341.769C15.9486 340.835 15.3898 339.936 14.7896 339.075C13.7521 337.571 12.5951 336.185 11.3341 334.934C11.294 334.889 11.2413 334.861 11.1855 334.857C11.1297 334.853 11.0745 334.873 11.0299 334.912C10.9853 334.951 10.9542 335.008 10.9424 335.072C10.9305 335.135 10.9386 335.202 10.9651 335.259C11.2171 335.867 11.5501 336.643 11.865 337.544C12.18 338.446 12.5579 339.452 12.9359 340.49C13.6018 342.523 14.3127 344.683 14.8346 346.255C15.1766 347.219 15.5096 348.11 15.8335 348.897C16.1575 349.683 16.4274 350.427 16.7334 350.993L15.2576 349.819L13.7458 348.771C13.6624 348.412 13.5119 348.079 13.3048 347.796C12.9915 347.384 12.6449 347.009 12.27 346.674C11.2134 345.738 10.0346 345.005 8.77843 344.505C7.29094 343.937 5.73637 343.643 4.17103 343.634C2.81925 343.602 1.46893 343.757 0.148557 344.096C-0.0584158 344.159 -0.0404181 344.578 0.148557 344.641C1.3739 345.074 2.57589 345.592 3.74809 346.192C5.13391 346.853 6.54672 347.67 7.68957 348.131C10.0563 349.18 12.189 349.788 13.2149 349.589L14.7087 350.637C15.2036 350.993 15.6805 351.391 16.1575 351.769C15.5333 351.685 14.9045 351.657 14.2767 351.685C13.5273 351.751 12.7821 351.87 12.045 352.041C11.3135 352.221 10.5991 352.484 9.91228 352.828C9.14904 353.179 8.40913 353.596 7.69857 354.075C6.98766 354.557 6.32175 355.05 5.76382 355.511C5.2059 355.972 4.71996 356.454 4.37801 356.8C4.21603 356.958 4.21603 357.335 4.37801 357.283C5.06192 357.041 6.23176 356.738 7.59058 356.434L9.68731 356.004C10.3892 355.888 11.0821 355.752 11.703 355.584C13.1339 355.218 14.4927 354.903 15.6355 354.536C16.4705 354.318 17.2597 353.908 17.9572 353.331C18.5512 353.897 19.1721 354.379 19.757 355.018L21.4578 356.821C20.842 356.639 20.2168 356.502 19.586 356.413C18.8406 356.295 18.087 356.263 17.3363 356.318C15.763 356.446 14.2125 356.827 12.7289 357.45C11.946 357.765 11.2171 358.09 10.5692 358.425C9.92128 358.761 9.37235 359.107 8.96741 359.369C8.77843 359.484 8.72444 359.851 8.89542 359.84C9.65132 359.756 10.8752 359.777 12.297 359.756C13.0079 359.756 13.7278 359.809 14.4657 359.809H16.5534C17.9932 359.809 19.46 359.62 20.6119 359.484C21.4747 359.444 22.3208 359.194 23.0956 358.75C24.1715 360.033 25.1897 361.38 26.1462 362.786C24.8586 362.166 23.5006 361.767 22.1147 361.601C20.5284 361.453 18.9325 361.534 17.3633 361.842C15.9961 362.109 14.6461 362.483 13.3228 362.964C13.1159 363.048 13.0169 363.404 13.1969 363.425L16.6434 364.065C18.0202 364.421 19.649 364.683 20.9088 364.903C22.267 365.106 23.6342 365.214 25.0033 365.228C25.8637 365.331 26.7329 365.213 27.55 364.882L28.9268 367.052L30.2046 369.295C28.9757 368.516 27.6576 367.944 26.2901 367.597C24.7161 367.193 23.1047 367.02 21.4938 367.084C20.0992 367.116 18.7077 367.249 17.3273 367.482C17.1023 367.482 16.9764 367.859 17.1383 367.922C17.8852 368.216 19.1361 368.687 20.5579 369.191C21.9467 369.8 23.3649 370.315 24.8053 370.732C26.1345 371.126 27.4841 371.42 28.8458 371.612C29.701 371.802 30.5809 371.781 31.4285 371.549L32.5983 373.876L33.6692 376.256C32.5154 375.333 31.255 374.606 29.9257 374.096C28.3913 373.534 26.8058 373.182 25.2013 373.048C23.7899 372.887 22.3718 372.82 20.9538 372.849C20.7379 372.849 20.5669 373.184 20.7379 373.279C21.5118 373.656 22.6906 374.327 24.0854 375.061C25.4171 375.809 26.7807 376.477 28.1709 377.063C29.4577 377.614 30.7744 378.066 32.1124 378.415C32.9376 378.719 33.8092 378.812 34.668 378.688C35.343 380.302 35.9009 381.979 36.4678 383.646C35.4038 382.591 34.2235 381.706 32.9583 381.015C31.4852 380.261 29.9421 379.709 28.3599 379.369C26.9756 379.04 25.5751 378.813 24.1664 378.688C23.9505 378.688 23.7525 378.971 23.9145 379.086C24.6434 379.547 25.7142 380.365 27.073 381.183C28.4319 382 29.7727 382.996 30.9065 383.667C33.6062 385.124 36.1709 386.319 37.2057 386.12L37.8806 388.688L38.4476 391.298C37.5177 390.073 36.4383 389.013 35.244 388.153C33.8641 387.214 32.3968 386.462 30.8705 385.91C29.5278 385.425 28.1641 385.023 26.7851 384.705C26.5691 384.705 26.3441 384.935 26.4881 385.061C27.1 385.627 28.2879 386.539 29.3857 387.566C30.4836 388.594 31.8244 389.663 32.9403 390.501C35.451 392.315 37.8806 393.866 38.9155 393.845C39.2024 395.593 39.3828 397.362 39.4554 399.139C39.4554 399.359 39.6624 399.527 39.9144 399.527C39.9678 399.534 40.022 399.528 40.0735 399.51C40.1251 399.493 40.1729 399.463 40.2142 399.422C40.2555 399.382 40.2893 399.332 40.3135 399.277C40.3378 399.221 40.352 399.16 40.3553 399.097C40.2826 397.274 40.0961 395.459 39.7974 393.667C40.7783 393.353 42.623 390.753 43.8738 387.011C44.4535 385.106 44.84 383.129 45.0257 381.12C45.2096 379.335 45.3027 377.539 45.3047 375.742C45.3047 375.459 44.9627 375.407 44.8547 375.669C44.4138 376.822 43.6759 378.698 42.902 380.679C42.1281 382.661 41.3002 384.642 40.7603 386.204C40.2093 387.809 39.7405 389.45 39.3564 391.12C39.1765 390.218 38.9695 389.317 38.7715 388.415L38.0786 385.753C38.8022 385.173 39.3775 384.376 39.7434 383.447C40.4602 381.918 41.0018 380.286 41.3542 378.593C41.7401 376.637 41.9363 374.636 41.9391 372.629C41.9423 370.853 41.8612 369.079 41.6961 367.314C41.6961 367.031 41.3182 367.031 41.2462 367.314C40.9402 368.499 40.3463 370.459 39.7614 372.555C39.1765 374.652 38.5285 376.748 38.1956 378.3C37.798 379.966 37.4974 381.661 37.2957 383.373C36.7198 381.644 36.1349 379.904 35.4419 378.226C36.1134 377.547 36.6167 376.672 36.8998 375.69C37.4425 374.071 37.8289 372.387 38.0516 370.669C38.2279 368.689 38.2279 366.694 38.0516 364.715C37.9043 362.955 37.676 361.205 37.3677 359.473C37.3137 359.201 36.9628 359.243 36.9088 359.526C36.7108 360.731 36.2878 362.775 35.8919 364.851C35.4959 366.926 35.055 369.096 34.848 370.742C34.6299 372.447 34.5037 374.166 34.4701 375.889L33.3542 373.415L32.1484 371.015C32.7524 370.26 33.1692 369.329 33.3542 368.321C33.7483 366.647 33.9837 364.928 34.0561 363.195C34.0572 361.207 33.8944 359.224 33.5702 357.272C33.1742 355.176 32.6703 353.268 32.3464 352.031C32.2744 351.758 31.9054 351.842 31.8964 352.125C31.7794 353.394 31.5995 355.469 31.4105 357.639C31.2215 359.809 30.9245 361.989 30.8885 363.624C30.8211 365.347 30.8452 367.073 30.9605 368.792L29.6467 366.465L28.2249 364.232C28.7538 363.399 29.0886 362.42 29.1968 361.392C29.4444 359.66 29.5109 357.9 29.3947 356.151C29.2139 354.125 28.821 352.132 28.2249 350.217C27.6747 348.491 27.0438 346.801 26.3351 345.154C26.3047 345.104 26.2612 345.067 26.211 345.048C26.1609 345.03 26.1069 345.03 26.0572 345.051C26.0075 345.071 25.9647 345.109 25.9353 345.16C25.9059 345.211 25.8915 345.271 25.8942 345.333C25.9842 346.622 26.0472 348.76 26.1282 350.909C26.2092 353.058 26.1282 355.364 26.2991 356.989C26.3884 358.721 26.5778 360.444 26.8661 362.146C25.8402 360.71 24.8323 359.264 23.6985 357.953C24.1392 357.054 24.3631 356.033 24.3464 354.997C24.4233 353.253 24.3023 351.505 23.9864 349.798Z" fill="#7BC678"/>
<path d="M58.2093 305.877C59.5411 303.969 61.3139 301.369 62.8887 298.885L66.9562 292.701C67.1721 292.386 66.9562 291.967 66.7312 292.155C65.5523 293.004 63.6986 294.503 61.6918 296.265C59.765 298.014 57.9596 299.939 56.2925 302.019C54.73 304.142 53.3241 306.414 52.0901 308.812L53.3049 303.78L53.9259 301.265L54.6458 298.791C55.6716 298.938 58.7762 295.94 62.3488 291.956C65.4264 288.466 69.9978 282.291 72.1575 279.776C72.4004 279.482 72.2565 279.042 71.9775 279.21C70.1441 280.286 68.3599 281.472 66.6322 282.763C65.5883 283.549 64.4815 284.377 63.4916 285.258C62.5017 286.139 61.5659 287.05 60.792 287.91C59.8345 288.923 58.9329 290.004 58.0923 291.149C57.3004 292.197 56.5895 293.246 56.0046 294.189C56.8145 291.82 57.5344 289.399 58.4163 287.061C59.395 285.958 60.1992 284.663 60.792 283.235C61.8358 281.296 62.9337 278.717 64.1755 275.897C64.7065 274.66 65.2644 273.203 65.8673 271.704L66.7672 269.377C67.0731 268.591 67.3791 267.815 67.6671 267.04C68.8639 263.947 70.0248 261.044 70.7987 259.314C70.9696 258.926 70.6817 258.675 70.4117 259.01C68.7159 261.156 67.1265 263.414 65.6513 265.771L64.3465 267.868C63.9416 268.612 63.5276 269.346 63.1317 270.059C62.4049 271.408 61.7439 272.805 61.1519 274.241C60.125 276.611 59.2439 279.063 58.5153 281.579C58.0498 283.124 57.7653 284.735 57.6694 286.369L57.0035 288.162L56.4005 289.986L55.1947 293.644C55.2937 292.501 55.3567 291.212 55.3927 289.807C55.4287 288.403 55.3927 286.883 55.3927 285.331C55.3927 284.021 55.3387 282.554 55.2397 281.002C55.1407 279.451 55.0687 277.857 54.9787 276.337C54.7537 273.193 54.6188 270.352 54.4928 268.57C54.4928 268.161 54.0608 268.318 53.9619 268.78C53.7639 269.765 53.5119 271.065 53.215 272.543C52.918 274.021 52.711 275.688 52.468 277.407C52.2251 279.126 52.0721 280.876 51.9281 282.533C51.7915 284.04 51.7344 285.556 51.7571 287.071C51.8291 293.151 52.846 297.753 53.7189 298.466L53.053 300.845C52.828 301.673 52.639 302.502 52.4321 303.33L51.2532 308.33C51.2382 305.551 51.0879 302.776 50.8033 300.017C50.6323 297.439 50.1104 294.168 49.6784 291.107C49.2465 288.046 48.8055 285.122 48.5536 283.413C48.4996 283.025 48.0946 283.224 48.0316 283.675C47.8157 285.709 47.4197 288.99 47.2397 292.449C47.0356 295.689 47.0657 298.943 47.3297 302.177C47.5329 304.761 47.9734 307.312 48.6435 309.787C49.2015 311.737 49.7684 312.994 50.2363 313.309L49.7414 315.814L49.3545 318.361L48.5986 323.445C48.3414 320.68 47.9387 317.935 47.3927 315.227C46.9968 312.67 46.2409 309.483 45.503 306.453C44.7651 303.424 44.2071 300.646 43.8022 298.917C43.7032 298.518 43.3252 298.77 43.3072 299.231C43.1003 303.33 43.0643 312.575 44.2071 317.806C45.269 323.77 47.1677 328.047 48.1306 328.519C47.7167 331.926 47.6717 335.374 47.5277 338.813C47.3117 337.691 47.0238 336.444 46.6278 335.091C46.4478 334.41 46.2589 333.718 46.0519 332.995C45.8449 332.272 45.6379 331.548 45.458 330.804C44.819 328.309 43.7302 325.227 42.7583 322.303C41.7864 319.378 40.9586 316.653 40.3826 314.965C40.2566 314.577 39.9057 314.871 39.9327 315.343C39.9957 316.391 40.0767 317.722 40.1757 319.252C40.2632 320.914 40.4254 322.569 40.6616 324.211C40.9046 325.951 41.1745 327.712 41.4625 329.347C41.6155 330.165 41.7504 330.961 41.9304 331.706C42.1104 332.45 42.3174 333.152 42.5063 333.802C43.2327 336.255 44.1358 338.633 45.206 340.909C46.1059 342.639 46.9068 343.729 47.4197 343.907C47.4197 347.335 47.4197 350.773 47.4827 354.201C46.7774 351.557 45.9329 348.967 44.954 346.444C44.5221 345.259 43.9732 343.949 43.3702 342.607L42.4254 340.574C42.1194 339.871 41.8224 339.169 41.5255 338.477C40.2656 335.657 39.0958 333.047 38.3939 331.464C38.2229 331.098 37.908 331.465 37.9799 331.915C38.3129 334.012 38.8798 337.303 39.5727 340.668C40.3018 343.719 41.1976 346.713 42.2544 349.631C44.2971 355.081 46.5648 358.97 47.5997 359.295C47.6897 362.723 47.8157 366.14 47.9596 369.568C47.192 366.96 46.2905 364.408 45.26 361.926C43.0751 357.065 40.6721 352.342 38.0609 347.775C37.872 347.45 37.575 347.775 37.674 348.226C38.5019 352.021 40.6346 360.522 42.5783 365.207C44.7921 370.574 47.1587 374.369 48.2026 374.642C48.4006 378.069 48.5986 381.487 48.8595 384.904C48.0113 382.327 47.0348 379.811 45.9349 377.367C43.6183 372.596 41.083 367.973 38.3399 363.52C38.1419 363.195 37.854 363.52 37.9619 363.981C38.9068 367.723 41.2645 376.141 43.3612 380.753C45.7099 385.994 48.2026 389.736 49.2555 389.977C49.5344 393.384 49.8494 396.791 50.2273 400.187C50.2273 400.617 50.5153 400.931 50.7583 400.889C51.0012 400.848 51.1632 400.481 51.1182 400.051C50.7493 396.676 50.4343 393.279 50.1464 389.893C51.1362 389.548 52.972 385.334 54.6458 379.767C56.0856 374.956 57.6784 366.654 58.3893 363.048C58.4703 362.629 58.1643 362.314 57.9843 362.629C56.4725 365.438 53.143 372.063 51.6852 376.906C50.8559 379.552 50.2119 382.273 49.7594 385.04C49.4984 381.56 49.2915 378.08 49.0935 374.558C50.0924 374.254 52.0541 370.103 53.8989 364.61C55.4737 359.861 57.2824 351.633 58.1103 348.058C58.2003 347.649 57.8943 347.314 57.7144 347.628C56.1306 350.364 52.603 356.863 51.0102 361.643C50.1046 364.258 49.3823 366.954 48.8505 369.704C48.6945 366.21 48.5716 362.716 48.4816 359.222C49.4894 358.96 51.5592 354.882 53.5659 349.473C54.4118 347.136 55.3657 343.928 56.1936 340.867C57.0215 337.806 57.9393 335.28 58.4073 333.645C58.5153 333.278 58.2273 332.943 58.0293 333.215C57.1924 334.421 55.8066 336.465 54.4298 338.855C54.0698 339.452 53.7189 340.06 53.3679 340.689C53.017 341.318 52.72 341.989 52.4141 342.639C51.7931 343.939 51.2352 345.217 50.7943 346.391C49.8162 348.967 49.0217 351.631 48.4186 354.358C48.3646 350.867 48.3196 347.377 48.3466 343.876C48.8505 343.771 49.6604 342.712 50.5963 341.024C51.7794 338.95 52.8639 336.801 53.8449 334.588C54.0878 334.043 54.3308 333.446 54.5828 332.827L55.4377 330.857C56.0226 329.504 56.5985 328.079 57.1384 326.664C57.6784 325.248 58.2633 323.938 58.7672 322.754L60.0451 319.745C60.189 319.389 59.9371 319.011 59.7211 319.263C58.7492 320.311 57.1474 322.219 55.4827 324.399C53.9122 326.567 52.4919 328.877 51.2352 331.307C50.902 331.964 50.6016 332.643 50.3353 333.341C50.0744 334.022 49.8224 334.683 49.5884 335.332C49.1205 336.643 48.6885 337.88 48.4366 338.991C48.5896 335.511 48.6256 332.02 49.0395 328.561C50.1014 328.456 52.504 324.766 55.3837 320.07C57.6874 315.951 61.3139 308.98 62.9427 306.034C63.1227 305.699 62.9427 305.29 62.6637 305.51C61.5929 306.495 59.8381 308.162 57.9753 310.143C56.2005 312.141 54.5552 314.288 53.053 316.569C51.6894 318.872 50.4857 321.297 49.4534 323.823L50.2183 318.676L50.5963 316.097L51.1002 313.55C51.6132 313.55 52.603 312.743 53.7999 311.359C54.9967 309.976 56.6525 308.057 58.2093 305.877Z" fill="#7BC678"/>
<path d="M81.7045 345.721C84.5211 344.316 88.5886 341.528 90.3344 340.343C90.5324 340.207 90.3884 339.84 90.1454 339.871C89.0835 339.976 87.3468 340.228 85.484 340.637C83.7001 341.009 81.9497 341.574 80.2557 342.324C78.7096 343.039 77.2416 343.964 75.8823 345.081C76.8721 343.163 77.907 341.297 78.9509 339.431C79.8508 339.966 82.8834 339.211 86.2219 337.911C87.6617 337.345 89.4075 336.402 91.0363 335.563C92.6651 334.725 94.1229 333.97 95.0048 333.467C95.2027 333.372 95.0858 333.005 94.8518 332.995C93.3081 332.942 91.7631 333.005 90.2264 333.184C88.4372 333.369 86.6696 333.773 84.9531 334.389C83.3759 334.985 81.8654 335.798 80.4537 336.811C81.2636 335.479 82.0555 334.138 82.9014 332.827C83.9362 332.649 86.0329 330.29 88.2197 327.261C88.7056 326.58 89.2365 325.794 89.7585 324.923L91.3962 322.303C92.3007 320.814 93.2771 319.386 94.3209 318.026C94.4828 317.806 94.3209 317.45 94.0509 317.575C92.5644 318.36 91.1503 319.319 89.8304 320.437C89.0296 321.087 88.2647 321.842 87.5357 322.533C86.8792 323.222 86.2601 323.957 85.682 324.735C83.5493 327.67 82.3344 330.636 82.2894 331.999C81.3895 333.33 80.6157 334.704 79.7788 336.066C80.0828 334.183 80.2722 332.278 80.3457 330.364C80.4267 328.498 80.3457 326.077 80.2827 323.728C80.2197 321.38 80.1477 319.137 80.1477 317.754C80.1452 317.686 80.1221 317.622 80.0826 317.573C80.0431 317.524 79.9898 317.492 79.9323 317.485C79.8748 317.477 79.8169 317.494 79.7689 317.531C79.721 317.569 79.6862 317.626 79.6708 317.691C79.0283 319.588 78.4815 321.527 78.033 323.498C77.5147 325.659 77.1831 327.875 77.0431 330.112C76.8541 334.4 77.4751 337.922 78.213 338.771C77.1871 340.616 76.1612 342.45 75.1894 344.337C75.3875 342.438 75.4717 340.526 75.4413 338.614C75.3963 336.758 75.1984 334.368 74.9374 332.062C74.6764 329.756 74.4515 327.565 74.3075 326.234C74.2967 326.169 74.267 326.111 74.2235 326.07C74.18 326.028 74.1254 326.005 74.069 326.005C74.0126 326.005 73.958 326.028 73.9145 326.07C73.871 326.111 73.8413 326.169 73.8305 326.234C73.1916 328.886 72.0308 334.871 72.1388 338.614C72.2108 342.89 72.9577 346.35 73.7495 347.157C72.7867 349.044 71.8688 350.962 70.9599 352.891C71.0874 350.986 71.0874 349.072 70.9599 347.167C70.7349 343.498 69.6101 337.597 69.1602 334.966C69.1459 334.906 69.1152 334.854 69.073 334.816C69.0308 334.779 68.9792 334.759 68.9262 334.759C68.8732 334.759 68.8216 334.779 68.7794 334.816C68.7371 334.854 68.7065 334.906 68.6922 334.966C67.9261 339.026 67.5728 343.178 67.6393 347.335C67.8913 351.58 68.7822 354.998 69.6101 355.721C68.7102 357.66 67.8823 359.631 67.0364 361.591C67.1049 359.68 67.0357 357.765 66.8295 355.868C66.2553 351.807 65.4893 347.786 64.5348 343.823C64.5205 343.764 64.4899 343.711 64.4476 343.674C64.4054 343.637 64.3538 343.617 64.3008 343.617C64.2478 343.617 64.1962 343.637 64.154 343.674C64.1117 343.711 64.0811 343.764 64.0668 343.823C63.9048 345.144 63.6709 347.314 63.5269 349.61C63.3684 351.796 63.3684 353.995 63.5269 356.182C63.9408 360.375 64.9667 363.782 65.8126 364.495C64.9847 366.476 64.2468 368.499 63.4819 370.501C63.4675 368.589 63.32 366.682 63.0409 364.799C62.7052 362.647 62.2666 360.52 61.7271 358.425C61.1962 356.224 60.6383 354.148 60.2873 352.88C60.2727 352.818 60.2397 352.764 60.1943 352.728C60.1488 352.691 60.0938 352.675 60.0389 352.681C59.984 352.687 59.9328 352.716 59.8942 352.762C59.8557 352.808 59.8324 352.868 59.8284 352.932C59.6034 355.574 59.2344 361.622 59.7744 365.323C60.3413 369.516 61.5741 372.87 62.411 373.52C61.7091 375.554 61.0252 377.608 60.4043 379.684C60.2662 377.772 60.0167 375.874 59.6574 374.002C59.2191 371.874 58.6844 369.775 58.0556 367.713C57.4347 365.532 56.8048 363.52 56.4088 362.209C56.3932 362.145 56.358 362.09 56.3099 362.054C56.2617 362.018 56.2039 362.004 56.1474 362.014C56.0909 362.025 56.0396 362.059 56.0032 362.11C55.9668 362.162 55.9479 362.227 55.9499 362.293C55.8059 364.987 55.6889 371.099 56.4178 374.767C57.2007 378.96 58.5685 382.189 59.4954 382.776C58.8925 384.872 58.3616 386.969 57.8666 389.065C57.6144 387.238 57.2628 385.432 56.8138 383.656C55.9139 380.113 53.8172 374.526 52.9623 372.042C52.9491 371.971 52.9124 371.909 52.8601 371.87C52.8077 371.83 52.7442 371.817 52.6833 371.832C52.6224 371.848 52.5693 371.89 52.5355 371.951C52.5018 372.012 52.4902 372.086 52.5033 372.157C52.5033 374.862 52.6833 381.057 53.6282 384.736C54.672 388.929 56.2648 392 57.2277 392.483C56.7928 394.631 56.4534 396.803 56.2108 398.992C56.2059 399.06 56.2125 399.128 56.2302 399.192C56.2479 399.257 56.2764 399.317 56.3141 399.368C56.3517 399.42 56.3977 399.462 56.4495 399.493C56.5013 399.524 56.5578 399.543 56.6158 399.548C56.7311 399.563 56.847 399.526 56.9392 399.444C57.0314 399.361 57.0929 399.241 57.1107 399.108C57.3424 396.96 57.6758 394.829 58.1096 392.724C59.1085 392.839 61.7091 390.963 64.4898 388.531C66.8564 386.361 70.114 382.451 71.5808 380.795C71.7518 380.606 71.5268 380.292 71.3019 380.386C68.12 381.726 65.0964 383.529 62.303 385.753C60.9607 386.906 59.751 388.256 58.7035 389.768C59.2074 387.619 59.7384 385.48 60.3413 383.363C61.3402 383.583 64.0938 381.969 67.0184 379.694C69.6468 377.409 72.1672 374.959 74.5684 372.356C74.7394 372.178 74.5684 371.843 74.3075 371.927C73.2816 372.314 71.6078 372.975 69.8081 373.824C68.1274 374.613 66.5103 375.574 64.9757 376.696C63.5854 377.753 62.3076 378.999 61.1692 380.407C61.7991 378.31 62.492 376.214 63.2029 374.117C64.2018 374.421 67.0184 373.017 70.078 370.92C72.8358 368.796 75.4804 366.479 77.997 363.981C78.177 363.803 77.997 363.457 77.745 363.541C76.7102 363.876 75.0454 364.474 73.2456 365.218C71.5578 365.896 69.9205 366.734 68.3503 367.723C66.9149 368.7 65.5751 369.857 64.3548 371.172C65.1287 369.138 65.8756 367.084 66.7125 365.082C67.6843 365.438 70.573 364.233 73.7316 362.272C75.2839 361.245 76.786 360.118 78.231 358.897C79.7428 357.66 81.1106 356.465 81.9385 355.752C82.1275 355.595 81.9385 355.239 81.7135 355.302C78.348 356.115 75.0725 357.371 71.9498 359.044C70.475 359.945 69.0872 361.027 67.8103 362.272C68.7102 360.281 69.5111 358.279 70.42 356.308C71.3199 356.727 74.3165 355.658 77.5291 353.865C80.4249 352.038 83.2336 350.03 85.943 347.849C86.1409 347.691 85.943 347.335 85.736 347.377C82.3736 347.967 79.0838 349.023 75.9363 350.522C74.4225 351.336 72.9917 352.345 71.6708 353.53C72.5707 351.57 73.5336 349.62 74.5054 347.702C75.4413 348.205 78.4379 347.303 81.7045 345.721Z" fill="#7BC678"/>
<path d="M42.7584 459.601H55.2488C65.1475 454.549 72.4006 437.819 72.4006 417.934C72.4453 410.163 71.2523 402.451 68.882 395.187H29.1252C26.7549 402.451 25.5619 410.163 25.6067 417.934C25.6067 437.819 32.8687 454.549 42.7584 459.601Z" fill="#292D34"/>
<path d="M542.832 349.798C542.651 348.849 542.391 347.922 542.058 347.031C541.712 346.016 541.315 345.025 540.87 344.065C540.082 342.412 539.179 340.838 538.17 339.358C538.138 339.304 538.09 339.266 538.036 339.25C537.982 339.234 537.924 339.241 537.874 339.271C537.824 339.3 537.784 339.349 537.763 339.409C537.741 339.47 537.739 339.537 537.756 339.599C537.891 340.228 538.071 341.067 538.269 342.01C538.467 342.953 538.629 344.033 538.818 345.155C539.205 347.251 539.466 349.557 539.808 351.172L540.393 353.97C540.591 354.819 540.789 355.564 540.987 356.182L539.187 354.306C538.593 353.677 537.945 353.142 537.324 352.545C537.653 351.58 537.743 350.527 537.585 349.505C537.403 347.747 537.016 346.025 536.433 344.389C536.095 343.486 535.704 342.611 535.264 341.769C533.847 339.214 532.119 336.912 530.134 334.934C530.092 334.895 530.041 334.873 529.987 334.872C529.934 334.871 529.881 334.89 529.838 334.927C529.795 334.964 529.763 335.017 529.749 335.077C529.734 335.137 529.737 335.201 529.756 335.259C530.008 335.867 530.341 336.643 530.656 337.544C530.971 338.446 531.349 339.452 531.718 340.49L533.626 346.255C533.968 347.22 534.301 348.111 534.625 348.897C534.894 349.613 535.194 350.313 535.525 350.993L534.076 349.84L532.555 348.792C532.479 348.432 532.331 348.098 532.123 347.817C531.81 347.406 531.463 347.03 531.088 346.696C530.032 345.759 528.853 345.026 527.597 344.526C526.106 343.958 524.549 343.664 522.98 343.656C521.629 343.623 520.278 343.778 518.958 344.117C518.751 344.18 518.778 344.599 518.958 344.662C520.183 345.097 521.384 345.615 522.557 346.213C523.943 346.874 525.356 347.691 526.49 348.153C528.856 349.201 530.989 349.809 532.015 349.61L533.518 350.658C534.013 351.014 534.481 351.413 534.967 351.79C534.343 351.707 533.714 351.679 533.086 351.706C532.334 351.773 531.585 351.892 530.845 352.063C530.114 352.243 529.4 352.507 528.713 352.849C527.95 353.203 527.21 353.62 526.499 354.096C525.788 354.578 525.131 355.071 524.564 355.532C523.997 355.994 523.529 356.476 523.187 356.822C523.025 356.979 523.025 357.356 523.187 357.304C523.88 357.063 525.05 356.759 526.409 356.455L528.506 356.025C529.198 355.91 529.891 355.773 530.521 355.606C531.943 355.239 533.302 354.924 534.454 354.557C535.299 354.359 536.101 353.963 536.811 353.394C537.405 353.96 538.035 354.442 538.611 355.082L540.321 356.884C539.705 356.703 539.08 356.566 538.449 356.476C537.704 356.358 536.95 356.326 536.2 356.381C534.618 356.495 533.058 356.865 531.565 357.482C530.782 357.796 530.053 358.121 529.405 358.457C528.757 358.792 528.209 359.138 527.795 359.4C527.606 359.516 527.552 359.882 527.723 359.872C528.479 359.788 529.711 359.809 531.133 359.788C531.844 359.788 532.564 359.841 533.293 359.841H535.39C536.829 359.841 538.287 359.652 539.439 359.516C540.304 359.473 541.153 359.223 541.932 358.782C543.008 360.065 544.026 361.412 544.982 362.818C543.695 362.198 542.337 361.799 540.951 361.633C539.362 361.485 537.763 361.566 536.191 361.874C534.827 362.141 533.48 362.516 532.159 362.996C531.952 363.08 531.853 363.436 532.024 363.457L535.48 364.096C536.856 364.453 538.476 364.715 539.736 364.935C541.097 365.138 542.467 365.246 543.84 365.26C544.7 365.361 545.569 365.243 546.386 364.914L547.763 367.084L549.041 369.327C547.809 368.547 546.488 367.976 545.117 367.629C543.546 367.225 541.938 367.052 540.33 367.115C538.932 367.148 537.538 367.281 536.155 367.514C535.939 367.514 535.804 367.891 535.975 367.954C536.712 368.247 537.963 368.719 539.394 369.222C540.78 369.831 542.195 370.345 543.633 370.763C544.965 371.157 546.317 371.451 547.682 371.644C548.534 371.834 549.411 371.813 550.256 371.581L551.435 373.908L552.487 376.214C551.333 375.293 550.072 374.567 548.744 374.055C547.207 373.492 545.618 373.14 544.011 373.006C542.602 372.845 541.187 372.779 539.772 372.807C539.547 372.807 539.376 373.143 539.556 373.237C540.33 373.614 541.509 374.285 542.904 375.019C544.233 375.765 545.593 376.433 546.98 377.021C548.268 377.57 549.584 378.022 550.922 378.373C551.75 378.677 552.624 378.77 553.486 378.646C554.152 380.26 554.719 381.937 555.286 383.604C554.221 382.551 553.041 381.667 551.777 380.973C550.303 380.221 548.76 379.669 547.178 379.327C545.794 378.998 544.393 378.771 542.985 378.646C542.76 378.646 542.562 378.929 542.724 379.044C543.462 379.506 544.568 380.323 545.882 381.141C547.196 381.958 548.582 382.954 549.725 383.625C552.424 385.082 554.98 386.277 556.024 386.078L556.69 388.646L557.266 391.256C556.334 390.033 555.255 388.974 554.062 388.112C552.68 387.171 551.21 386.418 549.68 385.868C548.337 385.387 546.973 384.988 545.594 384.673C545.378 384.673 545.153 384.904 545.297 385.03C545.909 385.596 547.097 386.508 548.186 387.535C549.275 388.562 550.625 389.632 551.785 390.47C554.287 392.284 556.717 393.835 557.752 393.814C558.041 395.561 558.225 397.33 558.301 399.108C558.301 399.328 558.508 399.496 558.76 399.496C558.813 399.503 558.867 399.497 558.919 399.479C558.97 399.461 559.018 399.431 559.059 399.391C559.101 399.351 559.134 399.301 559.159 399.245C559.183 399.189 559.197 399.128 559.201 399.066C559.119 397.243 558.932 395.429 558.643 393.636C559.615 393.321 561.468 390.722 562.71 386.98C563.294 385.076 563.681 383.098 563.862 381.088C564.048 379.304 564.144 377.508 564.15 375.711C564.145 375.65 564.122 375.594 564.086 375.55C564.049 375.506 564.001 375.477 563.95 375.469C563.898 375.46 563.845 375.473 563.8 375.503C563.755 375.534 563.719 375.581 563.7 375.638L561.738 380.648C560.928 382.619 560.136 384.61 559.597 386.172C559.044 387.776 558.578 389.418 558.202 391.089C558.013 390.187 557.806 389.286 557.608 388.384L556.915 385.711C557.639 385.13 558.217 384.334 558.589 383.405C559.308 381.872 559.856 380.237 560.217 378.541C560.605 376.585 560.798 374.584 560.793 372.577C560.794 370.802 560.716 369.028 560.559 367.262C560.559 366.979 560.172 366.979 560.1 367.262C559.794 368.447 559.201 370.407 558.625 372.503C558.049 374.6 557.383 376.696 557.059 378.248C556.653 379.911 556.352 381.607 556.159 383.321C555.583 381.592 554.998 379.851 554.305 378.174C554.974 377.493 555.477 376.618 555.763 375.638C556.302 374.018 556.686 372.334 556.906 370.616C557.087 368.637 557.087 366.642 556.906 364.662C556.754 362.903 556.526 361.154 556.222 359.421C556.168 359.149 555.817 359.191 555.763 359.474C555.565 360.679 555.142 362.723 554.746 364.799C554.35 366.874 553.9 369.044 553.702 370.69C553.477 372.394 553.348 374.113 553.315 375.837L552.208 373.363L550.994 370.962C551.598 370.208 552.014 369.277 552.199 368.268C552.598 366.596 552.834 364.876 552.901 363.142C552.91 361.155 552.75 359.171 552.424 357.22C552.019 355.123 551.525 353.216 551.192 351.979C551.12 351.706 550.76 351.79 550.742 352.073C550.634 353.341 550.454 355.417 550.265 357.587C550.076 359.757 549.779 361.937 549.743 363.572C549.671 365.295 549.695 367.021 549.815 368.74L548.492 366.413L547.088 364.222C547.625 363.393 547.963 362.413 548.069 361.381C548.312 359.65 548.379 357.89 548.267 356.14C548.077 354.116 547.685 352.125 547.097 350.207C546.547 348.481 545.916 346.79 545.207 345.144C545.177 345.094 545.133 345.057 545.083 345.038C545.033 345.019 544.979 345.02 544.929 345.04C544.88 345.06 544.837 345.099 544.807 345.15C544.778 345.201 544.764 345.261 544.766 345.322C544.856 346.612 544.919 348.75 544.991 350.899C545.063 353.048 544.991 355.354 545.162 356.979C545.261 358.71 545.45 360.432 545.729 362.136C544.703 360.7 543.705 359.254 542.562 357.943C543.002 357.043 543.229 356.023 543.219 354.987C543.285 353.245 543.155 351.501 542.832 349.798Z" fill="#7BC678"/>
<path d="M577.063 305.877C578.386 303.969 580.159 301.369 581.733 298.885C583.308 296.401 584.874 294.126 585.801 292.701C586.026 292.386 585.855 291.967 585.585 292.155C584.406 293.004 582.552 294.503 580.546 296.265C578.619 298.014 576.813 299.939 575.146 302.019C573.578 304.139 572.169 306.412 570.935 308.812L572.159 303.78L572.78 301.265L573.499 298.791C574.525 298.938 577.621 295.94 581.202 291.956C584.28 288.466 588.851 282.291 591.011 279.776C591.245 279.482 591.101 279.042 590.822 279.21C588.992 280.286 587.211 281.472 585.486 282.763C584.442 283.549 583.335 284.377 582.345 285.258C581.355 286.139 580.411 287.05 579.646 287.91C578.688 288.922 577.786 290.004 576.946 291.149C576.145 292.197 575.443 293.246 574.858 294.189C575.668 291.82 576.379 289.399 577.27 287.061C578.249 285.958 579.053 284.663 579.646 283.235C580.69 281.296 581.778 278.717 583.02 275.897C583.56 274.66 584.109 273.203 584.721 271.704L585.621 269.377L586.521 267.04C587.718 263.947 588.878 261.044 589.643 259.314C589.823 258.926 589.526 258.675 589.265 259.01C587.595 261.152 586.029 263.402 584.577 265.75L583.272 267.847L582.057 270.038C581.317 271.373 580.641 272.755 580.033 274.178C579.005 276.546 578.126 278.999 577.405 281.516C576.938 283.061 576.65 284.672 576.55 286.306L575.893 288.099L575.29 289.923L574.075 293.581C574.174 292.438 574.246 291.149 574.273 289.744C574.3 288.34 574.273 286.82 574.327 285.268C574.327 283.958 574.264 282.491 574.174 280.939C574.084 279.388 574.003 277.795 573.913 276.275C573.688 273.13 573.544 270.289 573.427 268.507C573.427 268.098 572.987 268.256 572.897 268.717L572.141 272.48C571.898 273.979 571.637 275.625 571.394 277.344C571.151 279.063 571.007 280.813 570.863 282.47C570.722 283.977 570.665 285.493 570.692 287.009C570.764 293.088 571.781 297.69 572.654 298.403L571.943 300.845C571.727 301.673 571.538 302.502 571.331 303.33L570.116 308.288C570.105 305.509 569.955 302.734 569.666 299.975C569.504 297.397 568.982 294.126 568.55 291.065C568.118 288.004 567.695 285.111 567.452 283.371C567.398 282.983 566.993 283.182 566.93 283.633C566.705 285.667 566.309 288.948 566.138 292.407C565.936 295.647 565.963 298.9 566.219 302.135C566.43 304.719 566.873 307.269 567.542 309.745C568.091 311.695 568.667 312.953 569.135 313.267L568.631 315.772L568.253 318.32L567.497 323.403C567.236 320.639 566.833 317.894 566.291 315.185C565.895 312.628 565.14 309.441 564.402 306.412C563.664 303.382 563.097 300.604 562.692 298.875C562.602 298.476 562.224 298.728 562.206 299.189C561.999 303.288 561.954 312.533 563.106 317.764C564.159 323.728 566.066 328.005 567.029 328.477C566.615 331.884 566.57 335.332 566.417 338.771C566.201 337.649 565.913 336.402 565.563 335.049C565.392 334.368 565.203 333.676 564.996 332.953C564.789 332.23 564.573 331.506 564.393 330.762C563.754 328.267 562.665 325.186 561.693 322.261C560.721 319.336 559.893 316.611 559.317 314.923C559.191 314.535 558.831 314.829 558.858 315.301C558.921 316.349 559.011 317.68 559.101 319.211C559.191 320.741 559.317 322.429 559.587 324.169C559.857 325.909 560.1 327.67 560.397 329.305C560.541 330.123 560.685 330.919 560.856 331.664C561.027 332.408 561.243 333.11 561.441 333.76C562.164 336.215 563.067 338.593 564.141 340.867C565.041 342.597 565.841 343.687 566.354 343.865C566.354 347.293 566.354 350.731 566.417 354.159C565.726 351.518 564.899 348.928 563.943 346.402C563.511 345.217 562.953 343.907 562.35 342.565L561.45 340.532L560.55 338.435L557.41 331.423C557.248 331.056 556.924 331.423 557.005 331.873C557.329 333.97 557.905 337.261 558.588 340.626C559.304 343.671 560.182 346.66 561.216 349.578C563.259 355.029 565.536 358.918 566.615 359.243C566.705 362.671 566.822 366.088 566.975 369.516C566.207 366.908 565.306 364.356 564.276 361.874C562.094 357.011 559.691 352.287 557.077 347.723C556.888 347.398 556.591 347.723 556.681 348.173C557.509 351.968 559.65 360.469 561.594 365.155C563.799 370.522 566.174 374.317 567.218 374.589C567.407 378.017 567.614 381.434 567.866 384.851C567.027 382.275 566.06 379.759 564.969 377.315C562.649 372.543 560.111 367.921 557.365 363.467C557.176 363.142 556.879 363.467 556.987 363.929C557.931 367.671 560.289 376.088 562.386 380.7C564.735 385.942 567.218 389.684 568.271 389.925C568.559 393.332 568.874 396.738 569.252 400.135C569.297 400.565 569.54 400.879 569.783 400.837C570.026 400.795 570.188 400.428 570.143 399.998C569.765 396.623 569.45 393.227 569.171 389.841C570.152 389.495 571.988 385.281 573.67 379.715C575.11 374.904 576.694 366.602 577.414 362.996C577.495 362.576 577.18 362.262 577.009 362.576C575.497 365.386 572.168 372.01 570.71 376.853C569.872 379.497 569.228 382.218 568.784 384.988C568.523 381.508 568.307 378.027 568.118 374.505C569.117 374.201 571.07 370.05 572.915 364.557C574.498 359.809 576.298 351.58 577.135 348.006C577.225 347.597 576.919 347.261 576.739 347.576C575.155 350.312 571.619 356.811 570.026 361.591C569.123 364.206 568.404 366.902 567.875 369.652C567.725 366.158 567.602 362.664 567.506 359.17C568.505 358.907 570.575 354.83 572.591 349.421C573.436 347.083 574.39 343.876 575.218 340.815C576.046 337.754 576.955 335.228 577.432 333.592C577.54 333.226 577.243 332.89 577.054 333.163C576.208 334.368 574.831 336.412 573.409 338.802C573.059 339.4 572.699 340.008 572.357 340.637C572.015 341.266 571.7 341.936 571.394 342.586C570.782 343.886 570.224 345.165 569.774 346.339C568.804 348.918 568.009 351.582 567.398 354.306C567.344 350.815 567.308 347.324 567.335 343.823C567.839 343.718 568.64 342.66 569.576 340.972C570.766 338.9 571.853 336.751 572.834 334.536C573.077 333.991 573.319 333.393 573.571 332.775L574.426 330.804C575.002 329.452 575.578 328.026 576.118 326.611C576.658 325.196 577.252 323.886 577.756 322.701L579.025 319.693C579.178 319.336 578.926 318.959 578.701 319.211C577.729 320.259 576.136 322.167 574.471 324.347C572.898 326.512 571.478 328.823 570.224 331.255C569.891 331.912 569.59 332.591 569.324 333.288C569.054 333.97 568.802 334.63 568.577 335.28C568.109 336.59 567.722 337.827 567.416 338.938C567.578 335.458 567.614 331.968 568.028 328.508C569.081 328.404 571.493 324.714 574.327 320.018C576.64 315.898 580.258 308.927 581.895 305.982C582.075 305.646 581.895 305.237 581.616 305.458C580.546 306.443 578.782 308.11 576.928 310.091C575.165 312.062 573.529 314.182 572.033 316.433C570.67 318.736 569.466 321.161 568.433 323.687L569.198 318.54L569.585 315.961L570.089 313.414C570.602 313.414 571.583 312.607 572.789 311.223C573.994 309.839 575.452 308.057 577.063 305.877Z" fill="#7BC678"/>
<path d="M600.559 345.721C603.376 344.316 607.434 341.528 609.18 340.343C609.387 340.207 609.243 339.84 609 339.871C607.938 339.976 606.192 340.228 604.33 340.637C602.548 341.009 600.801 341.574 599.11 342.324C597.58 343.043 596.127 343.968 594.782 345.081C595.763 343.163 596.807 341.297 597.85 339.431C598.75 339.966 601.783 339.211 605.121 337.911C606.552 337.345 608.307 336.402 609.927 335.563C611.547 334.725 613.022 333.97 613.895 333.467C614.102 333.372 613.976 333.005 613.742 332.995C612.202 332.942 610.66 333.005 609.126 333.184C607.313 333.364 605.521 333.768 603.781 334.389C602.204 334.987 600.694 335.8 599.281 336.811C600.091 335.479 600.892 334.138 601.729 332.827C602.773 332.649 604.86 330.29 607.056 327.261C607.542 326.58 608.073 325.794 608.595 324.923L610.224 322.303C611.131 320.816 612.107 319.389 613.148 318.026C613.182 317.979 613.202 317.92 613.205 317.859C613.207 317.798 613.193 317.737 613.163 317.686C613.134 317.636 613.091 317.597 613.041 317.577C612.992 317.557 612.938 317.557 612.887 317.575C611.398 318.359 609.981 319.318 608.658 320.437C607.857 321.087 607.101 321.842 606.372 322.533C605.716 323.222 605.097 323.957 604.519 324.735C602.386 327.67 601.162 330.636 601.117 331.999C600.217 333.33 599.443 334.704 598.615 336.066C598.919 334.183 599.109 332.278 599.182 330.364C599.254 328.498 599.182 326.077 599.11 323.728C599.038 321.38 598.984 319.137 598.984 317.754C598.982 317.686 598.959 317.622 598.919 317.573C598.88 317.524 598.826 317.492 598.769 317.485C598.711 317.477 598.653 317.494 598.605 317.531C598.558 317.569 598.523 317.626 598.507 317.691C597.865 319.588 597.318 321.527 596.87 323.498C596.344 325.657 596.01 327.874 595.871 330.112C595.691 334.4 596.312 337.922 597.05 338.771C596.024 340.616 594.989 342.45 594.026 344.337C594.224 342.438 594.308 340.526 594.278 338.614C594.233 336.758 594.035 334.368 593.774 332.062C593.513 329.756 593.279 327.565 593.135 326.234C593.135 326.162 593.11 326.092 593.067 326.041C593.023 325.99 592.963 325.961 592.901 325.961C592.839 325.961 592.779 325.99 592.736 326.041C592.692 326.092 592.667 326.162 592.667 326.234C592.019 328.886 590.867 334.871 590.966 338.614C591.038 342.89 591.785 346.35 592.586 347.157C591.623 349.044 590.705 350.962 589.796 352.891C589.924 350.986 589.924 349.072 589.796 347.167C589.562 343.498 588.447 337.597 587.997 334.966C587.982 334.906 587.952 334.854 587.91 334.816C587.867 334.779 587.816 334.759 587.763 334.759C587.71 334.759 587.658 334.779 587.616 334.816C587.574 334.854 587.543 334.906 587.529 334.966C586.764 339.027 586.407 343.178 586.467 347.335C586.728 351.58 587.619 354.998 588.438 355.721C587.538 357.66 586.719 359.631 585.873 361.591C585.938 359.68 585.866 357.765 585.657 355.868C585.081 351.808 584.318 347.787 583.371 343.823C583.357 343.764 583.326 343.711 583.284 343.674C583.242 343.637 583.19 343.617 583.137 343.617C583.084 343.617 583.033 343.637 582.991 343.674C582.948 343.711 582.918 343.764 582.903 343.823C582.732 345.144 582.498 347.314 582.354 349.61C582.191 351.796 582.191 353.995 582.354 356.182C582.768 360.375 583.785 363.782 584.64 364.495C583.812 366.476 583.074 368.499 582.309 370.501C582.291 368.589 582.141 366.682 581.859 364.799C581.528 362.646 581.089 360.518 580.546 358.425C580.015 356.224 579.457 354.148 579.115 352.88C579.1 352.818 579.067 352.764 579.022 352.728C578.976 352.691 578.921 352.675 578.866 352.681C578.812 352.687 578.76 352.716 578.722 352.762C578.683 352.808 578.66 352.868 578.656 352.932C578.422 355.574 578.053 361.622 578.593 365.323C579.16 369.516 580.393 372.87 581.239 373.52C580.537 375.554 579.844 377.608 579.223 379.684C579.093 377.772 578.846 375.873 578.485 374.002C578.043 371.874 577.506 369.775 576.874 367.713C576.262 365.532 575.623 363.52 575.236 362.209C575.216 362.15 575.179 362.1 575.131 362.069C575.084 362.037 575.028 362.025 574.974 362.035C574.919 362.044 574.87 362.075 574.832 362.122C574.795 362.169 574.773 362.229 574.768 362.293C574.633 364.987 574.516 371.099 575.245 374.767C576.028 378.96 577.396 382.189 578.314 382.776C577.711 384.872 577.189 386.969 576.685 389.065C576.429 387.17 576.065 385.297 575.596 383.457C574.696 379.914 572.6 374.327 571.736 371.843C571.711 371.787 571.672 371.743 571.624 371.716C571.575 371.689 571.521 371.682 571.468 371.695C571.416 371.708 571.369 371.741 571.334 371.789C571.3 371.836 571.279 371.896 571.277 371.958C571.232 374.663 571.457 380.858 572.402 384.537C573.446 388.73 575.038 391.801 576.001 392.283C575.558 394.429 575.218 396.603 574.984 398.793C574.971 398.932 575.006 399.071 575.081 399.181C575.156 399.29 575.266 399.36 575.385 399.375C575.504 399.39 575.624 399.35 575.717 399.262C575.811 399.175 575.871 399.047 575.884 398.908C576.12 396.761 576.454 394.631 576.883 392.525C577.891 392.64 580.483 390.764 583.272 388.332C585.63 386.162 588.888 382.252 590.363 380.596C590.525 380.407 590.309 380.092 590.075 380.187C586.895 381.531 583.872 383.334 581.077 385.554C579.736 386.71 578.527 388.059 577.477 389.569C577.981 387.42 578.512 385.281 579.124 383.164C580.114 383.384 582.867 381.77 585.801 379.495C588.428 377.207 590.948 374.757 593.351 372.157C593.522 371.979 593.351 371.644 593.081 371.727C592.064 372.115 590.381 372.776 588.582 373.625C586.9 374.411 585.283 375.373 583.749 376.497C582.357 377.552 581.079 378.797 579.943 380.208C580.573 378.111 581.266 376.015 581.976 373.918C582.975 374.222 585.792 372.818 588.852 370.721C591.607 368.597 594.248 366.28 596.762 363.782C596.951 363.604 596.762 363.258 596.519 363.342C595.484 363.677 593.774 364.274 591.974 365.019C590.257 365.715 588.592 366.578 586.998 367.597C585.561 368.578 584.219 369.734 582.993 371.046C583.767 369.013 584.523 366.958 585.36 364.956C586.332 365.312 589.221 364.107 592.37 362.147C593.925 361.124 595.427 359.997 596.87 358.771C598.381 357.534 599.749 356.339 600.577 355.626C600.775 355.469 600.577 355.113 600.352 355.176C597.016 356.003 593.771 357.266 590.678 358.939C589.251 359.886 587.912 361.003 586.683 362.272C587.583 360.281 588.393 358.279 589.301 356.308C590.246 356.727 593.198 355.658 596.402 353.865C599.299 352.036 602.111 350.027 604.824 347.849C605.013 347.691 604.824 347.335 604.609 347.377C601.249 347.967 597.962 349.023 594.818 350.522C593.303 351.333 591.872 352.343 590.552 353.53C591.452 351.57 592.406 349.62 593.387 347.702C594.296 348.205 597.292 347.303 600.559 345.721Z" fill="#7BC678"/>
<path d="M561.604 459.601H574.085C583.984 454.549 591.237 437.819 591.237 417.934C591.283 410.165 590.096 402.453 587.737 395.187H547.989C545.613 402.467 544.42 410.198 544.47 417.986C544.461 437.819 551.723 454.549 561.604 459.601Z" fill="#292D34"/>
<path d="M314.918 105.139C332.462 105.139 346.684 88.5719 346.684 68.1357C346.684 47.6996 332.462 31.1328 314.918 31.1328C297.374 31.1328 283.152 47.6996 283.152 68.1357C283.152 88.5719 297.374 105.139 314.918 105.139Z" fill="#292D34" stroke="#292D34" stroke-miterlimit="10"/>
<path d="M314.918 100.946C330.474 100.946 343.085 86.2561 343.085 68.1356C343.085 50.0152 330.474 35.3257 314.918 35.3257C299.362 35.3257 286.752 50.0152 286.752 68.1356C286.752 86.2561 299.362 100.946 314.918 100.946Z" fill="white" stroke="#292D34" stroke-miterlimit="10"/>
<path d="M314.919 71.5952C316.559 71.5952 317.888 70.0464 317.888 68.136C317.888 66.2255 316.559 64.6768 314.919 64.6768C313.279 64.6768 311.949 66.2255 311.949 68.136C311.949 70.0464 313.279 71.5952 314.919 71.5952Z" fill="#292D34" stroke="#292D34" stroke-miterlimit="10"/>
<path d="M328.776 68.1356H314.918L324.079 42.6528" stroke="#292D34" stroke-miterlimit="10" stroke-linecap="round"/>
<path d="M8.95898 459.602H605.581" stroke="#292D34" stroke-miterlimit="10" stroke-linecap="round"/>
<path d="M576.693 334.913L573.391 360.427L577.593 456.509" stroke="#292D34" stroke-width="4" stroke-miterlimit="10" stroke-linecap="round"/>
<path d="M535.921 334.913L532.627 360.427L536.82 456.509" stroke="#292D34" stroke-width="4" stroke-miterlimit="10" stroke-linecap="round"/>
<path d="M520.001 359.379L516.096 457.558" stroke="#292D34" stroke-width="4" stroke-miterlimit="10" stroke-linecap="round"/>
<path d="M484.005 359.379L480.1 457.558" stroke="#292D34" stroke-width="4" stroke-miterlimit="10" stroke-linecap="round"/>
<path d="M535.336 341.035H575.831C576.903 341.006 577.931 340.531 578.73 339.697C579.528 338.863 580.045 337.724 580.186 336.485L585.495 282.679C585.567 282.108 585.532 281.526 585.391 280.972C585.249 280.419 585.006 279.909 584.678 279.476C584.35 279.044 583.944 278.7 583.49 278.47C583.036 278.239 582.544 278.126 582.049 278.14H541.554C540.485 278.171 539.46 278.645 538.663 279.477C537.867 280.309 537.351 281.444 537.208 282.679L531.889 336.485C531.816 337.057 531.85 337.641 531.991 338.195C532.131 338.75 532.374 339.262 532.703 339.695C533.031 340.129 533.437 340.473 533.892 340.705C534.347 340.936 534.84 341.049 535.336 341.035Z" fill="#7BC678" stroke="#292D34" stroke-miterlimit="10" stroke-linecap="round"/>
<path d="M482.296 362.167H573.185C574.08 362.167 574.938 361.753 575.571 361.016C576.204 360.279 576.559 359.279 576.559 358.237C576.559 357.194 576.204 356.194 575.571 355.457C574.938 354.72 574.08 354.306 573.185 354.306H482.296C481.401 354.306 480.543 354.72 479.91 355.457C479.277 356.194 478.922 357.194 478.922 358.237C478.922 359.279 479.277 360.279 479.91 361.016C480.543 361.753 481.401 362.167 482.296 362.167Z" fill="#7BC678" stroke="#292D34" stroke-miterlimit="10" stroke-linecap="round"/>
<path d="M520.73 238.454C520.73 238.454 517.247 241.159 514.701 248.937C512.154 256.715 507.061 299.127 507.061 301.558C507.061 303.99 512.388 305.332 514.476 302.911C516.563 300.489 521.675 280.237 521.675 280.237L523.753 239.492C523.753 239.492 523.042 237.647 520.73 238.454Z" fill="white" stroke="#292D34" stroke-miterlimit="10" stroke-linecap="round"/>
<path d="M520.731 238.454C520.731 238.454 517.248 241.159 514.701 248.937C513.936 251.285 512.902 256.746 511.93 263.298L522.134 270.782L523.736 239.492C523.736 239.492 523.043 237.647 520.731 238.454Z" fill="white" stroke="#292D34" stroke-miterlimit="10" stroke-linecap="round"/>
<path d="M538.088 232.521C538.088 232.521 527.2 235.488 522.79 237.102C518.381 238.716 519.083 244.125 517.463 252.217C515.843 260.31 513.53 269.492 514.916 274.073C516.302 278.654 520.711 286.757 520.936 287.837C521.161 288.916 514.223 319.137 514.223 319.137C514.223 319.137 470.669 343.697 469.742 348.551C468.815 353.404 462.543 439.025 462.543 439.025C463.794 441.477 472.739 450.146 471.947 447.348C471.722 446.54 475.546 416.833 479.902 403.604C484.257 390.376 488.244 373.918 490.088 366.098C491.933 358.279 492.464 356.402 492.464 356.402L545.053 357.209C545.053 357.209 562.421 359.914 564.509 342.911C566.596 325.909 562.196 319.431 560.342 315.657C558.488 311.883 552 286.243 552 286.243C552 286.243 560.576 266.002 561.728 259.251C562.88 252.5 564.275 244.408 561.269 240.907C558.263 237.406 546.439 233.077 546.439 233.077L538.088 232.521Z" fill="#292D34" stroke="#292D34" stroke-miterlimit="10" stroke-linecap="round"/>
<path d="M559.514 313.477C557.057 306.191 552 286.222 552 286.222C552 286.222 560.576 265.981 561.728 259.23C562.879 252.479 564.274 244.387 561.269 240.886C558.263 237.385 546.439 233.056 546.439 233.056L538.097 232.521C538.097 232.521 527.208 235.488 522.799 237.102C518.389 238.716 519.091 244.125 517.471 252.217C515.851 260.31 513.539 269.492 514.925 274.073C516.31 278.654 520.72 286.757 520.945 287.837C521.116 288.623 517.525 304.671 515.546 313.477H559.514Z" fill="white" stroke="#292D34" stroke-miterlimit="10" stroke-linecap="round"/>
<path d="M462.597 439.024C462.597 439.024 455.011 447.127 454.238 447.494C453.464 447.861 437.302 452.515 438.445 453.888C439.587 455.262 470.894 461.666 470.894 461.666L472.001 447.337L462.597 439.024Z" fill="white" stroke="#292D34" stroke-miterlimit="10" stroke-linecap="round"/>
<path d="M552.487 260.855L555.97 293.77L528.631 328.854L519.362 334.525L517.977 339.106C517.977 339.106 527.47 336.685 529.792 335.06C531.899 333.418 533.91 331.614 535.812 329.661L566.597 303.99C566.597 303.99 566.363 255.415 566.129 249.481C565.895 243.548 558.93 238.685 556.168 238.685" fill="white"/>
<path d="M552.487 260.855L555.97 293.77L528.631 328.854L519.362 334.525L517.977 339.106C517.977 339.106 527.47 336.685 529.792 335.06C531.899 333.418 533.91 331.614 535.812 329.661L566.597 303.99C566.597 303.99 566.363 255.415 566.129 249.481C565.895 243.548 558.93 238.685 556.168 238.685" stroke="#292D34" stroke-miterlimit="10" stroke-linecap="round"/>
<path d="M555.942 293.77L528.604 328.854L519.335 334.525L517.949 339.106C517.949 339.106 527.443 336.685 529.765 335.06C531.872 333.418 533.883 331.614 535.785 329.662L566.597 303.99C566.597 303.99 566.489 282.155 566.354 265.981L553.468 270.331L555.942 293.77Z" fill="white" stroke="#292D34" stroke-miterlimit="10" stroke-linecap="round"/>
<path d="M507.753 294.556C507.753 294.556 506.853 303.194 507.06 305.343C507.267 307.491 517.715 330.448 517.949 331.79C518.183 333.131 523.969 337.461 524.437 338.268C524.905 339.075 531.15 340.972 531.15 340.972C531.15 340.972 532.77 337.733 531.384 334.767C529.998 331.8 521.422 328.823 521.422 328.823L516.554 299.41V295.091" fill="white"/>
<path d="M507.753 294.556C507.753 294.556 506.853 303.194 507.06 305.343C507.267 307.491 517.715 330.448 517.949 331.79C518.183 333.131 523.969 337.461 524.437 338.268C524.905 339.075 531.15 340.972 531.15 340.972C531.15 340.972 532.77 337.733 531.384 334.767C529.998 331.8 521.422 328.823 521.422 328.823L516.554 299.41V295.091" stroke="#292D34" stroke-miterlimit="10" stroke-linecap="round"/>
<path d="M555.942 327.775C555.942 327.775 550.147 325.343 539.951 327.24C529.756 329.137 506.134 345.584 506.593 348.289C507.051 350.993 524.896 441.111 524.896 441.111L535.317 448.134C535.317 448.134 533.517 413.049 533.697 394.673C533.877 376.298 533.697 355.543 533.697 355.543C533.697 355.543 550.147 360.668 557.562 356.35C564.977 352.031 565.436 343.666 564.509 337.188C563.582 330.71 561.494 329.368 561.494 329.368" fill="#292D34"/>
<path d="M555.942 327.775C555.942 327.775 550.147 325.343 539.951 327.24C529.756 329.137 506.134 345.584 506.593 348.289C507.051 350.993 524.896 441.111 524.896 441.111L535.317 448.134C535.317 448.134 533.517 413.049 533.697 394.673C533.877 376.298 533.697 355.543 533.697 355.543C533.697 355.543 550.147 360.668 557.562 356.35C564.977 352.031 565.436 343.666 564.509 337.188C563.582 330.71 561.494 329.368 561.494 329.368" stroke="#292D34" stroke-miterlimit="10" stroke-linecap="round"/>
<path d="M524.895 441.111C524.895 441.111 518.875 450.828 518.173 451.373C517.471 451.918 502.425 460.273 503.775 461.352C505.125 462.432 536.909 461.352 536.909 461.352L535.514 447.054L524.895 441.111Z" fill="white" stroke="#292D34" stroke-miterlimit="10" stroke-linecap="round"/>
<path d="M530.259 194.554C530.259 194.554 525.013 188.191 528.585 182.814C532.158 177.436 542.848 173.285 555.015 179.396C567.181 185.507 567.19 199.68 566.767 208.233C566.344 216.787 562.574 229.743 562.574 229.743C555.782 229.997 548.984 229.752 542.219 229.01C535.827 228.22 529.736 225.435 524.59 220.949C524.59 220.949 529.215 198.212 530.259 194.554Z" fill="#292D34" stroke="#292D34" stroke-miterlimit="10" stroke-linecap="round"/>
<path d="M535.929 225.099C535.929 225.099 535.506 230.97 534.876 234.628C534.246 238.286 533.823 250.76 534.669 251.746C535.515 252.731 539.916 250.027 543.272 244.167C545.18 241.012 546.534 237.45 547.259 233.684L549.355 224.638C549.355 224.638 540.123 227.542 535.929 225.099Z" fill="white" stroke="#292D34" stroke-miterlimit="10" stroke-linecap="round"/>
<path d="M549.13 225.571L547.681 225.079C544.819 225.791 539.015 226.903 535.928 225.079C535.928 225.079 535.676 228.59 535.271 231.871C536.897 232.037 538.535 231.801 540.077 231.179C543.299 230.095 546.328 228.349 549.022 226.022L549.13 225.571Z" fill="#292D34" stroke="#292D34" stroke-miterlimit="10" stroke-linecap="round"/>
<path d="M531.942 196.021C531.942 196.021 529.107 210.697 530.358 216.315C531.609 221.934 533.489 229.565 539.789 229.565C546.088 229.565 552.036 223.569 553.287 219.418C554.538 215.267 556.085 202.374 556.085 202.374C556.085 202.374 539.888 204.816 531.942 196.021Z" fill="white" stroke="#292D34" stroke-miterlimit="10" stroke-linecap="round"/>
<path d="M543.309 208.506C543.309 208.506 544.478 206.472 548.708 208.097" stroke="#292D34" stroke-miterlimit="10" stroke-linecap="round"/>
<path d="M536.217 206.064C536.217 206.064 535.119 202.311 532.482 202.311" stroke="#292D34" stroke-miterlimit="10" stroke-linecap="round"/>
<path d="M534.596 204.083C534.596 204.932 534.299 205.036 533.957 204.994C533.615 204.953 533.363 204.774 533.363 203.946C533.363 203.118 533.633 202.447 533.975 202.489C534.317 202.531 534.596 203.233 534.596 204.083Z" fill="#292D34"/>
<path d="M545.369 208.6C545.234 209.47 545.009 209.491 544.658 209.491C544.307 209.491 543.965 209.491 544.1 208.6C544.235 207.709 544.64 207.007 545 207.007C545.36 207.007 545.513 207.751 545.369 208.6Z" fill="#292D34"/>
<path d="M537.81 205.456C537.853 206.611 537.668 207.762 537.27 208.82C536.631 210.183 534.651 212.07 535.101 212.804C535.381 213.45 535.827 213.979 536.377 214.317C536.927 214.655 537.553 214.786 538.17 214.691" stroke="#292D34" stroke-miterlimit="10" stroke-linecap="round"/>
<path d="M534.561 216.986C534.561 216.986 536.99 219.083 541.409 218.139" stroke="#292D34" stroke-miterlimit="10" stroke-linecap="round"/>
<path d="M532.689 199.774C533.437 199.401 534.27 199.334 535.055 199.583C535.839 199.832 536.528 200.384 537.009 201.147" stroke="#292D34" stroke-miterlimit="10" stroke-linecap="round"/>
<path d="M542.76 203.453C542.76 203.453 546.278 201.147 549.887 205.026" stroke="#292D34" stroke-miterlimit="10" stroke-linecap="round"/>
<path d="M356.816 458.04L360.137 357.304" stroke="#292D34" stroke-width="4" stroke-miterlimit="10" stroke-linecap="round"/>
<path d="M362.082 458.04L366.518 331.14" stroke="#292D34" stroke-width="4" stroke-miterlimit="10" stroke-linecap="round"/>
<path d="M423.616 458.04L418.9 332.439" stroke="#292D34" stroke-width="4" stroke-miterlimit="10" stroke-linecap="round"/>
<path d="M428.33 458.04L425 357.304" stroke="#292D34" stroke-width="4" stroke-miterlimit="10" stroke-linecap="round"/>
<path d="M417.946 279.88H366.653C364.417 279.88 362.604 281.992 362.604 284.597V337.534C362.604 340.139 364.417 342.251 366.653 342.251H417.946C420.183 342.251 421.996 340.139 421.996 337.534V284.597C421.996 281.992 420.183 279.88 417.946 279.88Z" fill="#7BC678" stroke="#292D34" stroke-miterlimit="10" stroke-linecap="round"/>
<path d="M428.627 362.167H358.814C357.919 362.167 357.061 361.753 356.428 361.016C355.795 360.279 355.439 359.279 355.439 358.237C355.439 357.194 355.795 356.194 356.428 355.457C357.061 354.72 357.919 354.306 358.814 354.306H428.627C429.522 354.306 430.38 354.72 431.013 355.457C431.646 356.194 432.001 357.194 432.001 358.237C432.001 359.279 431.646 360.279 431.013 361.016C430.38 361.753 429.522 362.167 428.627 362.167Z" fill="#7BC678" stroke="#292D34" stroke-miterlimit="10" stroke-linecap="round"/>
<path d="M367.651 316.569C367.651 316.569 363.151 326.244 361.477 329.567C359.804 332.89 358.148 345.29 360.29 348.928C362.431 352.565 364.087 353.907 365.986 354.735C367.885 355.563 417.513 354.735 417.513 354.735C417.513 354.735 422.975 345.888 423.452 341.737C423.929 337.586 422.498 327.628 421.077 324.315C419.655 321.003 415.614 315.458 415.614 315.458L367.651 316.569Z" fill="white" stroke="#292D34" stroke-miterlimit="10" stroke-linecap="round"/>
<path d="M436.51 271.495L455.983 238.297C455.983 238.297 457.639 229.733 457.882 227.238C458.125 224.743 459.304 223.37 460.969 221.997C462.695 220.638 464.285 219.059 465.711 217.29C466.665 215.906 467.376 217.573 466.899 219.502C466.422 221.431 464.766 222.269 464.055 222.825C463.344 223.38 462.867 225.592 462.867 225.592C462.867 225.592 471.173 221.997 472.838 220.886C474.503 219.774 478.057 213.695 478.3 216.693C478.543 219.691 475.214 229.146 474.503 229.701C473.792 230.257 461.203 240.76 461.203 240.76C461.203 240.76 447.434 283.633 446.004 287.229C444.573 290.824 442.683 293.592 441.972 293.592C441.261 293.592 427.25 283.109 427.25 283.109L436.249 270.383L436.51 271.495Z" fill="white" stroke="#292D34" stroke-miterlimit="10" stroke-linecap="round"/>
<path d="M343.714 271.495L324.241 238.297C324.241 238.297 322.585 229.733 322.342 227.238C322.099 224.743 320.92 223.37 319.256 221.997C317.527 220.638 315.933 219.059 314.504 217.29C313.559 215.906 312.848 217.573 313.325 219.502C313.802 221.431 315.458 222.269 316.169 222.825C316.88 223.38 317.357 225.592 317.357 225.592C317.357 225.592 309.051 221.997 307.386 220.886C305.721 219.774 302.158 213.695 301.924 216.693C301.69 219.691 305.01 229.146 305.721 229.701C306.432 230.257 319.022 240.76 319.022 240.76C319.022 240.76 332.79 283.633 334.212 287.229C335.633 290.824 337.541 293.592 338.252 293.592C338.963 293.592 352.974 283.109 352.974 283.109L343.975 270.383L343.714 271.495Z" fill="white" stroke="#292D34" stroke-miterlimit="10" stroke-linecap="round"/>
<path d="M383.31 234.376L362.414 241.012L343.715 270.614L352.264 288.864L365.555 275.593L368.642 309.881L366.509 319.315C366.509 319.315 365.798 320.144 379.107 323.183C392.416 326.223 396.205 325.123 402.855 324.012C409.505 322.9 418.054 319.315 418.054 319.315L415.678 307.418L419.71 277.543L430.401 291.097L437.762 269.797L422.329 241.033L399.292 234.397L383.31 234.376Z" fill="#292D34" stroke="#292D34" stroke-miterlimit="10" stroke-linecap="round"/>
<path d="M378.071 200.266C378.071 200.266 375.372 195.57 373.968 200.35C372.564 205.13 378.53 211 378.53 211L378.935 200.989" fill="white"/>
<path d="M378.071 200.266C378.071 200.266 375.372 195.57 373.968 200.35C372.564 205.13 378.53 211 378.53 211L378.935 200.989" stroke="#292D34" stroke-miterlimit="10" stroke-linecap="round"/>
<path d="M385.218 230.508L383.085 232.71L380.232 238.234L380.952 257.878L394.01 247.647L405.402 257.868C405.402 257.868 403.746 235.467 403.746 234.083C403.746 232.699 401.128 230.487 399.472 229.376C397.816 228.265 385.218 230.508 385.218 230.508Z" fill="white" stroke="#292D34" stroke-miterlimit="10" stroke-linecap="round"/>
<path d="M384.506 227.469C384.506 227.469 384.749 234.66 384.983 236.043C385.217 237.427 393.982 251.767 393.982 251.767L400.155 234.901L400.632 218.58L384.506 227.469Z" fill="white" stroke="#292D34" stroke-miterlimit="10" stroke-linecap="round"/>
<path d="M384.776 233.558C385.994 233.725 387.228 233.64 388.42 233.307C394.585 231.682 397.959 224.973 397.959 224.973L390.652 224.093L384.506 227.468C384.506 227.468 384.623 230.969 384.776 233.558Z" fill="#292D34" stroke="#292D34" stroke-miterlimit="10" stroke-linecap="round"/>
<path d="M377.271 192.006C377.271 192.006 378.117 217.636 378.72 220.309C379.323 222.982 384.12 231.672 389.519 230.991C394.918 230.309 400.407 225.372 400.938 221.284C401.469 217.196 402.891 205.13 403.791 200.256C404.691 195.382 408.29 190.162 400.524 185.371C392.758 180.581 377.37 184.176 377.271 192.006Z" fill="white" stroke="#292D34" stroke-miterlimit="10" stroke-linecap="round"/>
<path d="M382.68 205.204C382.626 206.252 382.167 207.143 381.636 207.111C381.105 207.08 380.736 206.168 380.781 205.088C380.826 204.009 381.303 203.149 381.834 203.181C382.365 203.212 382.734 204.124 382.68 205.204Z" fill="#292D34"/>
<path d="M391.508 207.552C391.454 208.6 390.986 209.491 390.464 209.449C389.942 209.407 389.564 208.506 389.609 207.426C389.654 206.347 390.131 205.487 390.653 205.518C391.175 205.55 391.562 206.42 391.508 207.552Z" fill="#292D34"/>
<path d="M384.65 203.16C384.454 205.55 384.13 207.924 383.678 210.267C383.111 212.678 381.122 213.16 382.346 214.785C383.57 216.409 385.757 216.252 387.979 215.833" stroke="#292D34" stroke-miterlimit="10" stroke-linecap="round"/>
<path d="M382.139 218.097C382.139 218.097 385.126 220.896 391.353 219.24" stroke="#292D34" stroke-miterlimit="10" stroke-linecap="round"/>
<path d="M379.943 200.613C379.943 200.613 382.823 198.904 383.732 201.032" stroke="#292D34" stroke-miterlimit="10" stroke-linecap="round"/>
<path d="M388.385 202.174C388.385 202.174 391.93 200.864 394.684 205.319" stroke="#292D34" stroke-miterlimit="10" stroke-linecap="round"/>
<path d="M399.39 195.518C399.39 195.518 387.538 197.813 381.95 196.503C376.362 195.193 371.358 189.511 373.941 184.668C376.524 179.826 391.399 174.721 397.257 175.8C403.115 176.88 408.838 179.06 409.081 186.104C409.324 193.149 406.769 206.681 406.769 206.681L404.906 208.013C404.906 208.013 402.368 203.631 401.198 203.411C400.029 203.191 396.537 200.591 399.39 195.518Z" fill="#292D34" stroke="#292D34" stroke-miterlimit="10" stroke-linecap="round"/>
<path d="M401.856 207.457C401.856 207.457 407.255 201.451 408.857 203.705C410.459 205.958 408.641 212.342 405.348 215.382C402.054 218.422 400.74 215.655 400.74 215.655" fill="white"/>
<path d="M401.856 207.457C401.856 207.457 407.255 201.451 408.857 203.705C410.459 205.958 408.641 212.342 405.348 215.382C402.054 218.422 400.74 215.655 400.74 215.655" stroke="#292D34" stroke-miterlimit="10" stroke-linecap="round"/>
<path d="M391.525 441.551C391.525 441.551 383.966 338.352 380.609 331.014C377.253 323.676 368.326 320.28 360.065 328.309C351.804 336.339 357.069 350.941 358.85 361.581C360.632 372.22 373.995 435.618 373.995 435.618L391.525 441.551Z" fill="white" stroke="#292D34" stroke-miterlimit="10" stroke-linecap="round"/>
<path d="M373.996 435.618L371.233 444.454C371.233 444.454 359.913 454.937 360.363 456.583C360.439 456.834 360.493 457.094 360.525 457.358C360.589 457.954 360.836 458.504 361.219 458.906C361.602 459.308 362.097 459.536 362.612 459.549H394.351C394.608 456.411 394.608 453.252 394.351 450.115C393.892 446.341 391.652 441.121 391.652 441.121L373.996 435.618Z" fill="#292D34" stroke="#292D34" stroke-miterlimit="10" stroke-linecap="round"/>
<path d="M394.539 456.048H360.47C360.378 456.204 360.339 456.395 360.362 456.582C360.438 456.834 360.492 457.094 360.524 457.358C360.588 457.954 360.835 458.503 361.218 458.906C361.601 459.308 362.096 459.536 362.611 459.549H394.35C394.35 459.549 394.485 458.081 394.539 456.048Z" fill="white" stroke="#292D34" stroke-miterlimit="10" stroke-linecap="round"/>
<path d="M399.156 442.065C399.156 442.065 401.973 338.666 405.05 331.171C408.128 323.676 416.929 319.829 425.478 327.429C434.027 335.029 429.311 349.893 427.925 360.606C426.54 371.319 416.605 436.069 416.605 436.069L399.156 442.065Z" fill="white" stroke="#292D34" stroke-miterlimit="10" stroke-linecap="round"/>
<path d="M416.606 436.068L419.305 444.454C419.305 444.454 430.635 454.937 430.176 456.582C430.104 456.835 430.05 457.095 430.014 457.358C429.949 457.956 429.701 458.507 429.316 458.909C428.931 459.311 428.434 459.539 427.917 459.549H396.169C395.912 456.411 395.912 453.252 396.169 450.115C396.628 446.341 398.869 441.121 398.869 441.121L416.606 436.068Z" fill="#292D34" stroke="#292D34" stroke-miterlimit="10" stroke-linecap="round"/>
<path d="M395.988 456.048H430.103C430.194 456.204 430.233 456.395 430.211 456.582C430.139 456.835 430.085 457.095 430.049 457.358C429.984 457.956 429.736 458.507 429.351 458.909C428.966 459.311 428.469 459.539 427.952 459.549H396.168C396.168 459.549 396.042 458.081 395.988 456.048Z" fill="white" stroke="#292D34" stroke-miterlimit="10" stroke-linecap="round"/>
<path d="M352.596 139.102H309.636C307.881 139.102 306.199 139.913 304.959 141.358C303.718 142.803 303.021 144.763 303.021 146.806V173.578C303.021 175.622 303.718 177.581 304.959 179.026C306.199 180.471 307.881 181.283 309.636 181.283H337.613L356.313 196.671L350.913 181.283H352.56C354.314 181.283 355.997 180.471 357.237 179.026C358.477 177.581 359.174 175.622 359.174 173.578V146.806C359.174 144.77 358.482 142.817 357.25 141.373C356.017 139.929 354.344 139.113 352.596 139.102Z" fill="#7BC678" stroke="#292D34" stroke-miterlimit="10"/>
<path d="M320.777 159.857C320.787 160.392 320.66 160.919 320.412 161.37C320.163 161.821 319.805 162.174 319.382 162.385C318.959 162.597 318.492 162.656 318.041 162.555C317.589 162.454 317.174 162.199 316.848 161.821C316.522 161.443 316.301 160.96 316.213 160.434C316.124 159.908 316.173 159.364 316.353 158.871C316.533 158.378 316.835 157.959 317.221 157.668C317.606 157.376 318.058 157.226 318.518 157.236C319.112 157.25 319.678 157.53 320.099 158.018C320.52 158.506 320.763 159.165 320.777 159.857Z" fill="#292D34"/>
<path d="M333.411 159.857C333.42 160.388 333.293 160.91 333.047 161.356C332.8 161.802 332.445 162.153 332.026 162.364C331.608 162.574 331.145 162.634 330.697 162.537C330.249 162.44 329.836 162.19 329.511 161.818C329.185 161.446 328.962 160.97 328.87 160.45C328.778 159.931 328.82 159.39 328.993 158.899C329.165 158.407 329.459 157.987 329.837 157.691C330.215 157.395 330.661 157.236 331.117 157.236C331.717 157.239 332.292 157.514 332.721 158.004C333.15 158.493 333.397 159.158 333.411 159.857Z" fill="#292D34"/>
<path d="M346.055 159.857C346.056 160.388 345.923 160.909 345.67 161.351C345.418 161.794 345.058 162.14 344.637 162.344C344.215 162.549 343.751 162.603 343.304 162.5C342.856 162.396 342.445 162.141 342.122 161.765C341.799 161.389 341.58 160.91 341.491 160.388C341.402 159.867 341.449 159.326 341.624 158.835C341.8 158.345 342.096 157.926 342.477 157.632C342.857 157.337 343.304 157.182 343.76 157.184C344.368 157.186 344.95 157.469 345.38 157.97C345.81 158.47 346.052 159.149 346.055 159.857Z" fill="#292D34"/>
<path d="M223.508 458.04L226.828 357.304" stroke="#292D34" stroke-width="4" stroke-miterlimit="10" stroke-linecap="round"/>
<path d="M228.771 458.04L233.208 331.14" stroke="#292D34" stroke-width="4" stroke-miterlimit="10" stroke-linecap="round"/>
<path d="M290.307 458.04L285.592 332.439" stroke="#292D34" stroke-width="4" stroke-miterlimit="10" stroke-linecap="round"/>
<path d="M295.021 458.04L291.691 357.304" stroke="#292D34" stroke-width="4" stroke-miterlimit="10" stroke-linecap="round"/>
<path d="M284.638 279.88H233.344C231.108 279.88 229.295 281.992 229.295 284.597V337.534C229.295 340.139 231.108 342.251 233.344 342.251H284.638C286.874 342.251 288.687 340.139 288.687 337.534V284.597C288.687 281.992 286.874 279.88 284.638 279.88Z" fill="#7BC678" stroke="#292D34" stroke-miterlimit="10" stroke-linecap="round"/>
<path d="M295.318 362.167H225.505C224.61 362.167 223.752 361.753 223.119 361.016C222.486 360.279 222.131 359.279 222.131 358.237C222.131 357.194 222.486 356.194 223.119 355.457C223.752 354.72 224.61 354.306 225.505 354.306H295.318C296.213 354.306 297.072 354.72 297.704 355.457C298.337 356.194 298.693 357.194 298.693 358.237C298.693 359.279 298.337 360.279 297.704 361.016C297.072 361.753 296.213 362.167 295.318 362.167Z" fill="#7BC678" stroke="#292D34" stroke-miterlimit="10" stroke-linecap="round"/>
<path d="M245.879 193.925C244.799 192.075 243.364 190.545 241.688 189.453C240.012 188.361 238.141 187.739 236.223 187.635C229.366 187.027 222.869 191.933 219.701 199.711C216.534 207.489 223.22 212.195 223.22 217.112C223.22 222.028 214.428 223.254 211.45 229.806C208.471 236.357 207.931 248.423 219.351 254.565C230.77 260.708 239.913 257.018 245.357 251.704C250.801 246.389 248.345 237.783 246.41 230.215C244.475 222.646 249.047 206.881 250.45 202.782C251.854 198.684 245.879 193.925 245.879 193.925Z" fill="#292D34" stroke="#292D34" stroke-miterlimit="10" stroke-linecap="round"/>
<path d="M232.336 289.314L226.73 313.948C226.73 313.948 223.58 318.141 219.756 316.831C215.931 315.521 216.381 310.017 216.606 308.969L222.68 280.667L232.336 289.314Z" fill="white" stroke="#292D34" stroke-miterlimit="10" stroke-linecap="round"/>
<path d="M250.217 236.641C250.217 236.641 249.992 245.551 248.642 248.171C247.292 250.792 240.768 252.102 236.944 253.15C233.119 254.199 229.07 256.557 226.82 260.226C224.57 263.895 217.371 286.17 217.371 286.17L232.669 295.604L234.694 286.956L240.768 299.011C240.768 299.011 231.769 316.045 228.62 326.527C225.47 337.01 225.695 345.134 230.644 351.423C235.594 357.713 241.218 358.499 246.617 358.761C252.017 359.023 277.663 359.809 283.512 357.188C289.362 354.568 292.961 349.065 292.286 335.437C291.611 321.81 279.463 301.37 278.788 299.535C278.113 297.701 277.438 296.128 277.438 296.128L279.238 284.86L282.163 292.984L296.336 281.715C296.336 281.715 289.362 262.323 285.537 257.605C281.713 252.888 276.088 252.102 271.814 251.316C267.54 250.53 265.74 249.22 264.165 246.337C262.59 243.454 262.815 236.641 262.815 236.641H250.217Z" fill="white" stroke="#292D34" stroke-miterlimit="10" stroke-linecap="round"/>
<path d="M262.806 237.626L256.507 236.641H250.208C250.208 236.641 250.208 238.108 250.037 240.005C251.738 241.641 256.183 245.676 258.883 246.043C260.528 246.198 262.183 245.988 263.76 245.425C263.066 242.907 262.743 240.27 262.806 237.626Z" fill="#292D34" stroke="#292D34" stroke-miterlimit="10" stroke-linecap="round"/>
<path d="M283.512 289.314L289.136 313.948C289.136 313.948 292.286 318.141 296.11 316.831C299.935 315.521 299.485 310.017 299.26 308.969L293.185 280.667L283.512 289.314Z" fill="white" stroke="#292D34" stroke-miterlimit="10" stroke-linecap="round"/>
<path d="M292.286 335.437C291.611 321.81 279.463 301.369 278.788 299.535C278.113 297.701 277.438 296.128 277.438 296.128L279.238 284.86L282.163 292.983L296.336 281.715C296.336 281.715 289.362 262.322 285.537 257.605C282.793 254.219 279.121 252.867 275.638 252.081L271.319 271.757H243.423L238.077 252.888L236.899 253.192C233.074 254.24 229.025 256.599 226.775 260.268C224.525 263.937 217.371 286.17 217.371 286.17L232.669 295.604L234.694 286.956L240.768 299.011C240.768 299.011 231.769 316.045 228.62 326.527C225.47 337.01 225.695 345.133 230.644 351.423C235.594 357.712 241.218 358.499 246.617 358.761C252.017 359.023 277.663 359.809 283.512 357.188C289.362 354.568 292.961 349.064 292.286 335.437Z" fill="#292D34" stroke="#292D34" stroke-miterlimit="10" stroke-linecap="round"/>
<path d="M250.442 428.993C250.442 428.993 240.093 358.499 239.643 350.899C239.193 343.299 243.917 338.844 249.317 337.534C254.716 336.224 259.215 342.775 259.665 347.23C260.043 351.014 259.944 411.424 259.899 427.945C259.898 431.024 259.639 434.096 259.125 437.117C258.694 439.633 258.226 442.442 258.109 443.406C257.884 445.241 257.884 452.84 255.184 457.033C252.484 461.226 248.435 464.109 247.085 459.13C245.735 454.151 246.86 446.813 247.985 442.882C249.11 438.951 250.235 435.806 250.235 435.806L250.442 428.993Z" fill="white" stroke="#292D34" stroke-miterlimit="10" stroke-linecap="round"/>
<path d="M257.865 439.737C256.29 444.454 255.165 448.123 251.79 448.385C248.416 448.647 247.966 442.882 247.966 442.882C246.841 446.813 245.716 454.15 247.066 459.13C248.416 464.109 252.465 461.226 255.165 457.033C257.865 452.84 257.865 445.24 258.09 443.406C258.207 442.473 258.675 439.664 259.107 437.117C259.206 436.54 259.286 435.953 259.367 435.376C258.846 436.865 258.315 438.385 257.865 439.737Z" fill="#292D34" stroke="#292D34" stroke-miterlimit="10" stroke-linecap="round"/>
<path d="M270.715 428.993C270.715 428.993 281.064 358.499 281.514 350.899C281.964 343.299 277.239 338.844 271.84 337.534C266.441 336.224 261.941 342.775 261.492 347.23C261.105 351.014 261.213 411.424 261.249 427.945C261.258 431.025 261.527 434.097 262.049 437.117C262.481 439.633 262.949 442.442 263.066 443.406C263.291 445.241 263.291 452.84 265.991 457.033C268.691 461.226 272.74 464.109 274.09 459.13C275.44 454.151 274.315 446.813 273.19 442.882C272.065 438.951 270.94 435.806 270.94 435.806L270.715 428.993Z" fill="white" stroke="#292D34" stroke-miterlimit="10" stroke-linecap="round"/>
<path d="M263.291 439.737C264.866 444.454 265.991 448.123 269.365 448.385C272.74 448.647 273.19 442.882 273.19 442.882C274.315 446.813 275.44 454.15 274.09 459.13C272.74 464.109 268.69 461.226 265.991 457.033C263.291 452.84 263.291 445.24 263.066 443.406C262.949 442.473 262.481 439.664 262.049 437.117C261.95 436.54 261.86 435.953 261.779 435.376C262.31 436.865 262.832 438.385 263.291 439.737Z" fill="#292D34" stroke="#292D34" stroke-miterlimit="10" stroke-linecap="round"/>
<path d="M292.96 307.397L266.639 329.148C266.639 329.148 262.364 331.244 261.914 332.031C261.464 332.817 258.765 340.155 259.44 341.465C260.115 342.775 261.446 345.165 261.446 345.165C262.176 344.225 262.782 343.166 263.246 342.02C263.471 340.972 267.521 338.352 268.421 335.993C269.32 333.634 270.895 330.49 270.895 330.49C270.895 330.49 290.918 321.842 293.167 320.007C295.417 318.173 299.466 317.125 299.466 311.621" fill="white"/>
<path d="M292.96 307.397L266.639 329.148C266.639 329.148 262.364 331.244 261.914 332.031C261.464 332.817 258.765 340.155 259.44 341.465C260.115 342.775 261.446 345.165 261.446 345.165C262.176 344.225 262.782 343.166 263.246 342.02C263.471 340.972 267.521 338.352 268.421 335.993C269.32 333.634 270.895 330.49 270.895 330.49C270.895 330.49 290.918 321.842 293.167 320.007C295.417 318.173 299.466 317.125 299.466 311.621" stroke="#292D34" stroke-miterlimit="10" stroke-linecap="round"/>
<path d="M222.609 307.135L250.775 325.479C250.775 325.479 255.221 327.03 255.743 327.754C256.265 328.477 259.621 335.437 259.063 336.821L257.497 340.794C256.648 339.935 255.911 338.936 255.311 337.827C254.996 336.779 250.721 334.683 249.614 332.481C248.508 330.28 246.645 327.313 246.645 327.313C246.645 327.313 225.948 321.213 223.536 319.672C221.124 318.131 217.012 317.575 216.508 312.114" fill="white"/>
<path d="M222.609 307.135L250.775 325.479C250.775 325.479 255.221 327.03 255.743 327.754C256.265 328.477 259.621 335.437 259.063 336.821L257.497 340.794C256.648 339.935 255.911 338.936 255.311 337.827C254.996 336.779 250.721 334.683 249.614 332.481C248.508 330.28 246.645 327.313 246.645 327.313C246.645 327.313 225.948 321.213 223.536 319.672C221.124 318.131 217.012 317.575 216.508 312.114" stroke="#292D34" stroke-miterlimit="10" stroke-linecap="round"/>
<path d="M252.484 192.195C251.845 192.405 251.207 192.604 250.559 192.771C248.198 193.334 246.058 194.771 244.457 196.869C242.856 198.966 241.88 201.61 241.677 204.407C240.777 212.929 242.028 223.894 244.637 230.906C247.247 237.919 256.39 244.534 261.627 241.798C266.865 239.062 269.888 231.106 269.888 221.651C269.888 212.195 270.122 204.208 266.46 198.411C263.058 193.013 257.371 190.623 252.484 192.195Z" fill="white" stroke="#292D34" stroke-miterlimit="10" stroke-linecap="round"/>
<path d="M266.459 198.39C263.058 193.013 257.37 190.623 252.484 192.195C251.845 192.405 251.206 192.604 250.558 192.772C248.198 193.334 246.057 194.772 244.456 196.869C242.855 198.966 241.88 201.611 241.676 204.407C241.255 209.138 241.33 213.911 241.901 218.621L241.991 218.558C241.991 218.558 244.169 216.923 244.169 214.365C244.169 211.808 243.863 205.655 248.38 202.017C252.898 198.38 260.079 198.212 262.878 199.113C265.676 200.015 267.242 200.392 268.799 205.109L269.276 206.556C268.892 203.617 267.928 200.821 266.459 198.39Z" fill="#292D34" stroke="#292D34" stroke-miterlimit="10" stroke-linecap="round"/>
<path d="M244.33 219.816C244.33 219.816 240.902 214.365 239.183 217.814C237.464 221.263 239.651 225.98 241.208 227.07C242.765 228.16 244.168 224.533 244.168 224.533" fill="white"/>
<path d="M244.33 219.816C244.33 219.816 240.902 214.365 239.183 217.814C237.464 221.263 239.651 225.98 241.208 227.07C242.765 228.16 244.168 224.533 244.168 224.533" stroke="#292D34" stroke-miterlimit="10" stroke-linecap="round"/>
<path d="M253.753 219.051C254.25 219.051 254.653 218.22 254.653 217.196C254.653 216.171 254.25 215.34 253.753 215.34C253.256 215.34 252.854 216.171 252.854 217.196C252.854 218.22 253.256 219.051 253.753 219.051Z" fill="#292D34"/>
<path d="M263.031 218.034C263.528 218.034 263.931 217.203 263.931 216.179C263.931 215.154 263.528 214.323 263.031 214.323C262.534 214.323 262.131 215.154 262.131 216.179C262.131 217.203 262.534 218.034 263.031 218.034Z" fill="#292D34"/>
<path d="M259.917 213.642C259.917 213.642 260.223 217.636 260.817 218.883C261.411 220.131 264.561 220.519 263.157 222.51C262.927 222.865 262.638 223.161 262.307 223.381C261.977 223.602 261.611 223.742 261.232 223.793C260.854 223.844 260.47 223.804 260.105 223.678C259.74 223.551 259.4 223.339 259.107 223.055" stroke="#292D34" stroke-miterlimit="10" stroke-linecap="round"/>
<path d="M255.705 226.169C256.898 226.907 258.243 227.247 259.591 227.151C260.939 227.055 262.239 226.526 263.345 225.624" stroke="#292D34" stroke-miterlimit="10" stroke-linecap="round"/>
<path d="M249.316 212.909C249.316 212.909 252.124 209.103 255.706 211.462" stroke="#292D34" stroke-miterlimit="10" stroke-linecap="round"/>
<path d="M260.07 211.095C260.07 211.095 263.346 208.38 265.677 211.462" stroke="#292D34" stroke-miterlimit="10" stroke-linecap="round"/>
<path d="M68.4956 334.913L71.7892 360.427L67.5957 456.509" stroke="#292D34" stroke-width="4" stroke-miterlimit="10" stroke-linecap="round"/>
<path d="M110.304 334.913L113.607 360.427L109.404 456.509" stroke="#292D34" stroke-width="4" stroke-miterlimit="10" stroke-linecap="round"/>
<path d="M125.18 359.379L129.085 457.558" stroke="#292D34" stroke-width="4" stroke-miterlimit="10" stroke-linecap="round"/>
<path d="M161.174 359.379L165.079 457.558" stroke="#292D34" stroke-width="4" stroke-miterlimit="10" stroke-linecap="round"/>
<path d="M109.844 341.035H69.3495C68.2788 341.003 67.2528 340.528 66.456 339.694C65.6593 338.86 65.1441 337.722 65.0031 336.485L59.6848 282.679C59.6125 282.108 59.6483 281.526 59.7894 280.972C59.9306 280.419 60.1739 279.909 60.5021 279.476C60.8304 279.044 61.2358 278.7 61.6899 278.47C62.1441 278.239 62.636 278.126 63.1313 278.14H103.626C104.695 278.171 105.72 278.645 106.517 279.477C107.313 280.309 107.829 281.444 107.972 282.679L113.291 336.485C113.364 337.057 113.33 337.641 113.189 338.195C113.049 338.75 112.806 339.262 112.477 339.695C112.149 340.129 111.743 340.473 111.288 340.705C110.833 340.936 110.34 341.049 109.844 341.035Z" fill="#7BC678" stroke="#292D34" stroke-miterlimit="10" stroke-linecap="round"/>
<path d="M162.901 362.167H72.0132C71.1182 362.167 70.2599 361.753 69.6271 361.016C68.9942 360.279 68.6387 359.279 68.6387 358.237C68.6387 357.194 68.9942 356.194 69.6271 355.457C70.2599 354.72 71.1182 354.306 72.0132 354.306H162.901C163.796 354.306 164.655 354.72 165.288 355.457C165.92 356.194 166.276 357.194 166.276 358.237C166.276 359.279 165.92 360.279 165.288 361.016C164.655 361.753 163.796 362.167 162.901 362.167Z" fill="#7BC678" stroke="#292D34" stroke-miterlimit="10" stroke-linecap="round"/>
<path d="M112.662 252.102C112.662 252.102 119.411 254.985 120.761 258.654C122.111 262.322 130.444 304.252 130.444 304.252L160.815 311.852L157.44 317.093L122.12 317.617L112.662 252.102Z" fill="white" stroke="#292D34" stroke-miterlimit="10" stroke-linecap="round"/>
<path d="M118.547 292.9L127.609 290.216C125.062 277.637 121.589 260.918 120.761 258.654C119.411 254.985 112.662 252.102 112.662 252.102L118.547 292.9Z" fill="#292D34" stroke="#292D34" stroke-miterlimit="10" stroke-linecap="round"/>
<path d="M82.7503 246.861L64.3027 258.654C64.3027 258.654 69.702 306.349 71.2768 318.404C72.8516 330.459 74.4264 339.369 78.9258 341.203C83.4252 343.038 120.095 333.079 122.57 332.031C125.045 330.983 124.145 321.811 123.02 317.094C121.895 312.376 115.821 261.537 115.596 257.344C115.371 253.151 112.446 251.054 107.722 248.958C102.998 246.861 91.2992 246.075 87.6997 246.075C84.1001 246.075 82.7503 246.861 82.7503 246.861Z" fill="#292D34" stroke="#292D34" stroke-miterlimit="10" stroke-linecap="round"/>
<path d="M82.7498 246.861L77.5215 250.205L97.5889 279.881L105.427 248.182C99.9466 246.673 90.7947 246.086 87.6902 246.086C84.0906 246.075 82.7498 246.861 82.7498 246.861Z" fill="white" stroke="#292D34" stroke-miterlimit="10" stroke-linecap="round"/>
<path d="M79.5918 237.427L81.1666 248.958L96.0147 272.543L100.739 247.909V236.117L79.5918 237.427Z" fill="white" stroke="#292D34" stroke-miterlimit="10" stroke-linecap="round"/>
<path d="M72.8507 197.856C72.8507 197.856 71.7168 193.925 66.9924 193.925C62.268 193.925 57.5527 200.214 57.5527 206.504C57.5292 207.726 57.7262 208.941 58.131 210.07C58.5358 211.198 59.1394 212.215 59.9027 213.055C60.666 213.895 61.572 214.538 62.5623 214.945C63.5526 215.351 64.605 215.511 65.6516 215.414C69.2511 215.152 71.2759 213.579 72.1757 210.173C73.0756 206.766 72.8507 197.856 72.8507 197.856Z" fill="#292D34" stroke="#292D34" stroke-miterlimit="10" stroke-linecap="round"/>
<path d="M74.4078 193.264C72.1707 196.391 70.8664 200.279 70.6913 204.344C70.3854 211.189 73.7779 223.422 74.7048 228.821C75.6317 234.219 79.1502 242.679 90.0028 244.482C100.855 246.284 104.401 230.98 104.401 225.938C104.401 220.896 102.241 205.791 100.387 199.313C98.5337 192.835 95.753 188.159 89.2649 187.436C82.7767 186.713 78.0344 188.862 74.4078 193.264Z" fill="white" stroke="#292D34" stroke-miterlimit="10" stroke-linecap="round"/>
<path d="M104.347 225.938C104.163 221.716 103.733 217.513 103.06 213.359C103.15 214.606 103.312 216.504 103.645 219.355C104.32 225.12 103.195 225.906 103.195 225.906C103.195 225.906 101.17 221.976 94.6462 220.665C88.122 219.355 80.473 230.361 79.7981 230.361C79.1232 230.361 78.8982 229.313 77.9984 225.906C77.0985 222.5 74.3988 215.686 75.2987 212.541C76.1986 209.397 76.1986 208.873 74.8488 205.99C73.499 203.107 72.824 202.059 76.6485 198.401C81.148 194.082 88.9949 193.579 94.6462 193.285C95.9469 193.087 97.2675 193.389 98.4077 194.145C97.4986 192.206 96.177 190.571 94.5697 189.398C92.9624 188.225 91.1233 187.553 89.2289 187.446C82.7407 186.723 78.0344 188.872 74.4078 193.275C72.1707 196.401 70.8664 200.29 70.6913 204.355C70.3854 211.2 73.7779 223.433 74.7048 228.831C75.6317 234.229 79.1502 242.689 90.0028 244.492C100.855 246.295 104.347 230.98 104.347 225.938Z" fill="#292D34" stroke="#292D34" stroke-miterlimit="10" stroke-linecap="round"/>
<path d="M97.8142 225.634C94.3538 227.091 90.6946 227.801 87.0156 227.731" stroke="white" stroke-miterlimit="10" stroke-linecap="round"/>
<path d="M93.549 209.387L94.6738 219.083C94.6738 219.083 91.9742 223.538 88.5996 218.035" stroke="#292D34" stroke-miterlimit="10" stroke-linecap="round"/>
<path d="M88.3642 205.98C88.1752 206.221 82.065 203.883 80.4902 209.91" stroke="#292D34" stroke-width="2" stroke-miterlimit="10" stroke-linecap="round"/>
<path d="M93.7637 204.932C93.7637 204.932 97.8131 201.263 100.963 206.242" stroke="#292D34" stroke-width="2" stroke-miterlimit="10" stroke-linecap="round"/>
<path d="M85.5481 213.841C86.1097 213.841 86.565 212.903 86.565 211.745C86.565 210.587 86.1097 209.648 85.5481 209.648C84.9865 209.648 84.5312 210.587 84.5312 211.745C84.5312 212.903 84.9865 213.841 85.5481 213.841Z" fill="#292D34"/>
<path d="M97.8137 212.793C98.3753 212.793 98.8306 211.854 98.8306 210.697C98.8306 209.539 98.3753 208.6 97.8137 208.6C97.2521 208.6 96.7969 209.539 96.7969 210.697C96.7969 211.854 97.2521 212.793 97.8137 212.793Z" fill="#292D34"/>
<path d="M71.7163 215.938C71.7163 215.938 68.1168 212.793 67.8918 218.821C67.7868 220.732 68.2413 222.628 69.1812 224.198C70.1211 225.769 71.4907 226.922 73.0661 227.469C74.191 227.731 74.416 225.896 74.416 225.896L71.7163 215.938Z" fill="white" stroke="#292D34" stroke-miterlimit="10" stroke-linecap="round"/>
<path d="M66.7676 257.344C66.7676 257.344 60.0185 260.226 57.9938 262.061C55.969 263.895 53.1884 271.317 55.0782 287.47C55.7441 293.183 60.6934 332.817 60.6934 332.817L116.036 329.41L125.26 325.742L74.1917 316.045L70.1512 271.495" fill="#292D34"/>
<path d="M66.7676 257.344C66.7676 257.344 60.0185 260.226 57.9938 262.061C55.969 263.895 53.1884 271.317 55.0782 287.47C55.7441 293.183 60.6934 332.817 60.6934 332.817L116.036 329.41L125.26 325.741L74.1917 316.045L70.1512 271.495" stroke="#292D34" stroke-miterlimit="10" stroke-linecap="round"/>
<path d="M60.6936 332.817L116.036 329.41L125.26 325.741L74.1918 316.045L71.9511 295.657L56.1582 297.261C57.0671 311.716 60.6936 332.817 60.6936 332.817Z" fill="white" stroke="#292D34" stroke-miterlimit="10" stroke-linecap="round"/>
<path d="M73.75 333.341C73.75 333.341 77.3495 350.113 82.5239 355.354C87.6982 360.595 96.697 359.809 105.246 359.809C113.795 359.809 132.467 354.044 133.142 354.044C133.817 354.044 165.088 363.216 165.088 363.216L155.414 446.289L169.363 449.434C169.363 449.434 188.935 367.933 188.935 366.099C188.935 364.264 193.434 356.926 185.785 345.658C178.136 334.389 140.566 330.982 132.242 328.624C123.918 326.265 73.75 333.341 73.75 333.341Z" fill="white" stroke="#292D34" stroke-miterlimit="10" stroke-linecap="round"/>
<path d="M149.718 339.557L138.308 355.281L133.143 354.044L126.618 355.878C126.618 355.878 126.294 352.859 130.803 346.559C135.311 340.259 149.718 339.557 149.718 339.557Z" fill="#292D34"/>
<path d="M155.406 446.289L153.156 459.654C153.156 459.654 164.63 462.799 167.779 463.585C170.929 464.371 181.053 463.847 183.302 463.585C185.552 463.323 181.728 460.702 180.378 459.916C179.028 459.13 168.679 451.792 168.679 451.792L169.354 449.434L155.406 446.289Z" fill="white" stroke="#292D34" stroke-miterlimit="10" stroke-linecap="round"/>
<path d="M88.1493 337.796C88.1493 337.796 132.244 316.957 136.743 314.997C146.417 310.804 160.059 311.915 161.94 312.376C166.214 313.425 206.259 360.333 206.259 360.333L197.71 369.243L156.54 335.7C156.54 335.7 132.469 352.472 126.619 355.878C120.77 359.285 107.722 361.382 98.048 360.595C88.3743 359.809 82.3001 354.044 80.7253 350.375C79.1505 346.706 79.8254 344.348 79.8254 344.348" fill="white"/>
<path d="M88.1493 337.796C88.1493 337.796 132.244 316.957 136.743 314.997C146.417 310.804 160.059 311.915 161.94 312.376C166.214 313.425 206.259 360.333 206.259 360.333L197.71 369.243L156.54 335.7C156.54 335.7 132.469 352.472 126.619 355.878C120.77 359.285 107.722 361.382 98.048 360.595C88.3743 359.809 82.3001 354.044 80.7253 350.375C79.1505 346.706 79.8254 344.348 79.8254 344.348" stroke="#292D34" stroke-miterlimit="10" stroke-linecap="round"/>
<path d="M197.701 369.244L209.175 381.56C209.175 381.56 230.997 354.83 231.672 353.782C232.347 352.734 234.371 348.279 233.022 348.279C231.672 348.279 208.5 361.12 208.5 361.12L206.25 360.334L197.701 369.244Z" fill="white" stroke="#292D34" stroke-miterlimit="10" stroke-linecap="round"/>
<path d="M160.805 311.852C160.805 311.852 171.153 312.638 171.603 313.686C172.053 314.735 175.878 321.024 176.103 322.859C176.246 324.162 176.321 325.475 176.328 326.789C176.328 326.789 167.779 321.286 167.329 319.976C166.989 318.696 166.762 317.379 166.654 316.045L160.805 311.852Z" fill="white" stroke="#292D34" stroke-miterlimit="10" stroke-linecap="round"/>
<path d="M554.747 49.3511L532.178 75.9659H587.763L565.194 49.3511H554.747Z" fill="#292D34" stroke="#292D34" stroke-miterlimit="10"/>
<path d="M565.086 45.8081H554.746V49.3512H565.086V45.8081Z" fill="#292D34" stroke="#292D34" stroke-miterlimit="10"/>
<path d="M559.84 45.8082V0" stroke="#292D34" stroke-miterlimit="10"/>
<path d="M63.4109 49.3511L40.8418 75.9659H96.4275L73.8585 49.3511H63.4109Z" fill="#292D34" stroke="#292D34" stroke-miterlimit="10"/>
<path d="M73.7498 45.8081H63.4102V49.3512H73.7498V45.8081Z" fill="#292D34" stroke="#292D34" stroke-miterlimit="10"/>
<path d="M68.5039 45.8082V0" stroke="#292D34" stroke-miterlimit="10"/>
</svg>
