<svg width="200" height="200" viewBox="0 0 200 200" fill="none" xmlns="http://www.w3.org/2000/svg">
<path d="M180 100C180 121.217 171.571 141.566 156.569 156.569C141.566 171.571 121.217 180 100 180C78.7827 180 58.4344 171.571 43.4315 156.569C28.4285 141.566 20 121.217 20 100C20 78.7827 28.4285 58.4344 43.4315 43.4315C58.4344 28.4285 78.7827 20 100 20C107.6 20 115 21.1 122 23.1L137.7 7.4C126.1 2.6 113.4 0 100 0C86.8678 0 73.8642 2.58658 61.7317 7.61205C49.5991 12.6375 38.5752 20.0035 29.2893 29.2893C10.5357 48.043 0 73.4783 0 100C0 126.522 10.5357 151.957 29.2893 170.711C38.5752 179.997 49.5991 187.363 61.7317 192.388C73.8642 197.413 86.8678 200 100 200C126.522 200 151.957 189.464 170.711 170.711C189.464 151.957 200 126.522 200 100H180ZM59.1 80.8L45 95L90 140L190 40L175.9 25.8L90 111.7L59.1 80.8Z" fill="#7BC678"/>
</svg>
