<svg width="791" height="661" viewBox="0 0 791 661" fill="none" xmlns="http://www.w3.org/2000/svg">
<path d="M159.058 533.441C159.219 548.178 149.432 553.408 137.291 553.514C137.009 553.516 136.729 553.516 136.449 553.513C135.886 553.507 135.329 553.489 134.778 553.459C123.813 552.863 115.239 547.528 115.089 533.823C114.933 519.64 135.104 501.564 136.617 500.227L136.619 500.226C136.677 500.175 136.706 500.149 136.706 500.149C136.706 500.149 158.896 518.705 159.058 533.441Z" fill="#F3C34D"/>
<path d="M538.138 505.613C538.299 520.35 528.513 525.58 516.371 525.685C516.089 525.688 515.809 525.687 515.529 525.684C514.966 525.678 514.409 525.66 513.858 525.63C502.893 525.035 494.319 519.7 494.169 505.995C494.013 491.811 514.184 473.736 515.697 472.399L515.7 472.398C515.757 472.347 515.786 472.321 515.786 472.321C515.786 472.321 537.976 490.877 538.138 505.613Z" fill="#F3C34D"/>
<path d="M349.853 429H349.853C386.871 429 422.372 442.088 448.548 465.385C474.724 488.682 489.429 520.28 489.429 553.227V553.227H270.76V499.395C270.76 480.725 279.093 462.82 293.926 449.618C308.758 436.416 328.876 429 349.853 429Z" fill="#3F3D56"/>
<path d="M653.105 265.068C653.105 265.068 659.472 338.741 650.558 341.008C641.643 343.275 609.807 360.276 558.868 355.742C558.868 355.742 509.203 379.544 516.844 356.876C524.485 334.207 558.868 339.874 558.868 339.874C558.868 339.874 619.995 328.54 622.541 320.606C625.088 312.672 614.901 279.803 618.721 278.669C622.541 277.536 653.105 265.068 653.105 265.068Z" fill="#A0616A"/>
<path d="M576.826 393.517C576.826 393.517 581.791 499.952 589.431 515.82C595.796 529.038 599.51 572.139 600.573 586.169C600.786 588.982 600.893 590.627 600.893 590.627C600.893 590.627 621.268 590.627 622.541 586.093C623.815 581.559 627.635 531.688 622.541 515.82C617.448 499.952 629.038 390.117 629.038 390.117L576.826 393.517Z" fill="#2F2E41"/>
<path d="M605.986 584.959C605.986 584.959 593.252 588.36 590.705 592.893C588.158 597.427 546.133 605.361 558.868 611.028C571.603 616.696 609.807 606.495 609.807 606.495C609.807 606.495 630.182 605.361 628.909 598.561C627.635 591.76 622.998 583.381 622.998 583.381L605.986 584.959Z" fill="#D0CDE1"/>
<path d="M641.643 597.163C641.643 597.163 628.908 600.563 626.361 605.097C623.814 609.63 581.79 617.564 594.524 623.231C607.259 628.899 645.463 618.698 645.463 618.698C645.463 618.698 665.838 617.564 664.565 610.764C663.291 603.963 658.654 595.584 658.654 595.584L641.643 597.163Z" fill="#D0CDE1"/>
<path d="M588.156 390.879L605.985 418.081L635.739 512.658C635.739 512.658 632.727 599.429 636.548 599.429C640.368 599.429 660.744 605.096 662.017 599.429C663.093 594.642 677.356 548.785 670.246 518.262C665.622 498.972 662.647 479.396 661.348 459.705L658.197 406.747C658.197 406.747 670.931 386.345 656.923 382.945C642.915 379.544 588.156 390.879 588.156 390.879Z" fill="#2F2E41"/>
<path d="M604.712 216.331C621.591 216.331 635.275 204.152 635.275 189.129C635.275 174.105 621.591 161.926 604.712 161.926C587.832 161.926 574.148 174.105 574.148 189.129C574.148 204.152 587.832 216.331 604.712 216.331Z" fill="#A0616A"/>
<path d="M600.893 207.263C600.893 207.263 605.986 243.533 604.713 245.8C603.44 248.067 635.276 220.865 635.276 220.865C635.276 220.865 623.815 204.997 626.362 197.063L600.893 207.263Z" fill="#A0616A"/>
<path d="M672.205 243.533C672.205 243.533 636.548 220.865 635.275 216.331L608.532 236.733L603.988 231.918C603.988 231.918 583.063 250.334 583.063 258.268C583.063 266.202 581.789 290.004 585.61 296.804C589.43 303.605 574.148 389.745 574.148 389.745C574.148 389.745 586.883 399.946 588.157 401.08C589.43 402.213 640.368 394.279 640.368 394.279C640.368 394.279 665.838 392.012 665.838 388.612C665.838 385.212 658.197 334.207 660.744 320.606C663.291 307.005 672.205 243.533 672.205 243.533Z" fill="#7BC678"/>
<path d="M679.847 275.269C679.847 275.269 686.214 348.942 677.3 351.209C668.386 353.476 636.549 370.477 585.611 365.943C585.611 365.943 535.945 389.745 543.586 367.077C551.227 344.408 585.611 350.075 585.611 350.075C585.611 350.075 646.737 338.741 649.284 330.807C651.831 322.873 641.643 290.004 645.463 288.87C649.284 287.737 679.847 275.269 679.847 275.269Z" fill="#A0616A"/>
<path d="M591.656 175.54C595.834 174.216 600.443 173.537 604.703 174.634C610.731 176.187 614.907 180.89 619.41 184.781C623.914 188.671 630.229 192.119 636.159 190.289C635.802 188.002 636.476 185.681 638.035 183.835C638.809 183.146 639.381 182.299 639.701 181.367C639.954 179.91 638.578 178.654 638.165 177.226C637.441 174.724 639.424 171.299 636.986 169.896C636.343 169.526 635.528 169.442 634.9 169.051C632.435 167.518 635.172 163.704 633.543 161.455C633.055 160.874 632.42 160.403 631.691 160.08C619.874 153.943 605.423 153.926 591.743 154.081C589.838 154.102 587.187 154.944 587.724 156.571C585.139 154.919 581.753 157.238 579.669 159.379L575.404 163.761C573.4 165.666 571.65 167.772 570.191 170.036C568.888 172.254 568.6 175.664 571.193 176.631C569.265 175.912 566.927 186.076 575.814 184.403C580.978 183.432 586.04 177.319 591.656 175.54Z" fill="#2F2E41"/>
<path d="M651.83 245.8L672.206 243.533C672.206 243.533 692.581 278.669 681.12 284.337C669.659 290.004 640.369 294.537 640.369 292.271C640.369 290.004 651.83 245.8 651.83 245.8Z" fill="#7BC678"/>
<path d="M372.58 253.51C372.58 253.51 378.658 271.285 375.185 276.695C371.712 282.105 381.263 293.697 396.893 288.287C412.522 282.877 413.391 276.695 413.391 276.695C413.391 276.695 407.313 268.194 405.576 250.419L372.58 253.51Z" fill="#A0616A"/>
<path d="M293.129 427.783C293.129 427.783 261.869 441.694 275.762 460.242C283.838 471.023 299.248 491.988 310.737 507.655C320.353 520.766 327.727 535.076 332.619 550.117L334.808 556.846L343.491 566.12L361.726 547.572C361.726 547.572 334.808 503.521 334.808 495.019C334.808 486.518 313.1 459.469 313.1 459.469L334.808 447.104C334.808 447.104 310.495 422.373 293.129 427.783Z" fill="#A0616A"/>
<path d="M394.721 475.699C394.721 475.699 395.589 497.338 396.457 505.839C397.174 512.853 390.207 532.49 392.623 554.337C394.097 568.471 393.92 582.703 392.096 596.805L388.643 624.855L414.692 627.174L423.375 563.801C423.375 563.801 428.585 518.977 425.98 504.293L426.848 473.38C426.848 473.38 407.746 467.198 394.721 475.699Z" fill="#A0616A"/>
<path d="M348.266 385.664C348.266 385.664 287.484 420.441 286.615 431.261C286.615 431.261 321.348 428.17 322.216 455.219C322.216 455.219 343.056 448.263 348.266 446.717C353.475 445.172 381.261 428.942 381.261 428.942C381.261 428.942 392.55 436.671 392.55 449.036C392.55 461.401 391.681 483.041 392.55 484.586C393.418 486.132 413.389 463.72 429.887 483.041L441.175 429.715C441.175 429.715 444.648 397.256 437.702 394.938L389.076 378.708L348.266 385.664Z" fill="#2F2E41"/>
<path d="M385.171 263.17C399.557 263.17 411.22 252.79 411.22 239.985C411.22 227.181 399.557 216.8 385.171 216.8C370.784 216.8 359.121 227.181 359.121 239.985C359.121 252.79 370.784 263.17 385.171 263.17Z" fill="#A0616A"/>
<path d="M378.658 280.559C378.658 280.559 408.04 287.466 412.018 274.352C412.018 274.352 448.123 280.559 454.201 301.425C460.279 322.292 439.44 372.526 439.44 374.071C439.44 375.617 456.806 384.891 448.991 389.528C441.177 394.165 434.23 388.755 437.703 394.938C441.177 401.121 447.255 402.666 442.045 404.212C436.835 405.758 405.576 381.8 381.263 387.982C356.95 394.165 344.794 389.528 344.794 389.528L333.892 305.667C333.466 302.454 333.951 299.197 335.303 296.194C336.655 293.191 338.83 290.537 341.63 288.475C347.072 284.488 354.292 280.181 361.292 279.013C375.185 276.695 375.762 275.426 375.762 275.426L378.658 280.559Z" fill="#D0CDE1"/>
<path d="M350.871 415.804C350.871 415.804 358.686 455.219 369.106 449.809C379.525 444.399 366.501 415.804 366.501 415.804H350.871Z" fill="#A0616A"/>
<path d="M387.146 420.905C387.146 420.905 373.605 459.071 385.654 458.56C397.704 458.05 401.005 427.335 401.005 427.335L387.146 420.905Z" fill="#A0616A"/>
<path d="M339.149 555.3C339.149 555.3 333.071 549.118 329.598 557.619C326.125 566.12 316.573 576.94 316.573 576.94C316.573 576.94 295.734 597.806 310.495 598.579C325.256 599.352 346.096 580.031 346.096 580.031L370.409 559.937C370.409 559.937 362.351 542.471 358.565 542.316C354.779 542.162 355.647 563.029 339.149 555.3Z" fill="#D0CDE1"/>
<path d="M395.589 619.445C395.589 619.445 389.47 621.035 389.924 614.444C389.924 614.444 367.803 624.855 373.881 632.583C379.959 640.312 386.906 648.04 386.906 648.04C386.906 648.04 419.033 664.269 421.638 660.405C424.243 656.541 424.243 648.813 422.507 645.721C420.77 642.63 412.087 637.22 414.692 632.583C417.297 627.946 413.824 615.581 409.482 615.581C405.14 615.581 395.589 619.445 395.589 619.445Z" fill="#D0CDE1"/>
<path d="M362.436 220.34C362.436 220.34 370.816 204.18 386.877 207.909C402.938 211.638 412.017 217.232 412.715 222.826C413.413 228.42 412.366 236.81 412.366 236.81C412.366 236.81 410.62 225.312 399.447 227.798C388.274 230.284 370.816 228.42 370.816 228.42L368.022 250.795C368.022 250.795 364.88 246.755 361.388 249.241C357.897 251.727 351.263 225.312 362.436 220.34Z" fill="#2F2E41"/>
<path d="M439.439 300.653C439.439 300.653 418.6 350.887 420.337 357.069C422.073 363.252 420.337 364.025 417.732 365.57C415.127 367.116 408.18 383.345 408.18 383.345C408.18 383.345 403.839 392.619 400.365 394.938C396.892 397.256 396.892 403.439 396.892 403.439C396.892 403.439 388.209 411.167 389.946 412.713C391.682 414.259 391.682 416.577 388.209 418.896C384.736 421.214 381.262 424.305 382.999 425.078C384.736 425.851 396.892 434.352 400.365 433.579C403.839 432.807 398.629 429.715 402.97 428.17C407.312 426.624 409.917 424.305 408.18 423.533C406.444 422.76 401.234 422.76 406.444 421.214C411.653 419.668 429.888 409.622 435.966 397.256C442.044 384.891 471.167 310.078 453.567 299.569C453.567 299.569 446.386 291.379 439.439 300.653Z" fill="#D0CDE1"/>
<path d="M343.056 292.151L342.703 292.282C339.423 293.5 336.526 295.41 334.263 297.848C331.999 300.287 330.437 303.179 329.713 306.276C327.817 314.353 325.951 326.036 327.426 336.976C330.031 356.296 331.768 364.797 335.241 370.98C338.714 377.163 339.583 374.844 338.714 379.481C337.846 384.118 333.504 380.254 337.846 386.437C342.187 392.619 344.792 391.074 343.056 394.165C341.319 397.256 338.714 397.256 342.188 401.121C345.661 404.985 345.661 406.53 346.529 408.076C347.397 409.622 350.002 421.214 350.002 421.214C350.002 421.214 363.895 417.35 371.71 418.896C371.71 418.896 364.764 408.076 366.5 405.757C368.237 403.439 370.842 402.666 368.237 400.348C365.632 398.029 361.29 398.802 365.632 396.484C369.973 394.165 362.159 370.207 362.159 370.207L343.056 292.151Z" fill="#D0CDE1"/>
<path d="M257.061 22.6424C257.106 18.5002 254.402 17.0301 251.047 17.0004C250.969 16.9998 250.891 16.9999 250.814 17.0008C250.659 17.0024 250.505 17.0075 250.352 17.0159C247.323 17.1833 244.954 18.6829 244.912 22.5351C244.869 26.5217 250.443 31.6025 250.861 31.9782L250.861 31.9785C250.877 31.9928 250.885 32 250.885 32C250.885 32 257.016 26.7843 257.061 22.6424Z" fill="#F3C34D"/>
<path d="M563.061 58.6424C563.106 54.5002 560.402 53.0301 557.047 53.0004C556.969 52.9998 556.891 52.9999 556.814 53.0008C556.659 53.0024 556.505 53.0075 556.352 53.0159C553.323 53.1833 550.954 54.6829 550.912 58.5351C550.869 62.5217 556.443 67.6025 556.861 67.9782L556.861 67.9785C556.877 67.9928 556.885 68 556.885 68C556.885 68 563.016 62.7843 563.061 58.6424Z" fill="#F3C34D"/>
<path d="M189.392 92.0093C189.415 89.8001 187.973 89.016 186.184 89.0002C186.142 88.9999 186.101 88.9999 186.06 89.0004C185.977 89.0013 185.895 89.004 185.814 89.0085C184.198 89.0977 182.934 89.8975 182.912 91.9521C182.889 94.0783 185.862 96.788 186.085 96.9884L186.085 96.9885C186.093 96.9962 186.098 97 186.098 97C186.098 97 189.368 94.2183 189.392 92.0093Z" fill="#F3C34D"/>
<path d="M419.886 121.799L440.035 80L411.983 125.974L417.871 126.731L419.886 121.799Z" fill="#F3C34D"/>
<path d="M249.168 86.5596L283.689 129.22L248.695 76L244.912 81.9134L249.168 86.5596Z" fill="#F3C34D"/>
<path d="M727.512 73.6957L725.434 78.867L720.784 79.6989C719.95 79.8473 719.616 81.1089 720.221 81.8314L723.585 85.8544L722.789 91.5373C722.646 92.5645 723.527 93.3339 724.266 92.8535L728.425 90.1702L732.585 92.8535C733.323 93.33 734.205 92.5645 734.061 91.5373L733.266 85.8544L736.63 81.8314C737.234 81.1089 736.9 79.8473 736.066 79.6989L731.417 78.867L729.339 73.6957C728.966 72.774 727.887 72.7622 727.512 73.6957Z" fill="#F3C34D"/>
<path d="M348.472 17.4174L347.225 20.5202L344.435 21.0193C343.935 21.1084 343.735 21.8653 344.097 22.2989L346.116 24.7126L345.638 28.1224C345.552 28.7387 346.081 29.2004 346.524 28.9121L349.02 27.3021L351.516 28.9121C351.959 29.198 352.488 28.7387 352.402 28.1224L351.924 24.7126L353.943 22.2989C354.305 21.8653 354.105 21.1084 353.605 21.0193L350.815 20.5202L349.568 17.4174C349.345 16.8644 348.697 16.8573 348.472 17.4174Z" fill="#F3C34D"/>
<path d="M159.033 197.835L156.539 204.041L150.959 205.04C149.958 205.218 149.557 206.732 150.283 207.599L154.32 212.427L153.365 219.247C153.193 220.48 154.251 221.404 155.137 220.827L160.129 217.607L165.121 220.827C166.007 221.399 167.065 220.48 166.893 219.247L165.939 212.427L169.976 207.599C170.701 206.732 170.3 205.218 169.3 205.04L163.719 204.041L161.225 197.835C160.778 196.729 159.484 196.715 159.033 197.835Z" fill="#F3C34D"/>
<path d="M502.205 637.435L526.035 588L492.859 642.372L499.822 643.267L502.205 637.435Z" fill="#F3C34D"/>
</svg>
