<svg width="832" height="1138" viewBox="0 0 832 1138" fill="none" xmlns="http://www.w3.org/2000/svg">
<path d="M45.5627 852.426C45.5627 290.785 507.912 610.786 653.563 258.426" stroke="white" stroke-width="2"/>
<path d="M-43.1242 744.307C-94.8166 185.051 395.023 461.139 507.624 96.8695" stroke="white" stroke-width="2"/>
<path d="M260.788 1120.09C209.096 560.837 698.935 836.925 811.537 472.656" stroke="white" stroke-width="2"/>
<path d="M166.788 979.094C115.096 419.837 604.935 695.925 717.537 331.656" stroke="white" stroke-width="2"/>
<path d="M209.88 675.8C212.85 674.81 218.117 669.968 218.117 669.958C218.117 669.948 213.88 667.493 213.593 667.374C210.256 665.969 202.979 665.216 200.336 668.295C199.918 668.819 199.614 669.424 199.443 670.073C199.273 670.721 199.24 671.398 199.346 672.059C199.452 672.721 199.696 673.353 200.06 673.916C200.425 674.478 200.904 674.958 201.465 675.324C203.801 676.988 207.306 676.631 209.88 675.8Z" fill="#9C9C9C"/>
<path d="M264.737 629.129C264.806 629.129 262.558 624.744 262.38 624.476C260.4 621.506 254.717 616.823 250.817 617.932C250.174 618.134 249.58 618.47 249.075 618.916C248.57 619.362 248.164 619.91 247.884 620.523C247.604 621.137 247.456 621.802 247.449 622.476C247.443 623.15 247.578 623.818 247.847 624.437C248.906 627.09 252.025 628.733 254.638 629.456C257.707 630.308 264.727 629.139 264.737 629.129Z" fill="#9C9C9C"/>
<path d="M225.413 689.571C227.968 687.898 231.492 682.304 231.769 681.859C234.965 683.881 238.292 685.687 241.729 687.264C243.709 688.195 245.768 689.076 247.828 689.927C246.838 689.67 245.937 689.462 245.848 689.442C242.254 688.967 235.036 690.165 233.304 693.828C233.032 694.447 232.894 695.116 232.899 695.792C232.904 696.467 233.051 697.135 233.332 697.75C233.612 698.364 234.019 698.913 234.526 699.36C235.033 699.807 235.629 700.142 236.274 700.342C238.967 701.332 242.214 700.035 244.521 698.55C246.828 697.065 249.917 692.323 250.718 691.066L253.095 692.056C256.906 693.571 260.708 695.026 264.401 696.65C265.698 697.204 266.955 697.808 268.222 698.392C267.331 698.174 266.589 697.996 266.47 697.986C262.876 697.511 255.669 698.709 253.926 702.372C253.655 702.99 253.517 703.659 253.522 704.334C253.527 705.009 253.674 705.675 253.954 706.289C254.235 706.903 254.642 707.451 255.149 707.897C255.656 708.343 256.251 708.677 256.896 708.876C259.599 709.866 262.886 708.569 265.143 707.084C267.4 705.599 270.232 701.323 271.202 699.837C272.469 700.481 273.747 701.124 274.954 701.818C275.766 702.303 276.588 702.709 277.38 703.243L279.736 704.758C281.192 705.748 282.706 706.817 284.112 707.847C285.102 708.56 286.013 709.253 286.944 709.946C285.657 709.381 283.112 708.312 282.885 708.253C279.41 707.263 272.093 707.332 269.826 710.688C269.463 711.256 269.223 711.895 269.124 712.561C269.024 713.228 269.066 713.909 269.248 714.558C269.429 715.207 269.745 715.811 270.176 716.33C270.606 716.849 271.142 717.271 271.747 717.569C274.261 718.925 277.687 718.173 280.172 717.044C282.875 715.807 287.102 711.025 287.577 710.421C289.112 711.579 290.597 712.718 291.973 713.817C295.992 716.995 299.339 719.856 301.873 722.093L303.853 720.291C301.2 718.054 297.656 715.143 293.389 711.916C291.834 710.738 290.151 709.5 288.439 708.253C289.352 706.423 290.159 704.542 290.854 702.619C293.894 702.926 299.616 701.352 300.359 701.144C301.002 702.956 301.606 704.728 302.15 706.401C303.715 711.183 304.913 715.312 305.794 718.589L308.011 716.609C307.091 713.549 305.903 709.817 304.428 705.609C303.784 703.768 303.061 701.817 302.289 699.818C302.972 699.432 308.477 696.224 310.209 693.808C311.783 691.61 313.179 688.373 312.328 685.631C312.148 684.982 311.834 684.378 311.407 683.858C310.979 683.339 310.447 682.914 309.846 682.613C309.244 682.312 308.585 682.14 307.913 682.109C307.241 682.078 306.569 682.188 305.942 682.433C302.21 684.027 300.725 691.185 301.052 694.788C301.052 695.006 301.547 697.293 301.863 698.748C301.547 697.927 301.25 697.135 300.873 696.303C300.22 694.64 299.517 693.006 298.774 691.244C298.378 690.402 297.992 689.561 297.586 688.71C297.181 687.858 296.705 686.997 296.26 686.126C295.2 684.145 294.022 682.165 292.785 680.185C294.24 679.611 299.359 677.493 301.259 675.552C303.16 673.612 305.022 670.602 304.586 667.8C304.509 667.131 304.293 666.486 303.95 665.906C303.607 665.326 303.146 664.825 302.597 664.436C302.048 664.046 301.423 663.777 300.762 663.645C300.102 663.514 299.421 663.523 298.765 663.672C294.804 664.662 292.28 671.533 292.062 675.146C292.062 675.364 292.181 677.978 292.28 679.413C291.527 678.245 290.785 677.077 289.993 675.918C287.696 672.582 285.261 669.275 282.855 665.969C282.112 664.979 281.39 663.939 280.667 662.919C281.182 662.721 287.32 660.335 289.448 658.167C291.339 656.187 293.211 653.217 292.785 650.405C292.707 649.736 292.489 649.09 292.145 648.511C291.802 647.931 291.34 647.43 290.79 647.041C290.24 646.651 289.614 646.382 288.953 646.25C288.292 646.119 287.611 646.128 286.954 646.277C282.993 647.267 280.469 654.138 280.251 657.751C280.251 658.029 280.429 661.781 280.528 662.701C278.924 660.454 277.35 658.207 275.885 655.93C273.887 652.867 272.095 649.675 270.519 646.376C270.757 646.287 277.172 643.822 279.35 641.594C281.241 639.614 283.112 636.644 282.687 633.842C282.61 633.173 282.393 632.528 282.051 631.948C281.708 631.368 281.247 630.867 280.698 630.478C280.148 630.088 279.523 629.819 278.863 629.687C278.203 629.556 277.522 629.565 276.865 629.714C272.905 630.704 270.38 637.575 270.163 641.188C270.163 641.426 270.291 644.287 270.39 645.643L270.173 645.703C268.666 642.343 267.467 638.854 266.589 635.278C266.084 633.298 265.707 631.407 265.381 629.555C266.618 629.219 272.311 627.625 274.469 625.833C276.628 624.041 278.746 621.348 278.637 618.487C278.632 617.813 278.485 617.148 278.206 616.535C277.927 615.922 277.523 615.374 277.019 614.927C276.515 614.48 275.923 614.143 275.28 613.94C274.638 613.736 273.961 613.67 273.291 613.744C269.282 614.309 265.985 620.843 265.371 624.417C265.371 624.605 265.212 626.615 265.143 628.08C265.014 627.239 264.856 626.377 264.747 625.565C264.321 622.526 264.114 619.724 263.945 617.239C263.866 615.824 263.826 614.537 263.797 613.339C264.836 612.349 269.014 608.388 270.103 605.884C271.192 603.379 271.836 599.943 270.42 597.449C270.107 596.852 269.671 596.327 269.141 595.91C268.611 595.492 268 595.191 267.346 595.026C266.692 594.861 266.011 594.835 265.347 594.95C264.682 595.066 264.049 595.32 263.49 595.696C260.183 598.053 260.272 605.369 261.371 608.824C261.47 609.121 263.48 613.616 263.539 613.566L263.599 613.507C263.599 614.655 263.599 615.893 263.678 617.249C263.787 619.744 263.925 622.566 264.292 625.625C264.649 628.921 265.198 632.194 265.935 635.426C266.743 639.055 267.877 642.604 269.321 646.029L269.381 646.148C268.608 645.247 266.361 642.802 266.163 642.634C263.43 640.258 256.748 637.278 253.293 639.376C252.725 639.74 252.241 640.219 251.871 640.783C251.502 641.346 251.255 641.981 251.148 642.646C251.041 643.312 251.075 643.992 251.248 644.643C251.421 645.294 251.73 645.902 252.154 646.425C253.877 648.712 257.312 649.475 260.025 649.485C263.074 649.485 269.093 646.762 269.579 646.514C271.129 649.966 272.908 653.31 274.905 656.524C276.053 658.395 277.271 660.256 278.518 662.098C277.825 661.345 277.202 660.672 277.103 660.583C274.37 658.217 267.688 655.227 264.232 657.326C263.665 657.689 263.181 658.168 262.811 658.732C262.442 659.295 262.195 659.93 262.088 660.596C261.98 661.261 262.014 661.941 262.188 662.592C262.361 663.244 262.67 663.851 263.094 664.375C264.807 666.671 268.252 667.424 270.965 667.434C273.677 667.444 278.885 665.216 280.251 664.612C280.736 665.315 281.241 666.028 281.706 666.731C284.043 670.087 286.389 673.443 288.637 676.79C289.419 677.978 290.141 679.166 290.864 680.354C290.25 679.68 289.726 679.126 289.637 679.047C286.904 676.671 280.221 673.691 276.766 675.79C276.2 676.154 275.716 676.634 275.348 677.198C274.979 677.762 274.734 678.397 274.627 679.062C274.521 679.727 274.555 680.407 274.73 681.058C274.904 681.709 275.213 682.316 275.637 682.839C277.35 685.126 280.796 685.888 283.498 685.898C286.201 685.908 290.924 683.918 292.547 683.185C293.26 684.423 293.973 685.66 294.597 686.898C295.012 687.749 295.468 688.541 295.824 689.422C296.181 690.303 296.587 691.145 296.953 691.987C297.616 693.65 298.299 695.353 298.933 696.986C299.359 698.115 299.745 699.204 300.131 700.293C299.378 699.105 297.834 696.818 297.685 696.64C295.528 694.285 292.8 692.525 289.765 691.531C289.54 691.256 289.288 691.004 289.013 690.779C288.506 690.335 287.912 690.004 287.268 689.805C286.625 689.606 285.947 689.545 285.279 689.625C284.61 689.706 283.966 689.926 283.388 690.271C282.81 690.616 282.312 691.079 281.924 691.63C279.687 695.016 282.399 701.808 284.667 704.639C284.795 704.807 286.449 706.451 287.508 707.471L285.27 706.015C283.815 705.025 282.3 704.035 280.736 702.956L278.35 701.491C277.558 700.986 276.667 700.55 275.816 700.075C273.836 699.006 271.766 698.016 269.668 697.105C270.559 695.828 273.628 691.244 274.172 688.571C274.717 685.898 274.588 682.393 272.677 680.265C272.243 679.75 271.706 679.332 271.099 679.038C270.493 678.744 269.832 678.581 269.159 678.56C268.486 678.538 267.816 678.659 267.192 678.913C266.568 679.168 266.005 679.551 265.539 680.037C262.817 683.007 264.47 690.165 266.272 693.303C266.391 693.501 267.935 695.6 268.816 696.739C267.549 696.184 266.282 695.62 264.985 695.095C261.223 693.58 257.371 692.125 253.54 690.729C252.362 690.294 251.194 689.838 250.025 689.393C250.352 688.947 254.154 683.571 254.728 680.581C255.243 677.928 255.154 674.404 253.233 672.275C252.799 671.76 252.261 671.342 251.655 671.048C251.049 670.755 250.388 670.592 249.715 670.57C249.042 670.549 248.371 670.669 247.748 670.924C247.124 671.178 246.561 671.561 246.095 672.047C243.372 675.017 245.026 682.175 246.838 685.314C246.966 685.551 249.204 688.571 249.808 689.274C247.234 688.284 244.679 687.294 242.194 686.195C238.84 684.742 235.585 683.069 232.452 681.185C232.601 680.977 236.601 675.384 237.185 672.325C237.69 669.671 237.601 666.147 235.69 664.018C235.256 663.503 234.718 663.085 234.112 662.792C233.506 662.498 232.845 662.335 232.171 662.314C231.498 662.292 230.828 662.413 230.204 662.667C229.581 662.921 229.018 663.304 228.552 663.79C225.829 666.761 227.482 673.918 229.284 677.057C229.403 677.265 231.106 679.572 231.947 680.651L231.789 680.819C228.684 678.843 225.761 676.594 223.057 674.097C221.542 672.74 220.176 671.364 218.879 669.988C219.731 668.998 223.572 664.573 224.413 661.87C225.255 659.167 225.502 655.771 223.839 653.455C223.462 652.896 222.971 652.424 222.399 652.067C221.828 651.711 221.187 651.478 220.52 651.385C219.853 651.292 219.173 651.34 218.526 651.525C217.878 651.711 217.277 652.031 216.76 652.465C213.731 655.157 214.592 662.424 216.038 665.741C216.117 665.919 217.127 667.661 217.879 668.919C217.305 668.295 216.701 667.662 216.157 667.048C214.176 664.751 212.404 662.523 210.899 660.533C210.048 659.395 209.306 658.355 208.613 657.375C208.959 655.989 210.266 650.395 209.771 647.673C209.276 644.95 207.929 641.733 205.375 640.465C204.786 640.141 204.134 639.945 203.464 639.889C202.793 639.833 202.118 639.919 201.483 640.141C200.848 640.364 200.267 640.717 199.778 641.179C199.288 641.641 198.902 642.201 198.643 642.822C197.188 646.604 201.296 652.653 204.108 654.93C204.355 655.128 208.514 657.761 208.533 657.692C208.535 657.662 208.535 657.632 208.533 657.603C209.177 658.593 209.88 659.583 210.662 660.692C212.127 662.672 213.81 664.988 215.8 667.335C217.919 669.888 220.184 672.318 222.582 674.612C225.26 677.172 228.159 679.491 231.245 681.542L231.363 681.611C230.225 681.284 226.997 680.482 226.74 680.453C223.146 679.977 215.939 681.175 214.196 684.838C213.925 685.457 213.787 686.126 213.792 686.802C213.796 687.478 213.944 688.145 214.224 688.76C214.504 689.375 214.911 689.924 215.418 690.371C215.925 690.817 216.521 691.152 217.166 691.353C219.869 692.323 223.156 691.066 225.413 689.571Z" fill="#9C9C9C"/>
<path d="M410.638 438.42C412.756 441.964 420.39 447.162 420.399 447.162C420.409 447.162 422.3 441.093 422.38 440.687C423.191 436.064 422.043 426.639 417.429 424.183C416.645 423.797 415.789 423.579 414.915 423.545C414.042 423.512 413.171 423.662 412.359 423.987C411.548 424.312 410.814 424.804 410.205 425.432C409.596 426.059 409.126 426.808 408.826 427.629C407.39 431.074 408.836 435.41 410.638 438.42Z" fill="#9C9C9C"/>
<path d="M485.494 494.396C485.494 494.485 490.444 490.377 490.711 490.08C493.949 486.664 498.186 478.199 495.661 473.556C495.221 472.801 494.626 472.147 493.916 471.637C493.206 471.126 492.396 470.772 491.54 470.595C490.683 470.418 489.799 470.424 488.945 470.612C488.091 470.8 487.286 471.165 486.583 471.685C483.524 473.794 482.346 478.209 482.177 481.714C481.989 485.832 485.494 494.386 485.494 494.396Z" fill="#9C9C9C"/>
<path d="M397.679 462.052C400.54 464.794 408.638 467.646 409.282 467.864C407.648 472.493 406.325 477.226 405.322 482.031C404.718 484.823 404.193 487.664 403.708 490.515C403.708 489.179 403.708 487.981 403.708 487.813C403.272 483.14 399.679 474.348 394.54 473.21C393.682 473.043 392.797 473.058 391.945 473.256C391.093 473.453 390.292 473.828 389.594 474.356C388.896 474.883 388.317 475.552 387.895 476.319C387.473 477.085 387.218 477.932 387.145 478.803C386.709 482.496 389.263 486.298 391.798 488.704C394.332 491.109 401.223 493.743 403.045 494.396C402.866 495.485 402.678 496.584 402.51 497.673C401.688 502.93 400.896 508.178 399.956 513.306C399.629 515.108 399.233 516.88 398.847 518.652C398.847 517.464 398.847 516.464 398.847 516.316C398.411 511.633 394.817 502.851 389.679 501.703C388.82 501.537 387.936 501.554 387.085 501.753C386.233 501.952 385.433 502.328 384.736 502.856C384.039 503.385 383.462 504.054 383.041 504.821C382.62 505.588 382.365 506.435 382.294 507.306C381.858 510.989 384.402 514.791 386.937 517.207C389.471 519.622 395.699 521.979 397.827 522.771C397.382 524.572 396.936 526.374 396.421 528.097C396.035 529.265 395.758 530.414 395.312 531.572L394.065 534.988C393.204 537.126 392.323 539.344 391.422 541.423C390.808 542.858 390.194 544.225 389.58 545.601C389.927 543.809 390.57 540.284 390.57 539.987C390.847 535.294 388.59 526.067 383.719 524.147C382.895 523.851 382.018 523.733 381.146 523.8C380.273 523.866 379.424 524.116 378.654 524.532C377.884 524.949 377.211 525.523 376.678 526.218C376.145 526.912 375.765 527.711 375.561 528.562C374.571 532.136 376.551 536.284 378.65 539.066C381.007 542.136 388.264 546.056 389.174 546.541C388.184 548.808 387.135 551.016 386.145 553.075C383.274 559.085 380.62 564.134 378.522 568.005L381.383 570.044C383.462 566.084 386.115 560.728 388.966 554.392C390.016 552.085 391.095 549.6 392.174 547.036C394.75 547.672 397.362 548.152 399.995 548.472C400.49 552.432 404.124 559.204 404.599 560.075C402.49 561.411 400.431 562.689 398.461 563.857C392.867 567.223 387.947 569.936 384.095 571.985L387.214 574.212C390.828 572.173 395.204 569.599 400.084 566.52C402.233 565.174 404.5 563.688 406.807 562.144C407.49 562.896 413.133 568.936 416.707 570.44C419.944 571.797 424.439 572.638 427.657 570.767C428.429 570.356 429.105 569.787 429.642 569.096C430.179 568.406 430.564 567.61 430.772 566.761C430.981 565.912 431.007 565.028 430.851 564.168C430.695 563.307 430.359 562.489 429.865 561.768C426.776 557.501 417.291 557.689 412.816 559.144C412.559 559.233 409.797 560.481 408.074 561.303C409.015 560.669 409.935 560.055 410.896 559.392C412.806 558.085 414.677 556.729 416.687 555.283L419.558 553.056C420.548 552.323 421.469 551.442 422.439 550.63C424.647 548.709 426.795 546.67 428.904 544.531C430.053 546.195 434.211 552.066 437.211 553.907C440.21 555.748 444.527 557.253 447.982 555.887C448.807 555.597 449.562 555.137 450.198 554.536C450.834 553.935 451.335 553.206 451.671 552.399C452.006 551.591 452.167 550.721 452.144 549.847C452.121 548.972 451.914 548.112 451.536 547.323C449.131 542.64 439.715 541.383 435.082 542.145C434.795 542.195 431.528 543.135 429.746 543.65C431.003 542.373 432.27 541.096 433.498 539.75C437.062 535.888 440.547 531.829 444.032 527.869C445.101 526.642 446.19 525.434 447.259 524.226C447.665 524.82 452.447 531.899 455.813 533.968C458.783 535.799 463.13 537.314 466.595 535.948C467.419 535.657 468.173 535.196 468.808 534.594C469.442 533.993 469.943 533.264 470.277 532.457C470.611 531.649 470.772 530.78 470.748 529.906C470.724 529.032 470.517 528.173 470.139 527.384C467.733 522.701 458.318 521.444 453.685 522.206C453.338 522.256 448.635 523.592 447.457 523.988C449.833 521.315 452.219 518.672 454.685 516.157C457.989 512.752 461.511 509.564 465.228 506.613C465.416 506.891 470.377 514.306 473.822 516.424C476.792 518.256 481.138 519.761 484.603 518.405C485.428 518.114 486.182 517.653 486.816 517.051C487.451 516.45 487.951 515.721 488.286 514.913C488.62 514.105 488.781 513.236 488.757 512.362C488.733 511.488 488.525 510.629 488.148 509.841C485.742 505.158 476.327 503.901 471.693 504.673C471.386 504.673 467.812 505.732 466.119 506.247L465.981 505.98C469.805 503.112 473.877 500.591 478.148 498.446C480.485 497.238 482.782 496.218 485.078 495.268C485.861 496.743 489.514 503.445 492.405 505.693C495.296 507.94 499.335 509.821 502.899 508.851C503.75 508.652 504.55 508.277 505.246 507.749C505.943 507.221 506.52 506.553 506.942 505.787C507.363 505.021 507.618 504.176 507.691 503.305C507.764 502.434 507.652 501.558 507.364 500.733C505.483 495.782 496.276 493.525 491.583 493.802C491.326 493.802 488.742 494.248 486.87 494.575C487.86 494.169 488.949 493.723 489.94 493.347C493.662 491.931 497.147 490.862 500.256 489.941C502.018 489.426 503.632 488.951 505.136 488.615C506.661 489.664 512.849 493.812 516.393 494.456C519.937 495.099 524.422 494.941 527.155 492.426C527.819 491.858 528.356 491.156 528.731 490.366C529.106 489.576 529.311 488.716 529.331 487.841C529.352 486.967 529.188 486.099 528.85 485.292C528.513 484.485 528.009 483.759 527.373 483.16C523.412 479.665 514.215 481.882 510.166 484.258C509.809 484.466 504.711 488.318 504.79 488.377L504.879 488.436C503.424 488.773 501.859 489.159 500.157 489.605C497.038 490.466 493.504 491.466 489.742 492.802C485.67 494.221 481.683 495.874 477.802 497.753C473.446 499.824 469.282 502.275 465.357 505.079L465.228 505.188C466.139 503.95 468.594 500.406 468.753 500.109C470.971 495.961 472.822 486.654 469.169 482.863C468.543 482.252 467.795 481.78 466.975 481.477C466.155 481.174 465.281 481.046 464.408 481.102C463.536 481.158 462.685 481.396 461.91 481.802C461.136 482.208 460.455 482.771 459.912 483.457C457.516 486.298 457.546 490.872 458.318 494.297C459.189 498.158 464.367 505 464.783 505.544C460.864 508.501 457.146 511.716 453.655 515.167C451.606 517.147 449.616 519.246 447.636 521.355C448.398 520.256 449.061 519.266 449.14 519.117C451.358 514.979 453.209 505.663 449.556 501.881C448.932 501.268 448.186 500.794 447.367 500.489C446.547 500.184 445.673 500.055 444.8 500.111C443.927 500.167 443.076 500.407 442.303 500.814C441.529 501.221 440.85 501.787 440.309 502.475C437.904 505.306 437.933 509.88 438.706 513.306C439.478 516.731 443.794 522.711 444.953 524.256L442.695 526.701C439.111 530.661 435.557 534.572 431.944 538.324C430.676 539.651 429.37 540.908 428.073 542.175C428.746 541.185 429.31 540.373 429.379 540.195C431.597 536.057 433.448 526.741 429.795 522.959C429.171 522.346 428.424 521.872 427.604 521.567C426.784 521.262 425.91 521.133 425.037 521.188C424.164 521.244 423.312 521.482 422.537 521.887C421.762 522.293 421.081 522.857 420.538 523.543C418.143 526.384 418.172 530.958 418.945 534.384C419.717 537.809 423.608 543.205 424.984 545.056C423.617 546.304 422.251 547.561 420.865 548.719C419.875 549.482 419.034 550.283 418.024 551.006L415.103 553.164C413.202 554.481 411.242 555.838 409.351 557.075C408.034 557.936 406.777 558.738 405.5 559.55C406.787 558.243 409.242 555.64 409.46 555.402C411.815 552.001 413.26 548.055 413.658 543.937C413.937 543.571 414.183 543.18 414.39 542.769C414.805 541.999 415.054 541.15 415.12 540.278C415.185 539.406 415.067 538.53 414.772 537.706C414.477 536.883 414.012 536.13 413.407 535.498C412.802 534.866 412.071 534.368 411.262 534.037C406.312 532.186 398.52 537.572 395.6 541.254C395.421 541.472 393.818 544.036 392.828 545.67C393.263 544.621 393.699 543.611 394.134 542.522C395.006 540.383 395.817 538.225 396.689 535.898C397.075 534.76 397.471 533.611 397.857 532.453C398.243 531.295 398.56 530.057 398.926 528.849C399.708 526.018 400.362 523.127 400.956 520.187C402.827 520.949 409.529 523.553 413.054 523.434C416.578 523.315 420.974 522.186 423.142 519.147C423.669 518.449 424.044 517.649 424.241 516.797C424.438 515.945 424.453 515.061 424.286 514.202C424.119 513.344 423.773 512.531 423.27 511.815C422.768 511.099 422.121 510.498 421.37 510.049C416.786 507.465 408.242 511.613 404.797 514.801C404.579 515.009 402.362 517.573 401.173 519.008C401.51 517.246 401.867 515.484 402.164 513.682C402.995 508.484 403.678 503.208 404.391 497.941C404.599 496.327 404.837 494.723 405.064 493.119C405.728 493.396 413.628 496.664 417.578 496.525C421.083 496.406 425.499 495.277 427.657 492.238C428.184 491.541 428.559 490.741 428.757 489.889C428.955 489.038 428.971 488.154 428.805 487.296C428.639 486.438 428.294 485.624 427.792 484.908C427.291 484.192 426.644 483.589 425.895 483.14C421.301 480.566 412.757 484.704 409.312 487.902C409.054 488.139 405.866 491.862 405.104 492.852C405.609 489.317 406.094 485.793 406.807 482.338C407.695 477.669 408.882 473.063 410.361 468.547C410.668 468.675 418.895 472.131 422.944 471.992C426.449 471.863 430.864 470.745 433.023 467.705C433.55 467.007 433.925 466.206 434.123 465.354C434.321 464.502 434.338 463.617 434.171 462.758C434.005 461.899 433.66 461.085 433.159 460.368C432.657 459.651 432.01 459.048 431.26 458.597C426.667 456.023 418.133 460.161 414.677 463.359C414.45 463.567 412.024 466.388 410.896 467.755L410.638 467.606C412.226 463.108 414.214 458.761 416.578 454.617C417.865 452.32 419.212 450.192 420.538 448.152C422.004 448.954 428.746 452.528 432.419 452.815C435.924 453.073 440.448 452.439 442.913 449.657C443.514 449.021 443.973 448.267 444.263 447.441C444.552 446.616 444.664 445.74 444.592 444.868C444.521 443.997 444.266 443.151 443.845 442.384C443.425 441.618 442.847 440.948 442.151 440.42C437.874 437.351 428.934 440.529 425.152 443.331C424.954 443.479 423.033 445.251 421.657 446.568C422.281 445.657 422.915 444.707 423.538 443.845C425.855 440.618 428.181 437.796 430.251 435.311C431.449 433.915 432.557 432.668 433.597 431.52C435.448 431.52 442.903 431.599 446.21 430.183C449.517 428.767 453.14 426.154 454.071 422.55C454.311 421.708 454.372 420.824 454.248 419.957C454.123 419.09 453.818 418.259 453.351 417.518C452.883 416.777 452.265 416.143 451.536 415.657C450.807 415.171 449.984 414.845 449.121 414.699C443.913 413.947 437.438 420.897 435.369 425.114C435.191 425.48 433.062 431.51 433.151 431.51H433.27C432.28 432.599 431.142 433.777 429.973 435.094C427.845 437.529 425.449 440.311 423.043 443.499C420.419 446.916 417.996 450.483 415.786 454.181C413.297 458.312 411.18 462.655 409.46 467.161L409.401 467.329C409.49 465.785 409.569 461.478 409.539 461.141C409.104 456.458 405.51 447.677 400.372 446.538C399.514 446.373 398.63 446.39 397.779 446.588C396.928 446.786 396.128 447.161 395.432 447.689C394.735 448.216 394.157 448.884 393.736 449.65C393.315 450.416 393.059 451.261 392.986 452.132C392.6 455.825 395.144 459.627 397.679 462.052Z" fill="#9C9C9C"/>
<path d="M457.557 636.327V633.01C457.557 615.932 479.179 615.19 479.179 603.032C479.179 597.755 474.882 594.31 468.487 594.31C461.487 594.31 457.062 598.122 457.062 603.527V604.883C457.062 606.23 456.329 606.864 454.973 606.864L441.835 606.368C440.607 606.368 439.746 605.755 439.746 604.903V603.547C439.746 588.696 451.537 578.489 468.863 578.489C485.812 578.489 496.742 588.073 496.742 602.438C496.742 622.833 474.754 622.961 474.754 634.119V636.327C474.787 636.609 474.756 636.895 474.663 637.164C474.57 637.433 474.417 637.677 474.216 637.878C474.015 638.079 473.771 638.232 473.502 638.325C473.233 638.418 472.947 638.449 472.665 638.416H459.646C459.363 638.449 459.077 638.418 458.808 638.325C458.54 638.232 458.296 638.079 458.095 637.878C457.894 637.677 457.741 637.433 457.648 637.164C457.554 636.895 457.523 636.609 457.557 636.327ZM456.448 656.127C456.448 650.722 461.24 646.296 467.012 646.296C472.546 646.296 477.456 650.722 477.456 656.127C477.456 661.533 472.506 665.958 466.893 665.958C461.279 665.958 456.448 661.513 456.448 656.108V656.127Z" fill="#292D34"/>
<path d="M197.971 495.644V492.763C197.971 477.912 216.782 477.289 216.782 466.725C216.782 462.131 213.049 459.151 207.505 459.151C201.417 459.151 197.605 462.458 197.605 467.151V468.329C197.605 469.497 196.971 470.032 195.793 470.032L184.378 469.606C183.309 469.606 182.566 469.071 182.566 468.329V467.151C182.566 454.28 192.803 445.37 207.852 445.37C222.573 445.37 232.078 453.696 232.078 466.161C232.078 483.872 212.97 483.981 212.97 493.693V495.614C212.999 495.859 212.972 496.107 212.891 496.34C212.81 496.573 212.677 496.784 212.503 496.958C212.328 497.133 212.117 497.265 211.884 497.346C211.651 497.427 211.403 497.454 211.158 497.426H199.783C199.541 497.454 199.296 497.427 199.065 497.348C198.835 497.268 198.625 497.138 198.452 496.968C198.278 496.797 198.145 496.589 198.061 496.36C197.978 496.131 197.948 495.886 197.971 495.644ZM196.981 512.821C196.981 508.128 201.139 504.287 206.149 504.287C210.951 504.287 215.227 508.128 215.227 512.821C215.227 517.514 210.951 521.355 206.05 521.355C203.722 521.414 201.465 520.549 199.772 518.951C198.078 517.352 197.086 515.148 197.011 512.821H196.981Z" fill="#7BC678"/>
<path d="M436.925 382.038V380.583C436.925 373.088 446.409 372.761 446.409 367.425C446.409 365.109 444.518 363.594 441.717 363.594C438.647 363.594 436.707 365.267 436.707 367.643V368.237C436.707 368.831 436.38 369.098 435.786 369.098L430.024 368.881C429.48 368.881 429.104 368.613 429.104 368.237V367.643C429.104 361.119 434.281 356.644 441.885 356.644C449.32 356.644 454.122 360.851 454.122 367.158C454.122 376.068 444.469 376.157 444.469 381.018V382.008C444.483 382.132 444.469 382.258 444.428 382.376C444.387 382.494 444.319 382.601 444.231 382.688C444.142 382.776 444.034 382.843 443.916 382.883C443.798 382.923 443.672 382.935 443.548 382.919H437.836C437.715 382.935 437.592 382.923 437.477 382.884C437.361 382.846 437.256 382.782 437.169 382.697C437.081 382.613 437.014 382.51 436.972 382.395C436.929 382.281 436.913 382.159 436.925 382.038ZM436.44 390.721C436.376 389.795 436.592 388.871 437.061 388.07C437.529 387.269 438.228 386.628 439.065 386.229C439.903 385.83 440.842 385.693 441.759 385.835C442.676 385.976 443.529 386.391 444.207 387.024C444.885 387.657 445.358 388.48 445.562 389.385C445.766 390.29 445.694 391.236 445.354 392.099C445.013 392.962 444.421 393.703 443.654 394.225C442.887 394.748 441.981 395.027 441.053 395.027C440.467 395.048 439.883 394.954 439.334 394.749C438.784 394.543 438.281 394.232 437.852 393.832C437.424 393.432 437.078 392.951 436.836 392.417C436.593 391.883 436.459 391.307 436.44 390.721Z" fill="#7BC678"/>
<path d="M158.894 582.261V580.43C158.894 570.985 170.854 570.579 170.854 563.847C170.854 560.926 168.478 559.025 164.914 559.025C161.043 559.025 158.597 561.134 158.597 564.124V564.867C158.597 565.619 158.191 565.956 157.439 565.956L150.172 565.688C149.489 565.688 149.014 565.342 149.014 564.867V564.124C149.014 555.907 155.538 550.264 165.121 550.264C174.497 550.264 180.536 555.56 180.536 563.51C180.536 574.787 168.379 574.856 168.379 581.044V582.261C168.398 582.418 168.381 582.577 168.33 582.726C168.278 582.876 168.194 583.011 168.082 583.123C167.97 583.235 167.835 583.319 167.685 583.371C167.536 583.422 167.377 583.439 167.22 583.42H160.033C159.878 583.436 159.721 583.417 159.574 583.364C159.427 583.311 159.294 583.226 159.185 583.114C159.076 583.003 158.993 582.869 158.942 582.721C158.892 582.573 158.876 582.416 158.894 582.261V582.261ZM158.28 593.201C158.203 592.035 158.478 590.872 159.071 589.865C159.663 588.857 160.545 588.051 161.602 587.552C162.659 587.052 163.842 586.883 164.997 587.065C166.151 587.247 167.224 587.773 168.076 588.574C168.928 589.374 169.519 590.413 169.772 591.554C170.025 592.695 169.929 593.886 169.496 594.972C169.063 596.058 168.313 596.988 167.344 597.642C166.375 598.295 165.231 598.642 164.062 598.637C162.572 598.685 161.124 598.139 160.036 597.12C158.948 596.101 158.31 594.691 158.261 593.201H158.28Z" stroke="#263238" stroke-miterlimit="10"/>
<path d="M249.976 411.363V410.105C249.976 403.611 258.203 403.324 258.203 398.7C258.203 396.72 256.57 395.384 254.134 395.384C251.471 395.384 249.788 396.829 249.788 398.888V399.403C249.788 399.918 249.511 400.146 248.996 400.146L244.046 399.957C243.581 399.957 243.254 399.73 243.254 399.403V398.888C243.254 393.235 247.739 389.354 254.322 389.354C260.906 389.354 264.827 392.998 264.827 398.463C264.827 406.224 256.461 406.274 256.461 410.521V411.363C256.474 411.47 256.462 411.578 256.427 411.68C256.391 411.782 256.333 411.875 256.257 411.951C256.181 412.027 256.088 412.085 255.986 412.12C255.885 412.156 255.776 412.167 255.669 412.155H250.719C250.616 412.16 250.513 412.142 250.417 412.103C250.321 412.065 250.235 412.005 250.164 411.93C250.094 411.855 250.04 411.765 250.008 411.667C249.975 411.569 249.965 411.465 249.976 411.363ZM249.56 418.887C249.517 418.096 249.712 417.31 250.119 416.631C250.527 415.951 251.129 415.41 251.848 415.077C252.567 414.743 253.369 414.633 254.151 414.76C254.933 414.888 255.659 415.247 256.234 415.791C256.81 416.335 257.21 417.039 257.381 417.813C257.552 418.586 257.488 419.393 257.195 420.13C256.903 420.866 256.397 421.498 255.742 421.944C255.086 422.389 254.313 422.628 253.521 422.629C252.498 422.664 251.503 422.291 250.755 421.593C250.007 420.895 249.567 419.929 249.531 418.907L249.56 418.887Z" fill="#263238"/>
<path d="M396.502 682.779V681.522C396.502 675.027 404.729 674.75 404.729 670.117C404.729 668.137 403.095 666.8 400.66 666.8C397.997 666.8 396.313 668.246 396.313 670.305V670.82C396.313 671.335 396.036 671.572 395.521 671.572L390.571 671.384C390.106 671.384 389.779 671.147 389.779 670.82V670.305C389.779 664.652 394.264 660.771 400.848 660.771C407.432 660.771 411.461 664.414 411.461 669.889C411.461 677.641 403.095 677.691 403.095 681.938V682.779C403.108 682.887 403.096 682.996 403.061 683.098C403.025 683.2 402.967 683.293 402.891 683.37C402.815 683.447 402.723 683.506 402.621 683.543C402.519 683.579 402.411 683.592 402.303 683.581H397.353C397.241 683.603 397.125 683.597 397.016 683.565C396.906 683.533 396.806 683.476 396.723 683.397C396.64 683.319 396.577 683.222 396.538 683.115C396.5 683.008 396.487 682.893 396.502 682.779V682.779ZM396.086 690.304C396.042 689.513 396.237 688.727 396.645 688.047C397.053 687.368 397.655 686.827 398.373 686.493C399.092 686.16 399.894 686.05 400.676 686.177C401.458 686.304 402.184 686.663 402.76 687.208C403.336 687.752 403.735 688.456 403.906 689.23C404.078 690.003 404.013 690.81 403.721 691.547C403.428 692.283 402.922 692.915 402.267 693.36C401.612 693.806 400.838 694.045 400.046 694.046C399.027 694.07 398.04 693.69 397.3 692.989C396.56 692.288 396.127 691.322 396.096 690.304H396.086Z" stroke="#263238" stroke-miterlimit="10"/>
<path d="M357.742 705.312C357.673 705.104 357.603 704.896 357.524 704.688C357.445 704.48 357.386 704.263 357.306 704.055C357.227 703.847 357.168 703.639 357.088 703.431C357.009 703.223 356.95 703.005 356.871 702.797C356.791 702.589 356.732 702.382 356.653 702.174C356.574 701.966 356.514 701.748 356.435 701.54L356.217 700.916C356.148 700.699 356.069 700.491 355.999 700.283L355.782 699.659C355.712 699.441 355.633 699.233 355.564 699.025L355.346 698.402C355.277 698.184 355.198 697.976 355.128 697.768L354.92 697.105C354.851 696.887 354.772 696.679 354.703 696.471L354.475 695.847C354.406 695.63 354.336 695.422 354.257 695.214C354.178 695.006 354.118 694.798 354.039 694.59C353.96 694.382 353.901 694.164 353.821 693.956C353.742 693.749 353.683 693.541 353.604 693.333C350.376 683.512 340.397 676.304 329.417 676.304C318.774 676.304 309.518 682.502 305.656 691.234C305.557 691.432 305.468 691.64 305.379 691.838L305.112 692.452C305.013 692.65 304.924 692.848 304.835 693.056C304.746 693.263 304.647 693.461 304.558 693.659L304.29 694.263C304.191 694.471 304.102 694.669 304.013 694.877C303.924 695.085 303.825 695.273 303.736 695.481C303.647 695.689 303.548 695.877 303.459 696.085L303.191 696.689C303.092 696.887 303.003 697.095 302.914 697.293C302.825 697.491 302.726 697.699 302.637 697.897L302.37 698.511C302.271 698.709 302.181 698.907 302.092 699.114C302.003 699.322 301.904 699.52 301.815 699.718L301.548 700.322C301.449 700.53 301.36 700.728 301.271 700.936C301.182 701.144 301.083 701.332 300.993 701.54L300.726 702.144C300.627 702.342 300.538 702.55 300.449 702.748C300.36 702.946 300.261 703.154 300.172 703.362C298.473 706.979 297.601 710.929 297.617 714.925C297.617 730.865 311.379 743.894 328.397 743.894C345.05 743.894 359.534 730.865 359.534 714.925C359.531 711.886 358.998 708.871 357.96 706.015C357.89 705.728 357.821 705.52 357.742 705.312Z" fill="#263238"/>
<path d="M334.189 486.031C283.133 486.031 248.373 516.078 248.373 559.897V563.857C248.382 564.511 248.56 565.152 248.89 565.718C249.219 566.283 249.689 566.754 250.254 567.084C250.468 567.29 250.7 567.476 250.947 567.639C251.162 567.847 251.397 568.033 251.65 568.193C251.865 568.402 252.1 568.588 252.353 568.748C252.566 568.958 252.801 569.144 253.056 569.302C253.267 569.511 253.499 569.696 253.749 569.857C253.963 570.068 254.199 570.257 254.452 570.421C254.669 570.627 254.904 570.812 255.155 570.975C255.37 571.183 255.605 571.369 255.858 571.53C256.069 571.738 256.301 571.923 256.551 572.084C256.783 572.308 257.039 572.507 257.313 572.678C257.515 572.862 257.73 573.031 257.957 573.183C258.174 573.389 258.409 573.574 258.659 573.737C258.873 573.943 259.105 574.129 259.352 574.292C259.57 574.498 259.805 574.683 260.055 574.846C260.27 575.054 260.506 575.24 260.758 575.401C260.97 575.609 261.202 575.794 261.451 575.955C261.666 576.163 261.902 576.349 262.154 576.51C262.366 576.717 262.598 576.903 262.847 577.064C263.064 577.27 263.3 577.455 263.55 577.618C263.762 577.826 263.994 578.012 264.243 578.173C265.387 579.179 266.88 579.698 268.401 579.618L300.241 580.806C303.518 580.806 305.3 579.321 305.3 576.044V572.777C305.3 559.679 316.012 550.462 333.021 550.462C348.495 550.462 358.91 558.788 358.91 571.589C358.91 573.048 358.771 574.503 358.494 575.935C342.515 596.884 300.924 606.121 300.924 646.782V656.563C300.924 660.523 303.092 662.711 307.082 662.711H345.416C349.376 662.711 351.574 660.543 351.574 656.563V650.039C351.574 617.091 416.391 616.725 416.391 556.62C416.391 514.266 384.156 486.031 334.189 486.031Z" fill="#263238"/>
<path d="M300.874 656.583V646.802C300.874 596.468 364.602 594.33 364.602 558.451C364.602 542.878 351.93 532.711 333.1 532.711C312.458 532.711 299.439 543.937 299.439 559.867V563.827C299.439 567.787 297.261 569.629 293.281 569.629L254.531 568.173C250.917 568.173 248.383 566.362 248.383 563.827V559.867C248.383 516.048 283.143 486.001 334.199 486.001C384.165 486.001 416.371 514.237 416.371 556.61C416.371 616.715 351.554 617.081 351.554 650.029V656.553C351.554 660.513 349.376 662.701 345.396 662.701H307.032C303.042 662.731 300.874 660.563 300.874 656.583ZM297.617 714.925C297.617 698.996 311.735 685.957 328.753 685.957C345.049 685.957 359.533 698.996 359.533 714.925C359.533 730.855 345.02 743.844 328.397 743.844C311.359 743.844 297.617 730.815 297.617 714.925Z" fill="#7BC678" stroke="#7BC678" stroke-miterlimit="10"/>
<path d="M326.814 776.307C356.673 776.307 380.879 770.895 380.879 764.219C380.879 757.543 356.673 752.131 326.814 752.131C296.954 752.131 272.748 757.543 272.748 764.219C272.748 770.895 296.954 776.307 326.814 776.307Z" fill="#292D34"/>
<path d="M285.489 490.04L283.419 494.555C283.419 494.555 271.4 495.852 271.4 496.752C271.4 497.653 271.529 503.861 272.183 504.118C272.679 504.312 273.23 504.312 273.727 504.118L291.429 499.594L293.112 491.584L285.489 490.04Z" fill="white" stroke="#263238" stroke-linecap="round" stroke-linejoin="round"/>
<path d="M282.122 498.109C279.924 499.91 277.553 501.488 275.043 502.822C272.182 504.109 272.073 506.059 272.984 506.059C273.895 506.059 281.973 502.673 281.973 502.673C281.973 502.673 289.31 500.752 290.369 500.168C291.428 499.584 291.547 496.337 291.547 496.337" fill="white"/>
<path d="M282.122 498.109C279.924 499.91 277.553 501.488 275.043 502.822C272.182 504.109 272.073 506.059 272.984 506.059C273.895 506.059 281.973 502.673 281.973 502.673C281.973 502.673 289.31 500.752 290.369 500.168C291.428 499.584 291.547 496.337 291.547 496.337" stroke="#263238" stroke-linecap="round" stroke-linejoin="round"/>
<path d="M296.063 403.294L288.677 459.904L283.539 490.555L294.944 493.248L303.449 456.993L307.478 434.173L296.063 403.294Z" fill="#7D7D7D" stroke="#263238" stroke-linecap="round" stroke-linejoin="round"/>
<path d="M355.662 362.307L351.157 361.594L341.93 358.099L341.594 369.059L355.9 370.375L355.662 362.307Z" fill="white" stroke="#263238" stroke-linecap="round" stroke-linejoin="round"/>
<path d="M303.001 563.055C299.644 566.969 296.508 571.068 293.606 575.331C289.794 581.153 291.141 587.41 295.844 588.984C300.546 590.558 306.575 586.291 308.15 582.935C309.724 579.578 309.268 577.796 311.724 574.44C314.179 571.084 316.199 567.728 315.308 563.253C314.417 558.778 305.417 559.926 303.001 563.055Z" fill="#7D7D7D" stroke="#263238" stroke-linecap="round" stroke-linejoin="round"/>
<path d="M307.694 583.776C307.377 583.103 307.011 582.39 306.576 581.628C302.982 575.301 296.675 575.806 292.715 576.985C290.111 582.301 291.596 587.588 295.863 589.013C300.13 590.439 305.635 586.954 307.694 583.776Z" fill="white" stroke="#263238" stroke-linecap="round" stroke-linejoin="round"/>
<path d="M306.575 581.628C305.239 583.608 303.447 589.014 296.507 586.776C294.571 586.279 292.84 585.189 291.557 583.658C291.707 584.865 292.191 586.006 292.956 586.953C293.72 587.899 294.734 588.613 295.883 589.014C300.576 590.578 306.615 586.321 308.189 582.965C309.763 579.608 309.308 577.826 311.763 574.47C314.218 571.114 316.238 567.758 315.347 563.283C315.347 568.649 313.367 569.54 310.872 572.45C308.377 575.361 307.922 579.608 306.575 581.628Z" fill="white" stroke="#263238" stroke-linecap="round" stroke-linejoin="round"/>
<path d="M369.026 563.055C372.384 566.969 375.52 571.068 378.422 575.331C382.233 581.153 380.887 587.41 376.184 588.984C371.482 590.558 365.452 586.291 363.878 582.935C362.304 579.578 362.759 577.796 360.304 574.44C357.849 571.084 355.829 567.728 356.72 563.253C357.611 558.778 366.571 559.926 369.026 563.055Z" fill="#7D7D7D" stroke="#263238" stroke-linecap="round" stroke-linejoin="round"/>
<path d="M364.344 583.776C364.651 583.103 365.017 582.39 365.453 581.628C369.046 575.301 375.353 575.806 379.313 576.985C381.917 582.301 380.432 587.588 376.165 589.013C371.898 590.439 366.393 586.954 364.344 583.776Z" fill="white" stroke="#263238" stroke-linecap="round" stroke-linejoin="round"/>
<path d="M365.453 581.628C366.789 583.608 368.581 589.014 375.522 586.776C377.457 586.279 379.188 585.189 380.472 583.658C380.322 584.865 379.837 586.006 379.072 586.953C378.308 587.899 377.294 588.613 376.145 589.014C371.452 590.578 365.413 586.321 363.839 582.965C362.265 579.608 362.72 577.826 360.265 574.47C357.81 571.114 355.79 567.758 356.681 563.283C356.681 568.649 358.661 569.54 361.156 572.45C363.651 575.361 364.106 579.608 365.453 581.628Z" fill="white" stroke="#263238" stroke-linecap="round" stroke-linejoin="round"/>
<path d="M379.522 485.862C379.522 481.833 372.592 477.358 372.592 477.358C362.147 466.735 343.297 468.141 336.337 469.091C329.407 468.101 310.537 466.735 300.092 477.358C300.092 477.358 293.162 481.833 293.162 485.862C293.162 489.892 301.894 562.609 301.894 562.609C301.894 562.609 301.666 566.411 307.933 566.857C314.2 567.302 316.844 563.728 316.844 563.728L319.309 502.198C319.309 502.198 329.377 495.03 331.189 494.812C331.843 494.723 332.694 494.585 333.644 494.466V494.585C335.417 494.215 337.247 494.215 339.02 494.585V494.466C340.01 494.585 340.812 494.723 341.476 494.812C343.268 495.03 353.356 502.198 353.356 502.198L355.821 563.728C355.821 563.728 358.504 567.302 364.731 566.857C370.959 566.411 370.771 562.609 370.771 562.609C370.771 562.609 379.522 489.892 379.522 485.862Z" fill="#292D34" stroke="#263238" stroke-linecap="round" stroke-linejoin="round"/>
<path d="M353.344 502.198C353.344 502.198 351.998 487.427 358.492 481.833" stroke="#707070" stroke-linecap="round" stroke-linejoin="round"/>
<path d="M319.337 502.198C319.337 502.198 320.01 489.892 318.664 485.417C317.318 480.942 315.08 479.15 315.08 479.15" stroke="#707070" stroke-linecap="round" stroke-linejoin="round"/>
<path d="M327.613 472.883C327.613 472.883 334.771 481.16 336.118 488.1" stroke="#707070" stroke-linecap="round" stroke-linejoin="round"/>
<path d="M343.276 473.358C343.276 473.358 339.246 477.833 338.801 481.19" stroke="#707070" stroke-linecap="round" stroke-linejoin="round"/>
<path d="M333.208 386.295C333.208 386.295 326.723 385.394 324.486 387.632C322.248 389.869 314.635 398.116 314.635 398.116L318.664 469.269C318.664 469.269 327.842 472.853 335.673 472.853C343.504 472.853 352.454 469.943 354.483 468.378C356.513 466.814 354.711 390.513 354.711 390.513C354.711 390.513 338.089 385.622 333.208 386.295Z" fill="#7BC678" stroke="#263238" stroke-linecap="round" stroke-linejoin="round"/>
<path d="M345.068 387.859C348.474 387.342 351.91 387.041 355.354 386.958C359.829 386.958 364.264 387.186 364.264 387.186L375.452 376.444L352.938 371.296L354.73 361.01C354.73 361.01 371.284 359.891 379.56 361.455C387.837 363.019 400.816 367.049 401.49 367.049C402.163 367.049 403.054 369.514 402.381 371.296C401.707 373.078 380.659 396.364 374.373 402.403C370.26 406.433 366.377 410.69 362.74 415.154L359.869 465.052C359.869 465.052 367.254 469.081 368.601 470.418C369.947 471.754 371.511 477.13 371.511 477.13C371.511 477.13 357.859 471.536 354.275 471.091C350.691 470.645 348.464 470.418 347.79 469.111C347.117 467.804 341.523 408.026 341.523 408.026L341.751 389.008C341.751 389.008 341.712 387.859 345.068 387.859Z" fill="#7D7D7D" stroke="#263238" stroke-linecap="round" stroke-linejoin="round"/>
<path d="M358.493 418.511L346.404 420.075L347.523 424.55L353.572 426.114L359.384 423.431L358.493 418.511Z" stroke="#263238" stroke-linecap="round" stroke-linejoin="round"/>
<path d="M365.423 391.661L362.74 415.155L369.68 395.245" stroke="#263238" stroke-linecap="round" stroke-linejoin="round"/>
<path d="M375.492 376.444C375.492 376.444 381.086 377.563 389.59 374.207" stroke="#263238" stroke-linecap="round" stroke-linejoin="round"/>
<path d="M381.312 378.009C384.987 378.111 388.662 377.812 392.272 377.118" stroke="#263238" stroke-linecap="round" stroke-linejoin="round"/>
<path d="M325.605 386.067L326.724 402.403C327.744 403.744 329.065 404.827 330.58 405.565C332.094 406.303 333.762 406.674 335.446 406.65C341.04 406.432 341.713 402.403 341.713 402.403V388.978L325.605 386.067Z" fill="white" stroke="#263238" stroke-linecap="round" stroke-linejoin="round"/>
<path d="M341.93 394.572L341.484 408.016L346.187 400.631C346.187 400.631 351.335 407.115 352.672 406.898C354.008 406.68 351.781 403.987 351.335 401.532C350.89 399.076 347.078 390.334 346.633 387.879C346.187 385.424 341.93 384.969 341.682 386.087C341.558 387.054 341.558 388.032 341.682 388.998L341.93 394.572Z" fill="#7D7D7D" stroke="#263238" stroke-linecap="round" stroke-linejoin="round"/>
<path d="M326.495 406.65C326.495 406.65 327.386 469.299 325.148 470.012C322.911 470.725 313.961 470.913 308.318 473.596C302.675 476.279 300.041 477.398 300.041 477.398C300.041 477.398 302.724 470.913 305.862 468.002C307.948 466.127 310.28 464.545 312.793 463.3L306.981 433.321C306.981 433.321 296.239 404.898 296.012 403.333C295.784 401.769 316.377 390.136 320.624 388.117C324.871 386.097 326 387.899 326 387.899L326.495 406.65Z" fill="#7D7D7D" stroke="#263238" stroke-linecap="round" stroke-linejoin="round"/>
<path d="M320.901 384.949C320.901 384.949 315.535 401.957 315.08 404.195C314.624 406.432 315.08 406.432 316.654 404.858C318.228 403.284 322.248 399.492 322.248 399.492L326.495 406.65L326.267 393.453V385.84C326.267 385.84 326.049 382.711 320.901 384.949Z" fill="#7D7D7D" stroke="#263238" stroke-linecap="round" stroke-linejoin="round"/>
<path d="M310.388 421.649H323.585L323.367 427.015L317.546 429.025L310.16 427.015L310.388 421.649Z" stroke="#263238" stroke-linecap="round" stroke-linejoin="round"/>
<path d="M346.632 362.802C346.632 362.802 349.761 376.444 350.434 378.642C351.107 380.84 346.86 389.612 345.484 391.621C344.96 392.493 344.24 393.23 343.38 393.773C342.521 394.316 341.546 394.651 340.534 394.75C338.97 394.75 330.465 391.849 328.445 390.503C326.426 389.156 324.426 387.592 324.426 387.592C323.474 388.026 322.416 388.173 321.382 388.015C320.348 387.856 319.383 387.4 318.605 386.701C315.922 384.236 312.338 381.325 313.229 379.315C313.663 378.329 314.389 377.5 315.31 376.941C316.231 376.381 317.302 376.118 318.377 376.187C320.842 376.187 319.951 375.959 319.951 375.959C319.951 375.959 315.476 369.474 315.476 364.326C315.476 359.178 325.089 355.416 330.683 355.416C334.551 355.577 338.35 356.488 341.87 358.099L346.632 362.802Z" fill="white" stroke="#263238" stroke-linecap="round" stroke-linejoin="round"/>
<path d="M338.802 367.94L342.831 375.553L338.802 378.236L337.01 375.999" stroke="#263238" stroke-linecap="round" stroke-linejoin="round"/>
<path d="M346.188 374.88C346.188 374.88 346.406 376.672 343.723 379.583" stroke="#263238" stroke-linecap="round" stroke-linejoin="round"/>
<path d="M334.554 370.742C334.554 371.791 334.099 372.643 333.564 372.643C333.03 372.643 332.574 371.791 332.574 370.742C332.574 369.692 333.03 368.841 333.564 368.841C334.099 368.841 334.554 369.692 334.554 370.742Z" fill="#263238"/>
<path d="M341.594 369.059C342.152 369.059 342.604 368.208 342.604 367.158C342.604 366.108 342.152 365.257 341.594 365.257C341.036 365.257 340.584 366.108 340.584 367.158C340.584 368.208 341.036 369.059 341.594 369.059Z" fill="#263238"/>
<path d="M322.466 351.159C322.466 351.159 308.388 356.307 307.922 362.802C307.457 369.296 320.456 378.236 321.129 379.355C321.803 380.474 323.812 378.009 323.812 378.009C323.365 377.407 323.053 376.717 322.897 375.984C322.742 375.25 322.747 374.492 322.911 373.761C323.585 371.524 326.495 368.811 326.495 367.722C326.495 366.633 323.139 368.613 323.139 365.257C323.139 361.901 331.416 359.891 336.336 360.109C341.257 360.327 345.514 368.613 349.098 364.584C352.682 360.554 347.524 359.445 347.524 359.445C347.524 359.445 354.454 358.545 354.454 354.971C354.454 351.397 350.87 348.921 349.306 348.921C347.741 348.921 343.494 351.614 343.494 348.704C343.494 345.793 347.741 344.447 343.712 339.793C339.682 335.14 334.544 339.793 334.544 341.585C334.544 343.377 333.198 346.724 332.307 346.724C331.416 346.724 328.723 342.704 325.594 344.942C324.654 345.689 323.887 346.633 323.347 347.706C322.806 348.78 322.506 349.958 322.466 351.159Z" fill="#263238" stroke="#263238" stroke-linecap="round" stroke-linejoin="round"/>
<path d="M328.287 368.395L335.445 365.702" stroke="#263238" stroke-linecap="round" stroke-linejoin="round"/>
<path d="M336.565 362.574C336.428 361.872 336.54 361.143 336.881 360.515" stroke="#263238" stroke-linecap="round" stroke-linejoin="round"/>
<path d="M336.881 360.495C337.386 359.505 338.524 358.228 341.039 357.188" stroke="white" stroke-linecap="round" stroke-linejoin="round"/>
</svg>
