<svg width="129" height="170" viewBox="0 0 129 170" fill="none" xmlns="http://www.w3.org/2000/svg">
<path d="M6.97785 48.6392L5.87646 57.7807L6.41996 57.8462L7.52134 48.7047L6.97785 48.6392Z" fill="#7BC678"/>
<path d="M5.47171 61.141L5.06055 64.5486L5.60403 64.6142L6.01519 61.2066L5.47171 61.141Z" fill="#7BC678"/>
<path d="M108.429 141.755L5.80417 129.372C4.06937 129.157 2.4901 128.264 1.41114 126.889C0.332183 125.514 -0.15883 123.767 0.0453044 122.031L13.1341 13.5816C13.3492 11.8468 14.2418 10.2675 15.6172 9.18854C16.9926 8.10958 18.7389 7.61857 20.475 7.82271L123.1 20.2108C124.835 20.4245 126.416 21.3168 127.495 22.6925C128.574 24.0682 129.065 25.8154 128.859 27.5518L115.77 135.996C115.556 137.731 114.664 139.311 113.288 140.391C111.913 141.47 110.166 141.96 108.429 141.755Z" fill="#7BC678"/>
<path opacity="0.3" d="M35.364 23.1709C37.8986 20.1158 37.4767 15.5845 34.4215 13.0499C31.3664 10.5153 26.8351 10.9372 24.3005 13.9923C21.7659 17.0475 22.1878 21.5788 25.2429 24.1134C28.2981 26.648 32.8294 26.226 35.364 23.1709Z" fill="#292D34"/>
<path opacity="0.3" d="M111.456 35.6207C115.426 35.6207 118.644 32.4027 118.644 28.4331C118.644 24.4635 115.426 21.2455 111.456 21.2455C107.487 21.2455 104.269 24.4635 104.269 28.4331C104.269 32.4027 107.487 35.6207 111.456 35.6207Z" fill="#292D34"/>
<path d="M124.193 46.7257L113.455 135.72C113.32 136.842 112.744 137.864 111.856 138.561C110.967 139.258 109.838 139.574 108.716 139.439L6.09127 127.056C4.96986 126.921 3.94813 126.345 3.25085 125.457C2.55358 124.568 2.23786 123.439 2.37317 122.317L13.1112 33.3227L124.193 46.7257Z" fill="white"/>
<path d="M29.6444 20.1451C28.3969 19.9917 27.261 19.3503 26.4853 18.3613C25.7097 17.3722 25.3575 16.1161 25.5059 14.868L26.7978 4.15497C26.9566 2.91105 27.6 1.78011 28.5883 1.00817C29.5765 0.236222 30.8296 -0.114283 32.075 0.0328933C33.3219 0.187659 34.4569 0.82945 35.2323 1.81815C36.0077 2.80686 36.3604 4.06217 36.2135 5.31003L34.9215 16.0176C34.7628 17.2619 34.1195 18.3933 33.1314 19.1661C32.1434 19.939 30.8903 20.2908 29.6444 20.1451Z" fill="#292D34"/>
<path d="M111.265 29.9932C110.018 29.8385 108.883 29.1967 108.107 28.208C107.332 27.2193 106.979 25.964 107.126 24.7161L108.418 14.0086C108.573 12.7616 109.215 11.6266 110.203 10.8512C111.192 10.0759 112.447 9.72313 113.695 9.87006C114.943 10.0234 116.079 10.6649 116.854 11.6539C117.63 12.643 117.982 13.8991 117.834 15.1472L116.542 25.8547C116.387 27.1017 115.745 28.2367 114.757 29.0121C113.768 29.7874 112.513 30.1402 111.265 29.9932Z" fill="#292D34"/>
<path d="M55.926 121.714C51.2697 121.72 46.6348 121.082 42.1529 119.82C36.3612 118.177 32.1516 115.763 29.294 112.424C22.1447 104.065 23.3326 88.5235 27.4602 77.6134C31.7191 66.3529 40.1001 57.731 50.5011 53.9593C58.2909 51.1291 67.2029 50.4613 76.9908 51.9722C87.5451 53.6144 96.052 57.3752 102.276 63.1943C102.396 63.3064 102.492 63.4411 102.56 63.5905C102.628 63.7399 102.665 63.9012 102.671 64.0651C102.676 64.229 102.649 64.3924 102.591 64.5459C102.533 64.6994 102.446 64.84 102.334 64.9597C102.221 65.0794 102.087 65.1758 101.937 65.2435C101.788 65.3112 101.627 65.3488 101.463 65.3541C101.299 65.3594 101.136 65.3324 100.982 65.2746C100.829 65.2168 100.688 65.1294 100.568 65.0172C94.7217 59.543 86.6582 55.9902 76.6076 54.441C67.2412 52.9958 58.7453 53.6199 51.3551 56.3023C41.6548 59.8276 33.7993 67.9131 29.7922 78.5002C26.5569 87.0454 24.2577 102.702 31.1881 110.798C33.7172 113.754 37.5272 115.916 42.8317 117.416C51.7996 119.897 61.2842 119.805 70.2028 117.154C79.1641 114.537 87.6272 109.49 92.8331 103.638C96.6651 99.3624 98.7836 94.244 98.8548 89.2351C98.9259 84.5765 96.5666 79.3432 92.7072 75.5824C89.4227 72.38 85.5908 70.6994 81.9285 70.8527C81.7646 70.8595 81.601 70.834 81.4469 70.7776C81.2929 70.7212 81.1515 70.635 81.0307 70.5239C80.7869 70.2996 80.6422 69.9876 80.6284 69.6566C80.6146 69.3256 80.7329 69.0026 80.9572 68.7588C81.1815 68.515 81.4935 68.3703 81.8245 68.3565C86.2039 68.1813 90.6654 70.1082 94.448 73.7924C98.8274 78.0841 101.428 83.8704 101.351 89.2679C101.269 94.879 98.904 100.572 94.6944 105.296C89.1873 111.482 80.2972 116.792 70.9035 119.529C66.0395 120.963 60.9967 121.698 55.926 121.714Z" fill="#7BC678"/>
<path opacity="0.1" d="M106.995 39.6059L104.208 37.1754L102.068 40.126L102.227 44.4615L99.6757 46.5636C98.6575 47.4176 97.6448 48.2661 96.6211 49.1037C95.5974 49.9412 94.5902 50.7842 93.572 51.5944C93.0629 52.0105 92.5538 52.4046 92.0447 52.7933C91.5356 53.1819 91.021 53.5487 90.5721 53.8388L90.2436 54.0359L89.8385 54.2439C89.5648 54.3753 89.2911 54.5286 89.0174 54.649C88.47 54.9063 87.8843 55.1636 87.2985 55.399C86.1325 55.8643 84.9391 56.3022 83.7239 56.6964C82.7002 57.0358 81.6655 57.3369 80.62 57.627L80.4612 54.8187C78.4838 55.2745 76.5619 55.9445 74.7297 56.8168C74.2863 56.7292 73.821 56.6471 73.3393 56.5705C73.2367 56.4566 73.097 56.3828 72.9451 56.3624C72.7097 56.3296 72.4908 56.3077 72.3375 56.2968C72.2176 56.2889 72.0979 56.3155 71.9926 56.3734L71.3795 56.3022C70.9026 55.721 70.599 55.0171 70.5036 54.2713C71.7984 54.8453 73.2174 55.0821 74.6283 54.9596C76.0393 54.8371 77.3962 54.3592 78.5726 53.5706C79.5152 53.3967 80.3928 52.9696 81.1112 52.3351C81.8296 51.7005 82.3619 50.8825 82.6509 49.9686C82.9801 49.0278 83.1092 48.0287 83.03 47.0351C82.9508 46.0416 82.6651 45.0755 82.1911 44.1988C82.8502 43.0595 83.1933 41.7649 83.185 40.4487C83.1767 39.1325 82.8173 37.8424 82.1439 36.7115C81.4705 35.5806 80.5075 34.6499 79.3543 34.0155C78.201 33.3811 76.8994 33.0659 75.5837 33.1025C75.2736 33.1092 74.9644 33.1385 74.6586 33.1901C73.7812 32.1074 72.5345 31.3871 71.1582 31.1678C69.7819 30.9485 68.3731 31.2457 67.2027 32.0022C67.2629 31.9311 67.3122 31.8654 67.3724 31.7997C68.4672 30.5954 70.2026 30.0425 72.2116 30.2505C72.2289 30.252 72.2463 30.2501 72.2628 30.2448C72.2793 30.2395 72.2946 30.2311 72.3078 30.2199C72.3211 30.2087 72.3319 30.195 72.3398 30.1796C72.3478 30.1642 72.3526 30.1473 72.3539 30.13C72.3554 30.1128 72.3535 30.0954 72.3482 30.0789C72.343 30.0624 72.3345 30.047 72.3233 30.0338C72.3121 30.0206 72.2984 30.0097 72.283 30.0018C72.2676 29.9939 72.2508 29.9891 72.2335 29.9877C70.1424 29.7742 68.3468 30.3545 67.1753 31.63C66.9681 31.8688 66.7847 32.1273 66.6279 32.4018C66.4911 32.4018 66.3542 32.4018 66.2119 32.4018C64.1577 32.4577 62.2098 33.3269 60.7963 34.8185C59.3828 36.31 58.6194 38.3017 58.6739 40.3559C58.6981 41.2966 58.8967 42.2247 59.2596 43.093C58.5746 44.1687 58.2293 45.4258 58.2688 46.7005C58.2908 47.546 58.4792 48.3788 58.8232 49.1515C59.1672 49.9242 59.6601 50.6215 60.2737 51.2036C60.8873 51.7857 61.6096 52.2411 62.3993 52.544C63.189 52.8468 64.0307 52.991 64.8762 52.9684C65.3111 52.956 65.7438 52.9009 66.1681 52.8042C66.1407 54.2111 65.544 55.4318 63.4693 55.815L63.524 55.6234L62.4292 55.1362C62.3737 55.1748 62.3206 55.2169 62.2704 55.2621C60.8809 53.5453 59.2974 51.9949 57.5517 50.6419L57.0371 51.5999C55.9911 49.3058 55.0879 46.9492 54.3328 44.5436C54.2398 44.2426 54.1248 43.8594 54.1084 43.7663C54.092 43.6732 54.1084 43.5747 54.0646 43.4762V43.1313C54.0747 42.578 54.1445 42.0274 54.2726 41.489C54.5698 40.2527 54.9671 39.0425 55.4605 37.8706C55.9477 36.6498 56.5006 35.4291 57.1028 34.2302C57.7049 33.0314 58.2852 31.9092 58.8983 30.787C59.1312 30.7061 59.3536 30.5977 59.5607 30.464L62.5441 28.4659L64.0386 25.6029L60.7541 23.9113L58.3618 27.059C58.3618 27.059 56.8291 28.4659 56.7196 29.9822C55.1012 32.0042 53.6598 34.1617 52.4114 36.4309C51.6991 37.7322 51.1107 39.0976 50.6542 40.5091C50.4009 41.2934 50.2339 42.1029 50.156 42.9233C50.156 43.1532 50.156 43.3776 50.156 43.613C50.1593 43.8582 50.1758 44.1031 50.2053 44.3466C50.2666 44.7596 50.3507 45.169 50.4571 45.5728C51.119 48.3452 52.0126 51.0572 53.1285 53.6801C53.5226 54.6217 53.9332 55.5413 54.3602 56.4555L52.6085 59.74C52.6085 59.74 53.8237 64.0318 55.2416 66.1558C55.351 69.7688 55.6685 74.7284 56.3364 81.5438H56.2816C56.1065 81.5438 55.9641 81.615 55.9696 81.7245L56.0298 83.3065C56.0298 83.4105 56.1612 83.4926 56.32 83.5036C55.6685 87.8337 52.5428 109.123 52.0556 120.964C51.5793 132.651 61.8763 150.387 64.9856 155.451L64.2849 155.774L65.5988 157.602L66.8469 157.082L69.25 161.298L68.8121 161.648C68.7455 161.702 68.6866 161.764 68.6369 161.834C68.3028 161.52 67.8807 161.316 67.4271 161.248C67.3257 161.245 67.2245 161.262 67.1303 161.3C67.036 161.338 66.9506 161.395 66.8797 161.467C66.6717 161.664 66.6991 161.829 66.7593 161.933C66.8961 162.179 67.4052 162.31 67.9198 162.36C67.3286 162.535 66.6717 162.797 66.5403 163.11C66.5156 163.161 66.5056 163.219 66.5114 163.276C66.5172 163.333 66.5386 163.387 66.5732 163.432C66.6213 163.511 66.6878 163.577 66.7669 163.625C66.846 163.673 66.9354 163.7 67.0275 163.706C67.3992 163.673 67.7487 163.515 68.0184 163.257L68.1826 163.115C67.3292 165.173 66.1479 167.079 64.6846 168.759C64.1919 169.361 65.4236 170.68 66.814 169.569C68.2045 168.458 71.1113 165.956 72.1404 165.129C73.8155 163.794 74.5162 163.356 75.8629 162.321C75.9396 162.26 76.0026 162.183 76.0477 162.096C76.0928 162.008 76.119 161.913 76.1247 161.815C76.1303 161.717 76.1153 161.618 76.0806 161.526C76.0459 161.435 75.9922 161.351 75.9231 161.281L73.0765 158.615C73.0233 158.566 72.9558 158.536 72.8839 158.528C72.812 158.52 72.7395 158.535 72.6769 158.571L71.2536 156.097L70.854 155.407L71.9488 154.947L71.2919 152.55L70.5912 152.873C68.949 147.842 61.6683 125.825 62.7905 119.809C62.8452 119.513 62.9054 119.212 62.9602 118.911C63.3981 116.557 63.8634 114.028 64.3342 111.449C64.8743 114.119 65.6061 116.746 66.5239 119.31C68.2702 124.018 88.7875 132.793 94.2343 135.054L93.7143 135.968L95.997 136.45L96.5444 135.525L100.376 137.167L100.212 137.589C100.181 137.666 100.161 137.747 100.152 137.83C99.6738 137.777 99.1906 137.859 98.756 138.065C98.5692 138.171 98.4315 138.346 98.3728 138.552C98.2962 138.826 98.4057 138.935 98.5152 138.985C98.9645 139.025 99.4136 138.906 99.7852 138.651C99.3472 139.122 98.8929 139.702 98.9422 140.019C98.9498 140.073 98.9731 140.124 99.0091 140.165C99.0451 140.205 99.0922 140.235 99.1447 140.249C99.2341 140.281 99.3293 140.293 99.4238 140.284C99.5182 140.276 99.6097 140.247 99.6921 140.2C100.001 139.975 100.229 139.656 100.344 139.291C100.371 139.226 100.393 139.154 100.415 139.089C100.727 140.49 100.727 142.669 100.278 145.45C100.157 146.2 101.964 146.517 102.621 144.864C103.278 143.211 104.559 139.614 105.046 138.388C105.834 136.395 106.234 135.651 106.891 134.085C106.927 133.998 106.942 133.903 106.936 133.809C106.929 133.714 106.9 133.623 106.852 133.541C106.803 133.46 106.737 133.391 106.657 133.34C106.577 133.289 106.487 133.258 106.393 133.248L102.418 132.804C102.33 132.796 102.242 132.816 102.166 132.861C102.091 132.907 102.031 132.975 101.997 133.056L101.948 133.182L99.5334 132.142L98.7998 131.824L99.5662 130.587L97.6393 128.994L97.3273 129.542C92.9972 126.257 82.2787 118.462 78.5124 115.829C77.4176 115.079 76.5198 114.154 76.3665 112.856C74.9323 100.643 74.3137 87.8501 74.1768 84.5984H74.363C74.5655 84.5984 74.7188 84.4944 74.664 84.3685L74.3137 82.7646C74.2845 82.7173 74.2433 82.6787 74.1942 82.6527C74.1451 82.6267 74.09 82.6143 74.0345 82.6168C74.0903 78.0956 74.6429 73.5944 75.6822 69.194C77.5934 68.3888 79.426 67.4084 81.1565 66.2653L80.9265 62.198L81.2714 62.1049C82.5852 61.7272 83.8881 61.2947 85.1909 60.8349C86.4938 60.3751 87.7693 59.844 89.0229 59.2528L89.9754 58.7985L90.9115 58.3003C91.229 58.1416 91.5355 57.939 91.8421 57.7529L92.3074 57.4792L92.8165 57.1288C93.4039 56.7006 93.9686 56.242 94.5081 55.7548C95.0226 55.295 95.5317 54.8351 96.0189 54.3698C97.0098 53.4392 97.9568 52.4867 98.8929 51.5233C99.829 50.5598 100.738 49.5854 101.63 48.6055C102.522 47.6256 103.426 46.6238 104.29 45.5947C104.941 44.8069 105.377 43.8639 105.555 42.8576L106.995 39.6059ZM66.9235 161.834C66.9235 161.834 66.8742 161.746 67.0111 161.61L67.0549 161.571C67.1578 161.491 67.2859 161.45 67.4162 161.456C67.8281 161.524 68.2098 161.715 68.511 162.004C68.484 162.059 68.4603 162.116 68.4399 162.173C67.8541 162.195 67.0658 162.069 66.9235 161.834ZM67.033 163.504C66.9713 163.5 66.9115 163.481 66.8589 163.449C66.8064 163.416 66.7627 163.371 66.7319 163.318C66.7214 163.298 66.7158 163.277 66.7158 163.255C66.7158 163.233 66.7214 163.211 66.7319 163.192C66.7633 163.133 66.8061 163.081 66.8578 163.038C67.3311 162.758 67.847 162.556 68.3851 162.442C68.3851 162.529 68.3413 162.622 68.314 162.715C67.7884 163.23 67.3341 163.52 67.0439 163.504H67.033ZM98.6739 138.826C98.6739 138.826 98.5863 138.782 98.6356 138.607V138.547C98.6885 138.422 98.7808 138.318 98.8984 138.251C99.3005 138.067 99.7455 137.997 100.185 138.049C100.179 138.105 100.179 138.162 100.185 138.218C99.6757 138.585 98.8984 138.93 98.6739 138.826ZM99.6593 140.058C99.602 140.085 99.5393 140.099 99.4759 140.099C99.4124 140.099 99.3498 140.085 99.2925 140.058C99.2706 140.053 99.2508 140.041 99.236 140.025C99.2213 140.008 99.2123 139.987 99.2104 139.965C99.2073 139.901 99.2185 139.837 99.2432 139.778C99.5256 139.282 99.8819 138.832 100.3 138.443L100.382 138.7C100.302 139.225 100.041 139.706 99.6428 140.058H99.6593ZM82.4155 49.881C82.1715 50.6517 81.7457 51.3524 81.174 51.924C80.6024 52.4957 79.9017 52.9215 79.131 53.1655C80.1652 52.3524 80.9949 51.3086 81.5538 50.1176C82.1127 48.9267 82.3853 47.6215 82.3498 46.3063C82.3348 45.7739 82.2688 45.2441 82.1528 44.7243C82.8943 46.3477 82.9825 48.1943 82.3991 49.881H82.4155Z" fill="#292D34"/>
<path d="M48.5685 56.2147C47.1738 53.6349 45.9486 50.9669 44.9008 48.2278C43.8139 45.4812 42.9588 42.6484 42.3443 39.7592C42.2442 39.3389 42.1693 38.913 42.1199 38.4837C42.0954 38.2308 42.0844 37.9768 42.0871 37.7228C42.0871 37.4819 42.1144 37.252 42.1308 37.0166C42.2233 36.1727 42.4068 35.3412 42.6783 34.5368C43.1913 33.091 43.8382 31.6964 44.6107 30.3709C46.0902 27.8451 47.8019 25.4626 49.7236 23.2545L51.5465 24.6066C50.8567 25.7945 50.1615 27.0262 49.521 28.2524C48.8805 29.4786 48.3112 30.6884 47.7638 31.942C47.224 33.1376 46.7828 34.3752 46.4445 35.6426C46.2956 36.1972 46.2057 36.7661 46.1763 37.3396V37.6954C46.1763 37.794 46.1763 37.9089 46.2146 37.9965C46.2529 38.0841 46.335 38.4892 46.4226 38.8067C47.1555 41.446 48.0532 44.0367 49.1105 46.5636C49.6579 47.8337 50.2053 49.0927 50.791 50.3518C51.3768 51.6109 51.9954 52.8645 52.5921 54.0414L48.5685 56.2147Z" fill="#F3C34D"/>
<path d="M56.0573 54.66C56.3802 50.6364 49.4882 45.1622 49.4882 45.1622L44.1782 54.441C44.1782 54.441 45.5413 59.8112 47.1288 61.7162C48.7163 63.6213 55.8328 57.4299 56.0573 54.66Z" fill="#7BC678"/>
<g opacity="0.4">
<path opacity="0.4" d="M56.0573 54.66C56.3802 50.6364 49.4882 45.1622 49.4882 45.1622L44.1782 54.441C44.1782 54.441 45.5413 59.8112 47.1288 61.7162C48.7163 63.6213 55.8328 57.4299 56.0573 54.66Z" fill="white"/>
</g>
<path d="M52.1923 24.404L55.329 22.4278L51.0482 20.8348C51.0482 20.8348 48.8585 22.7234 49.2909 24.5409L49.7124 24.6832C50.1205 24.8245 50.5549 24.8727 50.984 24.8244C51.413 24.7761 51.8259 24.6325 52.1923 24.404Z" fill="#F3C34D"/>
<path d="M56.9495 19.5156L53.5993 17.6707L51.0483 20.8567L55.3292 22.4278L56.9495 19.5156Z" fill="#F3C34D"/>
<path d="M63.2013 158.889L58.9971 160.515L54.4863 152.068L58.2581 149.736L63.2013 158.889Z" fill="#F3C34D"/>
<path d="M58.1648 160.115L62.1774 157.077C62.2457 157.023 62.3312 156.996 62.4179 157.001C62.5047 157.006 62.5865 157.043 62.6482 157.104L65.5112 159.935C65.5807 160.008 65.6338 160.096 65.667 160.191C65.7003 160.287 65.713 160.388 65.7042 160.489C65.6954 160.59 65.6653 160.688 65.616 160.776C65.5667 160.865 65.4993 160.942 65.4181 161.002C64.0003 162.037 63.2667 162.469 61.504 163.805C60.4092 164.626 57.382 167.089 55.882 168.239C54.3821 169.388 53.1778 167.954 53.6923 167.347C56.0353 164.609 57.382 162.294 57.7214 160.778C57.7905 160.513 57.9467 160.28 58.1648 160.115Z" fill="#292D34"/>
<g opacity="0.2">
<path opacity="0.2" d="M54.4863 152.068L56.687 156.19L60.809 154.455L58.2635 149.736L54.4863 152.068Z" fill="#292D34"/>
</g>
<path d="M75.1758 42.7919C75.9494 38.0261 72.7131 33.5354 67.9472 32.7618C63.1813 31.9882 58.6907 35.2246 57.9171 39.9904C57.1435 44.7563 60.3798 49.2469 65.1457 50.0206C69.9116 50.7942 74.4022 47.5578 75.1758 42.7919Z" fill="#292D34"/>
<path d="M71.0729 48.808C71.0366 48.808 71.0018 48.7936 70.9761 48.768C70.9505 48.7423 70.936 48.7075 70.936 48.6712C70.936 48.6349 70.9505 48.6001 70.9761 48.5744C71.0018 48.5487 71.0366 48.5343 71.0729 48.5343C72.02 48.4022 72.9119 48.0099 73.6494 47.4011C74.3868 46.7922 74.9408 45.9906 75.2497 45.0856C76.0818 42.8959 75.7971 40.2245 74.5217 38.7027C74.4966 38.6771 74.4825 38.6427 74.4825 38.6069C74.4825 38.571 74.4966 38.5366 74.5217 38.5111C74.5482 38.4856 74.5835 38.4714 74.6202 38.4714C74.6569 38.4714 74.6922 38.4856 74.7187 38.5111C76.0325 40.104 76.361 42.8904 75.4906 45.1677C75.1624 46.1148 74.5804 46.9536 73.8081 47.5926C73.0359 48.2317 72.103 48.6464 71.1112 48.7916L71.0729 48.808Z" fill="#292D34"/>
<path d="M47.7968 51.1456C47.7968 51.1456 45.6071 51.693 47.5286 78.2812L65.6592 79.8961C66.0095 72.4895 66.3544 67.9295 71.2319 53.0999C68.7585 52.352 66.2336 51.7866 63.6775 51.4083C60.9611 50.9706 58.2172 50.7255 55.4662 50.6748C51.8806 50.6857 47.7968 51.1456 47.7968 51.1456Z" fill="#7BC678"/>
<g opacity="0.4">
<path opacity="0.4" d="M47.7968 51.1456C47.7968 51.1456 45.6071 51.693 47.5286 78.2812L65.6592 79.8961C66.0095 72.4895 66.3544 67.9295 71.2319 53.0999C68.7585 52.352 66.2336 51.7866 63.6775 51.4083C60.9611 50.9706 58.2172 50.7255 55.4662 50.6748C51.8806 50.6857 47.7968 51.1456 47.7968 51.1456Z" fill="white"/>
</g>
<path d="M68.6533 42.8685C72.8769 42.8685 76.3008 39.4447 76.3008 35.2211C76.3008 30.9975 72.8769 27.5736 68.6533 27.5736C64.4297 27.5736 61.0059 30.9975 61.0059 35.2211C61.0059 39.4447 64.4297 42.8685 68.6533 42.8685Z" fill="#292D34"/>
<path d="M63.0589 37.0823C66.2969 37.0823 68.9218 34.4574 68.9218 31.2194C68.9218 27.9814 66.2969 25.3565 63.0589 25.3565C59.8209 25.3565 57.196 27.9814 57.196 31.2194C57.196 34.4574 59.8209 37.0823 63.0589 37.0823Z" fill="#292D34"/>
<path d="M58.8161 30.256C58.7825 30.2562 58.7499 30.2441 58.7247 30.2219C58.6994 30.1997 58.6833 30.1689 58.6792 30.1356C58.5478 29.3609 58.5997 28.5663 58.8307 27.8153C59.0617 27.0643 59.4654 26.3778 60.0095 25.8109C61.2521 24.5354 63.1243 23.9825 65.2811 24.2617C65.2992 24.2638 65.3166 24.2694 65.3324 24.2782C65.3483 24.287 65.3622 24.2989 65.3734 24.3132C65.3846 24.3274 65.3929 24.3438 65.3977 24.3613C65.4025 24.3787 65.4039 24.397 65.4016 24.415C65.3961 24.4508 65.3772 24.4832 65.3488 24.5056C65.3203 24.528 65.2844 24.5386 65.2483 24.5354C63.179 24.2672 61.389 24.7873 60.2065 26.0025C59.6922 26.5398 59.3105 27.1898 59.0919 27.9007C58.8733 28.6116 58.8238 29.3638 58.9475 30.0972C58.9522 30.1327 58.9428 30.1687 58.9213 30.1973C58.8998 30.226 58.8679 30.2451 58.8325 30.2505L58.8161 30.256Z" fill="#292D34"/>
<path d="M57.0262 47.768C60.6995 47.768 63.6773 44.7901 63.6773 41.1168C63.6773 37.4435 60.6995 34.4656 57.0262 34.4656C53.3528 34.4656 50.375 37.4435 50.375 41.1168C50.375 44.7901 53.3528 47.768 57.0262 47.768Z" fill="#292D34"/>
<path d="M58.975 42.5729C63.3951 42.5729 66.9783 38.9897 66.9783 34.5696C66.9783 30.1495 63.3951 26.5663 58.975 26.5663C54.5549 26.5663 50.9717 30.1495 50.9717 34.5696C50.9717 38.9897 54.5549 42.5729 58.975 42.5729Z" fill="#292D34"/>
<path d="M63.6883 42.0693C62.9329 44.6695 61.9804 49.4759 63.6883 51.4083C63.6883 51.4083 62.7249 54.0304 57.8036 53.598C52.3896 53.1162 55.4551 50.6802 55.4551 50.6802C58.4714 50.2368 58.5919 48.0416 58.2579 45.9395L63.6883 42.0693Z" fill="#F3C34D"/>
<path opacity="0.2" d="M61.4493 43.6459L58.2305 45.9286C58.3152 46.4186 58.3573 46.9149 58.3564 47.4121C59.495 47.3519 61.1592 46.2516 61.3836 45.0801C61.4907 44.6098 61.513 44.1241 61.4493 43.6459Z" fill="#292D34"/>
<path d="M67.7774 39.5183C65.5111 43.3503 64.6297 44.9925 61.597 46.0162C57.0315 47.5271 52.8383 43.9032 53.9058 39.48C54.8802 35.4948 58.4274 29.9056 63.0969 30.3162C64.1281 30.4012 65.1204 30.7486 65.9795 31.3254C66.8385 31.9021 67.5357 32.6891 68.0048 33.6113C68.4738 34.5336 68.6992 35.5605 68.6594 36.5944C68.6196 37.6283 68.316 38.6349 67.7774 39.5183Z" fill="#F3C34D"/>
<path d="M68.3359 42.9562C70.7757 42.9562 72.7536 40.1229 72.7536 36.628C72.7536 33.133 70.7757 30.2998 68.3359 30.2998C65.8961 30.2998 63.9182 33.133 63.9182 36.628C63.9182 40.1229 65.8961 42.9562 68.3359 42.9562Z" fill="#292D34"/>
<path d="M63.6827 26.9003C66.8249 27.5134 69.0967 29.4458 68.7518 31.2194C68.407 32.9931 65.5823 33.9565 62.4346 33.3325C59.2869 32.7084 57.0206 30.787 57.3655 29.0133C57.7104 27.2397 60.5351 26.3091 63.6827 26.9003Z" fill="#292D34"/>
<path d="M47.5285 78.2812C47.5285 78.2812 42.8754 104.01 41.9557 117.646C40.9977 131.835 55.2252 155.079 55.2252 155.079L60.5297 152.178C60.6392 152.26 51.5684 123.755 53.0738 116.748C56.2708 101.859 60.8034 79.4637 60.8034 79.4637L47.5285 78.2812Z" fill="#292D34"/>
<path d="M61.5587 153.283L54.9294 155.856L53.6211 153.929L60.9511 150.793L61.5587 153.283Z" fill="#7BC678"/>
<path opacity="0.2" d="M55.3181 88.3209C57.2286 85.6714 58.4165 85.8958 59.1172 87.7461C57.557 95.3662 55.1976 106.824 53.2707 115.84C51.831 108.926 49.4059 96.472 55.3181 88.3209Z" fill="#292D34"/>
<path d="M95.3292 132.651L92.8384 136.379L83.2969 131.972L85.7931 128.244L95.3292 132.651Z" fill="#F3C34D"/>
<path d="M91.2563 136.16L93.238 131.529C93.2734 131.445 93.3356 131.375 93.4149 131.331C93.4941 131.286 93.5859 131.269 93.6759 131.282L97.7652 131.83C97.8629 131.842 97.9566 131.876 98.0384 131.931C98.1203 131.986 98.188 132.059 98.236 132.145C98.2841 132.231 98.3111 132.327 98.3149 132.426C98.3187 132.524 98.2991 132.622 98.2578 132.711C97.5352 134.315 97.1028 135.065 96.2324 137.091C95.685 138.344 94.2945 141.979 93.5555 143.709C92.8165 145.439 90.9717 145.023 91.114 144.256C91.7654 140.819 91.7271 138.235 91.2289 136.894C91.1466 136.654 91.1563 136.393 91.2563 136.16Z" fill="#292D34"/>
<g opacity="0.2">
<path opacity="0.2" d="M83.3022 131.972L88.2181 134.244L90.7143 130.516L85.7985 128.244L83.3022 131.972Z" fill="#292D34"/>
</g>
<path d="M52.5428 78.7301C52.5428 78.7301 52.4607 103.266 56.9222 116.349C58.8491 122.009 86.4555 133.959 86.4555 133.959L90.3641 129.328C90.7528 129.405 74.3411 116.71 69.4527 113.097C68.3578 112.292 67.4436 111.307 67.3177 109.966C65.993 95.3279 65.8123 79.9125 65.8123 79.9125L52.5428 78.7301Z" fill="#292D34"/>
<path d="M90.791 128.912L86.8879 134.857L84.5449 134.293L88.8476 127.21L90.791 128.912Z" fill="#7BC678"/>
<path d="M91.355 137.917C91.2285 138.292 90.9847 138.617 90.6598 138.842C90.5716 138.891 90.4738 138.919 90.3733 138.925C90.2729 138.93 90.1725 138.913 90.0795 138.875C90.0265 138.858 89.9793 138.827 89.9435 138.784C89.9077 138.741 89.8846 138.689 89.8769 138.634C89.8003 138.049 91.3933 136.653 91.574 136.499C91.5924 136.486 91.6144 136.479 91.6369 136.479C91.6594 136.479 91.6814 136.486 91.6999 136.499C91.7185 136.508 91.734 136.522 91.7439 136.539C91.7537 136.557 91.7575 136.578 91.7546 136.598C91.6621 137.049 91.5283 137.491 91.355 137.917ZM90.1397 138.399C90.1084 138.458 90.0951 138.524 90.1014 138.591C90.103 138.614 90.1118 138.635 90.1265 138.653C90.1413 138.671 90.1612 138.683 90.1835 138.689C90.2424 138.718 90.3069 138.733 90.3724 138.733C90.4378 138.733 90.5024 138.718 90.5612 138.689C90.9061 138.508 91.2346 137.841 91.4699 136.883C90.9511 137.317 90.5024 137.828 90.1397 138.399Z" fill="#7BC678"/>
<path d="M91.749 136.598L91.7217 136.636C91.2782 137.058 89.9207 137.769 89.4608 137.55C89.3513 137.501 89.2418 137.381 89.3294 137.102C89.3993 136.893 89.5461 136.719 89.74 136.614C90.4133 136.226 91.6286 136.461 91.6779 136.467C91.6958 136.471 91.7123 136.479 91.7258 136.492C91.7392 136.504 91.7492 136.52 91.7545 136.538C91.7578 136.558 91.756 136.579 91.749 136.598ZM89.5594 137.08C89.5579 137.1 89.5579 137.12 89.5594 137.14C89.4991 137.326 89.5594 137.359 89.5922 137.37C89.8714 137.496 90.8896 137.047 91.4261 136.636C90.9007 136.536 90.3577 136.587 89.8604 136.784C89.7298 136.844 89.6249 136.949 89.5648 137.08H89.5594Z" fill="#7BC678"/>
<path d="M61.2139 37.7666C61.0497 38.0895 60.7486 38.2647 60.5351 38.1552C60.3216 38.0458 60.2888 37.7009 60.453 37.3779C60.6172 37.0549 60.9238 36.8797 61.1318 36.9892C61.3398 37.0987 61.3836 37.4436 61.2139 37.7666Z" fill="#292D34"/>
<path d="M57.5789 35.9053C57.4147 36.2228 57.1081 36.398 56.9001 36.2885C56.6921 36.1791 56.6538 35.8342 56.818 35.5112C56.9822 35.1882 57.2888 35.0185 57.4968 35.128C57.7048 35.2375 57.7431 35.5824 57.5789 35.9053Z" fill="#292D34"/>
<path d="M57.579 35.1937L56.9221 34.5696C56.9221 34.5696 57.0097 35.3798 57.579 35.1937Z" fill="#292D34"/>
<path d="M58.1265 36.628C57.4677 37.2142 56.7308 37.7061 55.9368 38.0896C56.0393 38.2916 56.1852 38.4685 56.3641 38.6076C56.5429 38.7468 56.7503 38.8446 56.9714 38.8943L58.1265 36.628Z" fill="#F3C34D"/>
<path d="M58.0718 41.0566C57.9036 40.997 57.7391 40.9275 57.5791 40.8486C57.5552 40.8347 57.5374 40.8124 57.5293 40.786C57.5211 40.7596 57.5233 40.7311 57.5353 40.7062C57.5482 40.6814 57.5702 40.6624 57.5966 40.6532C57.6231 40.6441 57.6521 40.6454 57.6776 40.657C58.073 40.8724 58.5137 40.9911 58.9637 41.0035C59.4138 41.0158 59.8603 40.9215 60.2669 40.7281C60.2909 40.7143 60.3193 40.7106 60.346 40.7178C60.3727 40.725 60.3955 40.7425 60.4092 40.7665C60.423 40.7904 60.4267 40.8189 60.4196 40.8456C60.4124 40.8722 60.3949 40.895 60.3709 40.9088C60.0168 41.0852 59.631 41.1891 59.2362 41.2145C58.8414 41.2399 58.4455 41.1862 58.0718 41.0566Z" fill="#292D34"/>
<path d="M66.9892 43.6897C66.3519 44.2646 65.5149 44.5672 64.6572 44.5327C63.5186 44.4725 63.3106 43.3612 63.9346 42.4799C64.482 41.6861 65.7575 40.761 66.7538 41.2537C66.9691 41.3663 67.1528 41.5309 67.2885 41.7324C67.4241 41.934 67.5074 42.1662 67.5308 42.408C67.5541 42.6498 67.5169 42.8936 67.4223 43.1174C67.3278 43.3412 67.1789 43.5379 66.9892 43.6897Z" fill="#F3C34D"/>
<path d="M62.7796 37.3451C62.7368 37.3312 62.6994 37.3042 62.6729 37.2678C62.6463 37.2314 62.6319 37.1876 62.6318 37.1425C62.6318 36.1572 61.6136 35.4181 61.6081 35.4072C61.5851 35.3914 61.5654 35.371 61.5504 35.3475C61.5354 35.3239 61.5253 35.2975 61.5207 35.2699C61.5161 35.2423 61.5171 35.214 61.5236 35.1868C61.5302 35.1596 61.5422 35.134 61.5589 35.1116C61.5918 35.0662 61.6413 35.0356 61.6966 35.0264C61.7519 35.0172 61.8086 35.0301 61.8545 35.0623C61.9038 35.1006 63.0643 35.9437 63.0588 37.1425C63.0588 37.1991 63.0363 37.2534 62.9963 37.2935C62.9562 37.3335 62.9019 37.356 62.8453 37.356L62.7796 37.3451Z" fill="#292D34"/>
<path d="M57.0699 33.2339C57.0253 33.2212 56.986 33.1943 56.9581 33.1572C56.9302 33.1202 56.915 33.075 56.915 33.0287C56.915 32.9823 56.9302 32.9371 56.9581 32.9001C56.986 32.863 57.0253 32.8361 57.0699 32.8234C57.3976 32.7419 57.7401 32.7411 58.0681 32.8212C58.3961 32.9013 58.6998 33.0599 58.953 33.2832C58.9732 33.3022 58.9894 33.325 59.0004 33.3505C59.0114 33.3759 59.0171 33.4033 59.0171 33.431C59.0171 33.4587 59.0114 33.4861 59.0004 33.5116C58.9894 33.537 58.9732 33.5599 58.953 33.5788C58.9336 33.5992 58.9102 33.6154 58.8844 33.6265C58.8585 33.6376 58.8306 33.6433 58.8025 33.6433C58.7743 33.6433 58.7465 33.6376 58.7206 33.6265C58.6947 33.6154 58.6714 33.5992 58.6519 33.5788C58.4483 33.4065 58.2064 33.2853 57.9465 33.2253C57.6866 33.1653 57.416 33.1683 57.1575 33.2339C57.1285 33.2393 57.0988 33.2393 57.0699 33.2339Z" fill="#292D34"/>
<path d="M68.6973 54.0688C69.9454 53.806 71.2811 53.5213 72.562 53.1929C73.843 52.8644 75.1404 52.5415 76.394 52.1583C77.6476 51.7751 78.9067 51.3645 80.1219 50.9156C80.735 50.6857 81.3263 50.4394 81.912 50.1875C82.2131 50.0671 82.4594 49.9193 82.7769 49.7879L83.2039 49.5854L83.5433 49.3938C84.0196 49.1091 84.567 48.7259 85.098 48.3537C85.629 47.9814 86.1928 47.5763 86.7019 47.1603C87.7968 46.3501 88.8478 45.518 89.9208 44.6695C90.9937 43.821 92.0721 42.989 93.1396 42.1295L96.3858 39.6059L97.9295 41.2482C97.0099 42.2883 96.0519 43.2791 95.0994 44.2809C94.1469 45.2827 93.1615 46.2516 92.1707 47.2205C91.1798 48.1895 90.1726 49.142 89.127 50.0781C88.607 50.5488 88.0705 51.0087 87.5231 51.4685C86.9553 51.9584 86.3614 52.4171 85.744 52.8425L85.1965 53.1874L84.7093 53.4611C84.3863 53.6363 84.0634 53.8388 83.7349 54.0085L82.7496 54.5012L81.7587 54.9446C80.4285 55.5194 79.0928 56.0395 77.7352 56.4719C76.3776 56.9044 75.0254 57.3204 73.6569 57.6708C72.2883 58.0211 70.9198 58.3332 69.4801 58.5795L68.6973 54.0688Z" fill="#F3C34D"/>
<path d="M66.2011 65.4551C71.1279 63.5446 73.4544 61.9681 73.4544 61.9681L73.0931 50.1273C73.0931 50.1273 67.4711 51.1729 64.1866 53.7786C62.1502 55.3826 64.1866 66.2379 66.2011 65.4551Z" fill="#7BC678"/>
<g opacity="0.4">
<path opacity="0.4" d="M66.2011 65.4551C71.1279 63.5446 73.4544 61.9681 73.4544 61.9681L73.0931 50.1273C73.0931 50.1273 67.4711 51.1729 64.1866 53.7786C62.1502 55.3826 64.1866 66.2379 66.2011 65.4551Z" fill="white"/>
</g>
<path d="M56.0681 56.2147C56.0681 56.2147 58.214 56.3515 58.2578 59.1105C61.1208 58.0157 65.2812 54.8187 65.8505 52.3444C65.8721 52.2536 65.8749 52.1594 65.8587 52.0676C65.8425 51.9757 65.8077 51.8881 65.7564 51.8102C65.7052 51.7323 65.6385 51.6656 65.5605 51.6144C65.4826 51.5632 65.395 51.5284 65.3031 51.5123C65.0622 51.474 64.8378 51.4466 64.679 51.4302C64.5315 51.4158 64.3834 51.4504 64.2575 51.5287L60.8143 53.6308L56.0681 56.2147Z" fill="white"/>
<path d="M54.7106 53.1327L55.5591 50.4722L54.4205 49.9248C52.9753 50.724 51.136 56.4939 53.249 58.5686C54.4095 55.8315 56.0682 56.1983 56.0682 56.1983L54.7106 53.1327Z" fill="white"/>
<path d="M63.6772 51.4138C60.9615 50.9707 58.2172 50.7255 55.4659 50.6802H54.9185C54.1521 51.8681 53.7525 53.9648 55.4987 56.5979C55.4987 56.5979 62.6152 54.4574 64.7721 51.578C64.3998 51.5178 64.0385 51.4904 63.6772 51.4138Z" fill="#F3C34D"/>
<path d="M57.2725 161.757C56.9876 162.017 56.6226 162.172 56.2379 162.195C56.1419 162.189 56.0491 162.158 55.9679 162.106C55.8867 162.055 55.8195 161.984 55.7726 161.9C55.7448 161.848 55.7302 161.791 55.7302 161.733C55.7302 161.674 55.7448 161.617 55.7726 161.566C56.0299 160.991 58.006 160.641 58.225 160.602C58.2474 160.599 58.2703 160.603 58.2908 160.612C58.3112 160.622 58.3283 160.638 58.34 160.657C58.3533 160.674 58.3605 160.696 58.3605 160.717C58.3605 160.739 58.3533 160.76 58.34 160.778C58.0158 161.137 57.6583 161.465 57.2725 161.757ZM56.0736 161.5C56.0151 161.538 55.9678 161.591 55.9368 161.653C55.9247 161.673 55.9183 161.696 55.9183 161.719C55.9183 161.742 55.9247 161.765 55.9368 161.785C55.967 161.84 56.0103 161.887 56.0628 161.921C56.1153 161.955 56.1754 161.976 56.2379 161.982C56.6046 162.015 57.2178 161.604 57.9075 160.887C57.2648 160.994 56.6447 161.208 56.0736 161.522V161.5Z" fill="#7BC678"/>
<path d="M58.2797 160.794C58.2671 160.797 58.2539 160.797 58.2413 160.794C57.6939 160.925 56.2433 160.794 56.0024 160.34C55.9477 160.23 55.9258 160.06 56.1393 159.858C56.2165 159.785 56.3079 159.729 56.4077 159.693C56.5076 159.658 56.6137 159.643 56.7195 159.65C57.4531 159.683 58.2632 160.58 58.2961 160.619C58.3052 160.635 58.31 160.653 58.31 160.671C58.31 160.689 58.3052 160.707 58.2961 160.723C58.2983 160.735 58.298 160.748 58.2951 160.76C58.2923 160.772 58.2871 160.784 58.2797 160.794ZM56.3363 159.989L56.2871 160.033C56.1447 160.164 56.1776 160.23 56.1885 160.257C56.3363 160.526 57.3655 160.701 58.0005 160.635C57.6577 160.257 57.2066 159.993 56.7086 159.88C56.5753 159.87 56.4429 159.909 56.3363 159.989Z" fill="#7BC678"/>
<path d="M61.2195 37.055L60.5571 36.4364C60.5571 36.4364 60.6447 37.2575 61.2195 37.055Z" fill="#292D34"/>
<path d="M66.0257 78.8614L66.3432 80.5037C66.3979 80.6351 66.2337 80.75 66.0257 80.7336L47.3641 79.0914C47.1999 79.0914 47.074 78.9819 47.074 78.8833V77.2411C47.074 77.1316 47.2218 77.0495 47.4024 77.0659L65.7629 78.7082C65.8158 78.7106 65.8674 78.7259 65.9131 78.7526C65.9589 78.7792 65.9975 78.8166 66.0257 78.8614Z" fill="#FAFAFA"/>
<path d="M63.3763 80.6898L63.869 80.7336C63.9675 80.7336 64.0442 80.7008 64.0442 80.6351L64.0004 78.5056C64.0004 78.4454 63.9182 78.3852 63.8197 78.3797L63.327 78.3359C63.2285 78.3359 63.1519 78.3688 63.1519 78.4344L63.1957 80.5639C63.1957 80.6241 63.2778 80.6843 63.3763 80.6898Z" fill="#292D34"/>
<path d="M48.7327 79.4089L49.2254 79.4527C49.324 79.4527 49.4006 79.4144 49.4006 79.3542L49.3568 77.2247C49.3568 77.159 49.2747 77.1043 49.1762 77.0933L48.6835 77.0495C48.5849 77.0495 48.5083 77.0878 48.5083 77.1481L48.5521 79.2775C48.5521 79.3158 48.6342 79.3761 48.7327 79.4089Z" fill="#292D34"/>
<path d="M56.0517 80.0384L56.5444 80.0822C56.643 80.0822 56.7251 80.0439 56.7196 79.9837L56.6758 77.8542C56.6758 77.794 56.5937 77.7338 56.5006 77.7283L56.0079 77.6845C55.9094 77.6845 55.8273 77.7174 55.8328 77.7776L55.8711 79.9071C55.8766 79.9563 55.9751 80.0275 56.0517 80.0384Z" fill="#292D34"/>
<path d="M95.8547 40.3942L95.8054 35.555L99.3199 38.4563C99.3199 38.4563 98.7724 41.281 97.0097 41.8449L95.8547 40.3942Z" fill="#F3C34D"/>
<path d="M98.0991 32.5606L100.907 35.1499L99.3199 38.4563L95.8054 35.555L98.0991 32.5606Z" fill="#F3C34D"/>
</svg>
