<svg width="270" height="240" viewBox="0 0 270 240" fill="none" xmlns="http://www.w3.org/2000/svg">
<path d="M154.646 200.299L262.58 201.767L256.725 162.989L154.646 200.299Z" fill="#F5F5F5"/>
<path d="M256.752 163.77L153.652 166.866L154.68 201.085L257.78 197.989L256.752 163.77Z" fill="#EBEBEB"/>
<path d="M243.53 175.577C243.53 175.668 226.264 176.257 204.957 176.894C183.651 177.531 166.379 177.98 166.373 177.895C166.367 177.81 183.639 177.215 204.951 176.578C226.264 175.941 243.53 175.492 243.53 175.577Z" fill="#E0E0E0"/>
<path d="M244.35 184.447C244.35 184.538 227.078 185.126 205.778 185.763C184.477 186.4 167.193 186.849 167.193 186.764C167.193 186.679 184.459 186.091 205.766 185.448C227.072 184.805 244.344 184.362 244.35 184.447Z" fill="#E0E0E0"/>
<path d="M183.651 161.096L223.6 159.895L221.714 161.897L224.698 163.947L221.641 165.792L224.82 168.036L182.947 169.292L185.289 166.805L183.736 164.603L185.829 163.219L183.651 161.096Z" fill="#F5F5F5"/>
<path d="M4.82227 99.9191L12.5331 129.149C16.2095 130.404 19.9648 131.46 24.5816 130.259L46.4218 123.78L35.6534 90.2852L4.82227 99.9191Z" fill="#FAFAFA"/>
<path d="M2.86328 98.8573L10.5741 128.081L22.6226 129.197L44.4871 122.718L35.5326 89.8665L2.86328 98.8573Z" fill="#F5F5F5"/>
<path d="M13.6017 124.799L10.5684 128.087C12.1022 129.009 13.8105 129.604 15.5855 129.834C17.9466 130.078 20.3325 129.872 22.6169 129.227C22.6169 129.227 17.1447 129.203 13.6017 124.799Z" fill="#E0E0E0"/>
<path d="M2.63903 106.064L14.2568 94.9563L11.9393 92.5054L0 103.516L2.63903 106.064Z" fill="#EBEBEB"/>
<path d="M41.4726 95.83L26.9367 88.9685L25.4746 92.014L40.0408 99.2091L41.4726 95.83Z" fill="#EBEBEB"/>
<path d="M34.7435 101.242C34.7435 101.327 29.2289 102.928 22.3735 104.815C15.5181 106.702 9.96096 108.17 9.91242 108.067C9.86389 107.964 15.4271 106.38 22.2885 104.487C29.15 102.594 34.7193 101.157 34.7435 101.242Z" fill="#E0E0E0"/>
<path d="M35.8724 105.749C35.8724 105.834 30.3517 107.436 23.4963 109.328C16.6409 111.221 11.0595 112.683 11.0352 112.598C11.011 112.513 16.556 110.912 23.4114 109.019C30.2668 107.126 35.8481 105.64 35.8724 105.749Z" fill="#E0E0E0"/>
<path d="M37.1046 109.68C37.1046 109.765 31.59 111.367 24.7285 113.26C17.867 115.153 12.2978 116.615 12.2735 116.56C12.2493 116.506 17.7882 114.874 24.6496 112.981C31.5111 111.088 37.0804 109.596 37.1046 109.68Z" fill="#E0E0E0"/>
<path d="M38.13 113.527C38.13 113.606 32.6154 115.207 25.76 117.1C18.9046 118.993 13.3232 120.455 13.2989 120.37C13.2746 120.285 18.8136 118.683 25.675 116.797C32.5365 114.91 38.1118 113.43 38.13 113.527Z" fill="#E0E0E0"/>
<path d="M251.885 205.298C250.993 205.39 250.13 205.66 249.345 206.092C248.56 206.525 247.87 207.111 247.317 207.816C246.216 209.242 245.459 210.903 245.102 212.669C244.308 216.036 244.981 219.949 246.031 223.256C249.61 221.854 251.721 217.929 252.668 215.872C254.166 212.621 254.894 205.832 251.885 205.322" fill="#EBEBEB"/>
<path d="M240.952 227.442C241.47 226.583 241.751 225.602 241.767 224.599C241.783 223.597 241.533 222.608 241.043 221.733C240.54 220.867 239.869 220.111 239.07 219.508C238.271 218.905 237.36 218.467 236.39 218.22C235.956 218.06 235.493 217.996 235.032 218.033C234.571 218.069 234.123 218.206 233.72 218.432C233.384 218.705 233.127 219.062 232.976 219.468C232.824 219.873 232.784 220.312 232.859 220.738C233.018 221.591 233.401 222.387 233.969 223.043C235.789 225.373 237.997 227.29 240.952 227.442Z" fill="#EBEBEB"/>
<path d="M240.898 238.61C240.964 238.382 241.011 238.149 241.037 237.913C241.116 237.415 241.225 236.772 241.353 235.996C241.764 233.887 241.831 231.726 241.553 229.595C241.235 227.452 240.354 225.432 238.999 223.741C238.582 223.24 238.108 222.79 237.585 222.4C237.444 222.292 237.296 222.193 237.142 222.103C237.039 222.036 236.985 222.006 236.979 222.018C237.668 222.557 238.298 223.167 238.859 223.838C240.144 225.529 240.979 227.518 241.286 229.62C241.555 231.726 241.512 233.86 241.158 235.953C241.049 236.766 240.97 237.427 240.922 237.883C240.887 238.124 240.879 238.368 240.898 238.61Z" fill="#E0E0E0"/>
<path d="M250.871 210.418C250.816 210.506 250.771 210.599 250.738 210.697L250.386 211.51C250.089 212.22 249.67 213.257 249.173 214.544C248.16 217.104 246.813 220.665 245.411 224.633C244.01 228.6 242.827 232.216 242.002 234.843C241.595 236.159 241.268 237.227 241.056 237.967C240.958 238.319 240.873 238.574 240.813 238.823C240.78 238.919 240.757 239.019 240.746 239.12C240.796 239.03 240.835 238.934 240.861 238.835L241.146 237.998L242.172 234.897C243.039 232.283 244.247 228.679 245.648 224.711C247.049 220.744 248.366 217.183 249.337 214.61C249.816 213.342 250.204 212.305 250.483 211.577L250.793 210.746C250.836 210.642 250.863 210.531 250.871 210.418Z" fill="#E0E0E0"/>
<path d="M244.963 231.1C245.991 229.258 247.442 227.688 249.198 226.519C250.953 225.35 252.962 224.616 255.058 224.378C256.125 224.269 257.418 224.378 257.921 225.355C258.425 226.331 257.824 227.46 257.12 228.267C255.621 229.934 253.662 231.12 251.49 231.675C249.317 232.23 247.029 232.129 244.914 231.385" fill="#EBEBEB"/>
<path d="M253.534 227.29C253.311 227.282 253.088 227.296 252.867 227.332C252.606 227.356 252.347 227.394 252.091 227.448C251.793 227.514 251.441 227.557 251.071 227.672C250.66 227.774 250.255 227.9 249.858 228.048C249.4 228.207 248.952 228.393 248.517 228.606C246.499 229.565 244.747 231.005 243.415 232.798C243.125 233.187 242.858 233.592 242.614 234.012C242.388 234.373 242.186 234.747 242.008 235.134C241.855 235.448 241.722 235.77 241.607 236.099C241.513 236.343 241.432 236.592 241.365 236.845C241.292 237.055 241.241 237.273 241.213 237.494C241.267 237.494 241.492 236.584 242.165 235.207C242.347 234.832 242.55 234.467 242.772 234.115C243.016 233.705 243.283 233.31 243.573 232.932C244.904 231.185 246.624 229.772 248.596 228.806C249.399 228.414 250.233 228.089 251.09 227.836C252.588 227.423 253.547 227.344 253.534 227.29Z" fill="#E0E0E0"/>
<path d="M268.343 238.738C268.343 238.823 210.515 238.896 139.188 238.896C67.8617 238.896 10.0215 238.823 10.0215 238.738C10.0215 238.653 67.8374 238.58 139.188 238.58C210.539 238.58 268.343 238.647 268.343 238.738Z" fill="#263238"/>
<path d="M135.342 20.099L135.603 24.9524C136.322 24.2589 137.268 23.8475 138.266 23.7937C139.337 23.8169 140.359 24.2438 141.128 24.9888C141.897 25.7338 142.357 26.7419 142.414 27.8112C142.472 28.8806 142.123 29.9321 141.438 30.7554C140.754 31.5786 139.783 32.1127 138.721 32.2507C137.723 32.3028 136.739 31.995 135.948 31.3831L136.209 36.279C136.929 35.5854 137.875 35.1741 138.873 35.1202C139.943 35.1435 140.966 35.5704 141.735 36.3154C142.504 37.0603 142.963 38.0685 143.021 39.1378C143.079 40.2071 142.73 41.2587 142.045 42.0819C141.36 42.9052 140.39 43.4393 139.328 43.5773C138.329 43.6294 137.346 43.3216 136.555 42.7097L136.816 47.6056C137.536 46.9138 138.482 46.5046 139.479 46.4529C140.543 46.4867 141.555 46.9185 142.315 47.6628C143.075 48.4071 143.529 49.4097 143.585 50.4722C143.642 51.5347 143.297 52.5797 142.62 53.4003C141.943 54.221 140.982 54.7576 139.928 54.9038C138.932 54.9578 137.949 54.6497 137.162 54.0363L137.423 58.9321C138.143 58.2403 139.089 57.8312 140.086 57.7795C141.149 57.8133 142.161 58.245 142.922 58.9893C143.682 59.7336 144.135 60.7363 144.192 61.7988C144.248 62.8613 143.904 63.9062 143.227 64.7269C142.549 65.5476 141.589 66.0841 140.535 66.2304C139.538 66.2855 138.555 65.9772 137.768 65.3629L138.029 70.2648C138.748 69.5689 139.694 69.1572 140.693 69.106C141.756 69.1398 142.768 69.5716 143.528 70.3159C144.289 71.0602 144.742 72.0628 144.798 73.1253C144.855 74.1878 144.51 75.2328 143.833 76.0535C143.156 76.8741 142.195 77.4107 141.142 77.557C140.146 77.6138 139.163 77.3077 138.375 76.6955L138.636 81.5914C139.356 80.8978 140.301 80.4865 141.299 80.4326C142.37 80.4572 143.391 80.885 144.159 81.6305C144.928 82.376 145.386 83.3841 145.443 84.4531C145.499 85.5221 145.15 86.5731 144.465 87.3957C143.78 88.2184 142.81 88.7519 141.748 88.8896C140.752 88.9414 139.77 88.6335 138.982 88.0221L139.146 91.0555L269.617 87.9493L263.004 11.9514L135.342 20.099Z" fill="#EBEBEB"/>
<path d="M132.461 16.9564L132.722 21.8401C133.444 21.1567 134.386 20.7543 135.379 20.7056C136.45 20.7289 137.472 21.1557 138.241 21.9007C139.01 22.6457 139.47 23.6538 139.527 24.7232C139.585 25.7925 139.236 26.8441 138.551 27.6673C137.867 28.4906 136.896 29.0246 135.834 29.1626C134.838 29.2144 133.856 28.9065 133.068 28.2951L133.328 33.1909C133.915 32.6287 134.651 32.2467 135.449 32.0903C136.246 31.9339 137.072 32.0096 137.828 32.3085C138.584 32.6074 139.238 33.1168 139.713 33.7764C140.187 34.436 140.463 35.218 140.507 36.0296C140.55 36.8412 140.36 37.6482 139.959 38.3549C139.557 39.0616 138.962 39.6383 138.242 40.0165C137.523 40.3947 136.71 40.5585 135.9 40.4886C135.091 40.4186 134.318 40.1177 133.674 39.6217L133.935 44.5175C134.653 43.8257 135.597 43.4163 136.592 43.3648C137.656 43.3974 138.669 43.8282 139.43 44.5721C140.192 45.3159 140.646 46.3184 140.703 47.3812C140.76 48.444 140.416 49.4896 139.739 50.3108C139.062 51.1321 138.102 51.6692 137.047 51.8158C136.049 51.8696 135.065 51.5615 134.275 50.9482L134.542 55.8501C135.258 55.1542 136.202 54.7424 137.199 54.6914C138.263 54.724 139.276 55.1548 140.037 55.8986C140.798 56.6425 141.252 57.645 141.31 58.7078C141.367 59.7706 141.023 60.8161 140.346 61.6374C139.669 62.4587 138.708 62.9958 137.654 63.1424C136.655 63.1972 135.671 62.8891 134.882 62.2748L135.149 67.1767C135.866 66.4831 136.809 66.0717 137.806 66.018C138.876 66.0412 139.899 66.4681 140.668 67.2131C141.437 67.9581 141.897 68.9662 141.954 70.0355C142.012 71.1049 141.663 72.1565 140.978 72.9797C140.293 73.8029 139.323 74.337 138.261 74.475C137.262 74.5271 136.279 74.2193 135.488 73.6075L135.749 78.5033C136.469 77.8098 137.414 77.3984 138.412 77.3446C139.483 77.3678 140.505 77.7947 141.275 78.5397C142.044 79.2847 142.503 80.2928 142.561 81.3621C142.618 82.4314 142.27 83.483 141.585 84.3063C140.9 85.1295 139.929 85.6636 138.867 85.8016C137.869 85.8537 136.885 85.5459 136.095 84.934L136.259 87.9674L266.693 80.9846L262.896 10.0039L132.461 16.9564Z" fill="#F5F5F5"/>
<path d="M263.654 24.0242C263.654 24.1091 234.46 25.741 198.442 27.6642C162.424 29.5873 133.213 31.0919 133.213 31.0191C133.213 30.9463 162.4 29.3022 198.424 27.3791C234.448 25.4559 263.648 23.9392 263.654 24.0242Z" fill="#E0E0E0"/>
<path d="M264.261 35.3811C264.261 35.466 235.068 37.1041 199.05 39.0211C163.032 40.9382 133.826 42.4428 133.82 42.3578C133.814 42.2729 163.007 40.6349 199.038 38.7178C235.068 36.8007 264.255 35.2962 264.261 35.3811Z" fill="#E0E0E0"/>
<path d="M264.866 46.738C264.866 46.829 235.673 48.461 199.655 50.3781C163.637 52.2952 134.432 53.7997 134.426 53.7148C134.42 53.6298 163.613 51.9918 199.643 50.0747C235.673 48.1577 264.86 46.6531 264.866 46.738Z" fill="#E0E0E0"/>
<path d="M265.474 58.095C265.474 58.186 236.281 59.8179 200.269 61.735C164.257 63.6521 135.039 65.1506 135.033 65.0657C135.027 64.9807 164.22 63.3427 200.251 61.4256C236.281 59.5085 265.468 58.0101 265.474 58.095Z" fill="#E0E0E0"/>
<path d="M266.079 69.458C266.079 69.543 236.886 71.1749 200.874 73.0981C164.862 75.0212 135.645 76.5197 135.639 76.4348C135.633 76.3498 164.832 74.7179 200.856 72.7947C236.88 70.8716 266.079 69.367 266.079 69.458Z" fill="#E0E0E0"/>
<path d="M150.74 15.9816L150.438 15.9978L154.233 86.9924L154.536 86.9762L150.74 15.9816Z" fill="#7BC678"/>
<path d="M166.21 86.3478C166.125 86.3478 165.202 70.4591 164.153 50.8575C163.103 31.2559 162.333 15.355 162.412 15.355C162.491 15.355 163.419 31.2316 164.468 50.8453C165.518 70.4591 166.301 86.3417 166.21 86.3478Z" fill="#E0E0E0"/>
<path d="M142.993 87.5854C142.902 87.5854 141.98 71.7027 140.93 52.1011C139.881 32.4995 139.11 16.5986 139.189 16.5925C139.268 16.5865 140.202 32.4752 141.246 52.0829C142.289 71.6905 143.078 87.5854 142.993 87.5854Z" fill="#E0E0E0"/>
<path d="M178.926 85.6623C178.841 85.6623 177.919 69.7796 176.87 50.178C175.82 30.5764 175.05 14.6755 175.129 14.6694C175.207 14.6634 176.136 30.5521 177.185 50.1598C178.235 69.7674 179.017 85.6623 178.926 85.6623Z" fill="#E0E0E0"/>
<path d="M191.647 85.0131C191.556 85.0131 190.64 69.1304 189.59 49.5288C188.541 29.9272 187.77 14.0263 187.849 14.0203C187.928 14.0142 188.856 29.903 189.906 49.5106C190.955 69.1183 191.732 85.0131 191.647 85.0131Z" fill="#E0E0E0"/>
<path d="M204.364 84.3031C204.279 84.3031 203.357 68.4204 202.307 48.8189C201.258 29.2173 200.487 13.3164 200.566 13.3103C200.645 13.3042 201.573 29.193 202.623 48.8007C203.672 68.4083 204.449 84.2971 204.364 84.3031Z" fill="#E0E0E0"/>
<path d="M217.079 83.6237C216.994 83.6237 216.072 67.741 215.022 48.1394C213.973 28.5378 213.202 12.6369 213.281 12.6309C213.36 12.6248 214.288 28.5135 215.338 48.1212C216.387 67.7289 217.17 83.6176 217.079 83.6237Z" fill="#E0E0E0"/>
<path d="M229.801 82.9442C229.71 82.9442 228.788 67.0555 227.745 47.4539C226.701 27.8523 225.925 11.9575 226.004 11.9514C226.082 11.9454 227.011 27.8341 228.06 47.4418C229.11 67.0494 229.886 82.9382 229.801 82.9442Z" fill="#E0E0E0"/>
<path d="M242.516 82.2648C242.431 82.2648 241.509 66.376 240.46 46.7745C239.41 27.1729 238.64 11.272 238.718 11.272C238.797 11.272 239.726 27.1486 240.775 46.7623C241.825 66.376 242.601 82.2587 242.516 82.2648Z" fill="#E0E0E0"/>
<path d="M255.233 81.5793C255.148 81.5793 254.226 65.6966 253.176 46.095C252.127 26.4934 251.356 10.5925 251.435 10.5864C251.514 10.5804 252.442 26.4691 253.492 46.0768C254.541 65.6844 255.324 81.5793 255.233 81.5793Z" fill="#E0E0E0"/>
<path d="M253.65 38.5903C253.571 38.5995 253.492 38.5995 253.413 38.5903L252.722 38.6389L250.052 38.8087L240.242 39.3729C231.955 39.834 220.507 40.4407 207.858 41.0656C195.209 41.6904 183.755 42.2122 175.462 42.5276C171.312 42.6854 167.957 42.7885 165.634 42.831C163.31 42.8734 161.994 42.831 162.042 42.746C162.347 42.7943 162.657 42.8045 162.964 42.7764C163.571 42.7764 164.475 42.746 165.634 42.7096C167.951 42.6308 171.306 42.4912 175.45 42.3032L207.846 40.7501L240.23 39.1545L250.046 38.6874L252.716 38.5782H253.413C253.492 38.5755 253.571 38.5796 253.65 38.5903Z" fill="#263238"/>
<path d="M256.271 51.5611C256.271 51.6521 235.225 52.6835 209.26 53.8786C183.294 55.0738 162.236 55.9656 162.236 55.8928C162.236 55.82 183.282 54.7704 209.253 53.5813C235.225 52.3923 256.271 51.4762 256.271 51.5611Z" fill="#263238"/>
<path d="M257.683 62.9179C257.683 63.0089 236.638 64.0463 210.672 65.2354C184.706 66.4245 163.643 67.3224 163.637 67.2314C163.631 67.1404 184.682 66.109 210.654 64.9199C236.625 63.7309 257.677 62.833 257.683 62.9179Z" fill="#263238"/>
<path d="M147.068 24.4003C147.639 27.2214 148.888 30.0849 151.236 31.7168C152.251 32.4177 153.423 32.8559 154.649 32.9924C155.874 33.1289 157.114 32.9593 158.258 32.4989C159.402 32.0384 160.414 31.3014 161.203 30.354C161.992 29.4065 162.534 28.2781 162.78 27.0698C163.026 25.8616 162.969 24.6111 162.613 23.4305C162.257 22.2499 161.614 21.176 160.741 20.305C159.868 19.4339 158.793 18.7929 157.612 18.4393C156.431 18.0857 155.18 18.0307 153.972 18.279" fill="#E0E0E0"/>
<path d="M146.747 24.3821C146.811 25.5536 147.221 26.6798 147.925 27.6183C148.629 28.5569 149.596 29.2656 150.702 29.655C151.809 30.0444 153.007 30.0969 154.143 29.8059C155.28 29.5148 156.305 28.8934 157.088 28.02C157.872 27.1467 158.378 26.0607 158.545 24.8993C158.711 23.7379 158.529 22.5532 158.023 21.4951C157.516 20.4369 156.707 19.5528 155.698 18.9544C154.688 18.356 153.524 18.0703 152.353 18.1333C151.574 18.1752 150.812 18.3701 150.109 18.7069C149.405 19.0436 148.776 19.5157 148.255 20.096C147.734 20.6763 147.333 21.3535 147.075 22.089C146.816 22.8244 146.705 23.6036 146.747 24.3821Z" fill="#455A64"/>
<path d="M143.337 22.1859C143.375 22.889 143.621 23.565 144.044 24.1285C144.466 24.692 145.046 25.1176 145.71 25.3516C146.374 25.5856 147.093 25.6174 147.775 25.4431C148.457 25.2688 149.072 24.8962 149.543 24.3723C150.013 23.8484 150.318 23.1967 150.418 22.4998C150.518 21.8028 150.41 21.0917 150.106 20.4565C149.802 19.8212 149.317 19.2903 148.711 18.9308C148.106 18.5713 147.407 18.3993 146.704 18.4367C146.237 18.4615 145.779 18.5782 145.357 18.7801C144.935 18.982 144.556 19.2651 144.244 19.6134C143.931 19.9616 143.69 20.368 143.534 20.8094C143.379 21.2508 143.312 21.7186 143.337 22.1859Z" fill="#455A64"/>
<path d="M146.656 25.4802C147.106 25.4792 147.553 25.4284 147.991 25.3286C148.505 25.1841 148.978 24.9212 149.372 24.5609C149.766 24.2005 150.07 23.7529 150.26 23.2537C150.426 22.7454 150.477 22.2068 150.411 21.6762C150.345 21.1457 150.163 20.6362 149.878 20.184C149.616 19.8145 149.32 19.4711 148.992 19.1587C148.992 19.1587 149.132 19.1951 149.332 19.3286C149.616 19.5261 149.862 19.7726 150.06 20.0566C150.396 20.5288 150.617 21.0738 150.703 21.6472C150.79 22.2207 150.74 22.8064 150.557 23.3569C150.338 23.9619 149.951 24.4921 149.441 24.8857C149.031 25.207 148.554 25.433 148.046 25.547C147.708 25.625 147.358 25.6394 147.014 25.5894C146.778 25.5591 146.65 25.4984 146.656 25.4802Z" fill="#263238"/>
<path d="M149.636 19.8139C150.308 20.0396 151.03 20.0752 151.722 19.9168C152.413 19.7584 153.048 19.412 153.555 18.916C153.585 18.916 153.482 19.1708 153.191 19.462C152.805 19.841 152.322 20.1058 151.796 20.2268C151.269 20.3478 150.718 20.3204 150.206 20.1476C149.818 20.0141 149.618 19.8503 149.636 19.8139Z" fill="#263238"/>
<path d="M150.551 28.8352C150.446 28.6021 150.361 28.3606 150.296 28.1133C150.093 27.5505 149.76 27.0433 149.325 26.6324C148.89 26.2215 148.364 25.9183 147.791 25.7473C147.354 25.6077 147.057 25.5835 147.063 25.5349C147.069 25.4864 147.366 25.4439 147.845 25.5349C148.481 25.6591 149.069 25.9609 149.54 26.4054C150.012 26.85 150.347 27.419 150.509 28.0466C150.624 28.5258 150.593 28.8292 150.551 28.8352Z" fill="#263238"/>
<path d="M247.328 20.2142C247.904 23.0353 249.148 25.8927 251.496 27.4943C252.854 28.4274 254.483 28.8845 256.128 28.7941C257.773 28.7036 259.342 28.0709 260.589 26.9946C261.837 25.9183 262.693 24.4591 263.023 22.8449C263.354 21.2308 263.14 19.5527 262.416 18.0727C261.66 16.6165 260.458 15.4406 258.985 14.7168C257.512 13.9931 255.847 13.7596 254.232 14.0504" fill="#E0E0E0"/>
<path d="M258.788 18.6066C258.848 19.7387 258.57 20.8632 257.991 21.8377C257.412 22.8122 256.556 23.593 255.533 24.0815C254.51 24.57 253.365 24.7441 252.243 24.582C251.121 24.4198 250.072 23.9286 249.229 23.1705C248.386 22.4123 247.787 21.4213 247.507 20.3226C247.228 19.224 247.28 18.067 247.658 16.9981C248.035 15.9291 248.721 14.9961 249.629 14.317C250.537 13.6379 251.626 13.2433 252.758 13.1829C253.51 13.1428 254.263 13.2513 254.973 13.5023C255.683 13.7532 256.337 14.1416 256.897 14.6452C257.457 15.1489 257.912 15.758 258.237 16.4377C258.561 17.1174 258.749 17.8544 258.788 18.6066Z" fill="#7BC678"/>
<path d="M258.407 19.7715C260.306 19.7715 261.846 18.2314 261.846 16.3317C261.846 14.4319 260.306 12.8918 258.407 12.8918C256.507 12.8918 254.967 14.4319 254.967 16.3317C254.967 18.2314 256.507 19.7715 258.407 19.7715Z" fill="#7BC678"/>
<path d="M258.993 19.6502C258.993 19.6502 258.884 19.7351 258.654 19.7958C258.329 19.8802 257.992 19.9028 257.659 19.8625C257.159 19.8078 256.678 19.642 256.251 19.3772C255.727 19.0475 255.306 18.5765 255.038 18.0182C254.806 17.5085 254.697 16.9512 254.72 16.3916C254.743 15.8319 254.898 15.2856 255.171 14.7968C255.369 14.3767 255.699 14.0334 256.112 13.8201C255.835 14.1586 255.587 14.5198 255.371 14.8999C255.145 15.3634 255.023 15.8711 255.014 16.3869C255.006 16.9028 255.111 17.4142 255.323 17.8848C255.557 18.343 255.894 18.7405 256.307 19.0459C256.721 19.3513 257.2 19.5561 257.707 19.6441C258.134 19.692 258.566 19.694 258.993 19.6502Z" fill="#263238"/>
<path d="M255.542 14.5177C255.542 14.5177 255.391 14.73 255.033 14.8999C254.558 15.1206 254.031 15.2047 253.512 15.1425C252.992 15.0803 252.5 14.8745 252.09 14.548C251.781 14.2993 251.66 14.0809 251.69 14.0566C252.254 14.4331 252.887 14.6948 253.553 14.8271C254.229 14.8498 254.904 14.7449 255.542 14.5177Z" fill="#263238"/>
<path d="M255.591 23.278C255.5 23.0355 255.485 22.7709 255.548 22.5197C255.64 21.8988 255.905 21.3163 256.313 20.8392C256.717 20.3616 257.25 20.01 257.848 19.8261C258.309 19.6865 258.606 19.7108 258.606 19.7472C258.606 19.7836 258.333 19.8564 257.927 20.0323C257.396 20.259 256.925 20.6053 256.55 21.0442C256.176 21.483 255.907 22.0025 255.767 22.5622C255.664 22.9929 255.664 23.278 255.591 23.278Z" fill="#263238"/>
<path d="M44.7349 7.86255L31.5762 73.7715C37.6854 79.8807 44.1586 85.6501 54.5569 87.7735L104.559 96.188L115.728 18.7463L44.7349 7.86255Z" fill="#E0E0E0"/>
<path d="M41.8599 3.82202L28.7012 69.7309L51.6819 83.7329L101.684 92.1475L115.892 17.7816L41.8599 3.82202Z" fill="#7BC678"/>
<path d="M37.9833 66.1516L28.7012 69.731C28.7012 69.731 32.1046 75.191 37.0247 78.1152C41.5104 80.8995 46.4844 82.8059 51.6819 83.733C51.6819 83.733 40.7376 78.3882 37.9833 66.1516Z" fill="#7BC678"/>
<g opacity="0.3">
<path opacity="0.3" d="M37.9833 66.1516C34.4039 68.5783 30.4727 71.6117 28.7012 69.731C28.7012 69.731 32.1046 75.191 37.0247 78.1152C41.5104 80.8995 46.4844 82.8059 51.6819 83.733C51.6819 83.733 40.7376 78.3882 37.9833 66.1516Z" fill="black"/>
</g>
<path d="M34.3729 18.006L68.4255 7.17087L66.1929 0L31.5762 10.3377L34.3729 18.006Z" fill="#E0E0E0"/>
<path d="M121.929 35.4963L99.6039 7.59546L93.707 12.2486L115.772 40.8593L121.929 35.4963Z" fill="#E0E0E0"/>
<path d="M103.207 39.737C103.207 39.822 90.5761 37.5227 75.0331 34.5985C59.4902 31.6743 46.9017 29.2355 46.9199 29.1384C46.9381 29.0414 59.5448 31.3528 75.0938 34.277C90.6428 37.2011 103.225 39.6521 103.207 39.737Z" fill="#263238"/>
<path d="M101.053 49.8261C101.053 49.9111 88.422 47.6118 72.8791 44.6876C57.3361 41.7634 44.7476 39.3246 44.7598 39.2276C44.7719 39.1305 57.3907 41.4419 72.9337 44.3661C88.4766 47.2902 101.065 49.7594 101.053 49.8261Z" fill="#263238"/>
<path d="M99.6699 58.9262C99.6699 59.0112 87.039 56.7119 71.5021 53.7877C55.9652 50.8635 43.3646 48.4247 43.3828 48.3277C43.401 48.2306 56.0138 50.542 71.5567 53.4662C87.0997 56.3903 99.6881 58.817 99.6699 58.9262Z" fill="#263238"/>
<path d="M97.9824 67.5529C97.9824 67.6379 85.3515 65.3386 69.8085 62.4144C54.2656 59.4903 41.6771 57.0514 41.6953 56.9544C41.7135 56.8573 54.3202 59.1687 69.8692 62.0929C85.4182 65.017 98.0006 67.468 97.9824 67.5529Z" fill="#263238"/>
<path d="M150.982 137.97L257.629 151.565L256.198 112.532L150.982 137.97Z" fill="#E0E0E0"/>
<path d="M256.132 113.313L153.754 104.77L150.919 138.747L253.297 147.29L256.132 113.313Z" fill="#455A64"/>
<path d="M241.71 123.506C241.71 123.591 224.547 122.232 203.393 120.473C182.238 118.714 165.094 117.209 165.1 117.118C165.106 117.027 182.262 118.392 203.423 120.151C224.584 121.911 241.741 123.421 241.71 123.506Z" fill="#263238"/>
<path d="M241.534 132.376C241.534 132.461 224.372 131.102 203.217 129.343C182.062 127.583 164.912 126.079 164.924 125.988C164.936 125.897 182.081 127.262 203.241 129.021C224.402 130.78 241.541 132.291 241.534 132.376Z" fill="#263238"/>
<path d="M184.1 102.431L223.771 105.743L221.678 107.515L224.395 109.881L221.162 111.361L224.056 113.933L182.48 110.463L185.077 108.273L183.785 105.919L186.017 104.785L184.1 102.431Z" fill="#EBEBEB"/>
<path d="M135.208 112.962C135.622 113.662 135.844 114.458 135.851 115.271C135.858 116.083 135.65 116.883 135.247 117.589C134.845 118.295 134.263 118.882 133.56 119.291C132.858 119.699 132.059 119.914 131.247 119.914C130.434 119.914 129.636 119.699 128.933 119.291C128.23 118.882 127.648 118.295 127.246 117.589C126.844 116.883 126.635 116.083 126.642 115.271C126.649 114.458 126.871 113.662 127.285 112.962H121.946C122.361 113.662 122.582 114.458 122.589 115.271C122.596 116.083 122.388 116.883 121.985 117.589C121.583 118.295 121.001 118.882 120.298 119.291C119.596 119.699 118.797 119.914 117.985 119.914C117.172 119.914 116.374 119.699 115.671 119.291C114.969 118.882 114.387 118.295 113.984 117.589C113.582 116.883 113.373 116.083 113.38 115.271C113.387 114.458 113.609 113.662 114.023 112.962H108.685C109.099 113.662 109.321 114.458 109.327 115.271C109.334 116.083 109.126 116.883 108.724 117.589C108.321 118.295 107.739 118.882 107.036 119.291C106.334 119.699 105.536 119.914 104.723 119.914C103.91 119.914 103.112 119.699 102.409 119.291C101.707 118.882 101.125 118.295 100.722 117.589C100.32 116.883 100.112 116.083 100.118 115.271C100.125 114.458 100.347 113.662 100.761 112.962H95.4227C95.8369 113.662 96.0587 114.458 96.0656 115.271C96.0724 116.083 95.8641 116.883 95.4617 117.589C95.0593 118.295 94.4773 118.882 93.7746 119.291C93.072 119.699 92.2738 119.914 91.4611 119.914C90.6484 119.914 89.8502 119.699 89.1475 119.291C88.4449 118.882 87.8628 118.295 87.4604 117.589C87.0581 116.883 86.8497 116.083 86.8566 115.271C86.8635 114.458 87.0853 113.662 87.4995 112.962H82.1547C82.569 113.662 82.7908 114.458 82.7976 115.271C82.8045 116.083 82.5962 116.883 82.1938 117.589C81.7914 118.295 81.2093 118.882 80.5067 119.291C79.804 119.699 79.0058 119.914 78.1932 119.914C77.3805 119.914 76.5823 119.699 75.8796 119.291C75.177 118.882 74.5949 118.295 74.1925 117.589C73.7901 116.883 73.5818 116.083 73.5887 115.271C73.5955 114.458 73.8173 113.662 74.2316 112.962H68.8929C69.3071 113.662 69.5289 114.458 69.5358 115.271C69.5426 116.083 69.3343 116.883 68.9319 117.589C68.5296 118.295 67.9475 118.882 67.2448 119.291C66.5422 119.699 65.744 119.914 64.9313 119.914C64.1186 119.914 63.3204 119.699 62.6178 119.291C61.9151 118.882 61.333 118.295 60.9307 117.589C60.5283 116.883 60.32 116.083 60.3268 115.271C60.3337 114.458 60.5555 113.662 60.9697 112.962H57.627V208.21L140.941 212.772L136.968 112.968L135.208 112.962Z" fill="#E0E0E0"/>
<path d="M133.995 110.36C134.419 111.059 134.649 111.859 134.662 112.676C134.675 113.494 134.47 114.3 134.069 115.012C133.668 115.724 133.084 116.317 132.378 116.73C131.673 117.142 130.87 117.36 130.052 117.36C129.234 117.36 128.431 117.142 127.726 116.73C127.02 116.317 126.436 115.724 126.035 115.012C125.634 114.3 125.429 113.494 125.442 112.676C125.455 111.859 125.685 111.059 126.109 110.36H120.764C121.125 110.97 121.341 111.654 121.394 112.361C121.447 113.068 121.336 113.777 121.071 114.434C120.805 115.091 120.391 115.678 119.861 116.149C119.331 116.62 118.7 116.962 118.016 117.149C117.333 117.335 116.615 117.362 115.92 117.226C115.224 117.09 114.569 116.796 114.006 116.365C113.443 115.935 112.987 115.381 112.673 114.745C112.36 114.11 112.197 113.41 112.198 112.702C112.196 111.876 112.421 111.067 112.847 110.36H107.502C107.863 110.97 108.079 111.654 108.132 112.361C108.185 113.068 108.075 113.777 107.809 114.434C107.543 115.091 107.129 115.678 106.599 116.149C106.069 116.62 105.438 116.962 104.755 117.149C104.071 117.335 103.353 117.362 102.658 117.226C101.962 117.09 101.307 116.796 100.744 116.365C100.181 115.935 99.7251 115.381 99.4114 114.745C99.0977 114.11 98.9349 113.41 98.9357 112.702C98.9346 111.876 99.1591 111.067 99.5849 110.36H94.2401C94.6543 111.059 94.8762 111.855 94.883 112.668C94.8899 113.481 94.6815 114.281 94.2792 114.987C93.8768 115.693 93.2947 116.28 92.5921 116.688C91.8894 117.096 91.0912 117.312 90.2785 117.312C89.4658 117.312 88.6676 117.096 87.965 116.688C87.2623 116.28 86.6803 115.693 86.2779 114.987C85.8755 114.281 85.6672 113.481 85.674 112.668C85.6809 111.855 85.9027 111.059 86.317 110.36H80.9418C81.3561 111.059 81.5779 111.855 81.5847 112.668C81.5916 113.481 81.3833 114.281 80.9809 114.987C80.5785 115.693 79.9965 116.28 79.2938 116.688C78.5911 117.096 77.7929 117.312 76.9803 117.312C76.1676 117.312 75.3694 117.096 74.6667 116.688C73.9641 116.28 73.382 115.693 72.9796 114.987C72.5773 114.281 72.3689 113.481 72.3758 112.668C72.3826 111.855 72.6045 111.059 73.0187 110.36H67.68C68.0942 111.059 68.316 111.855 68.3229 112.668C68.3297 113.481 68.1214 114.281 67.719 114.987C67.3167 115.693 66.7346 116.28 66.0319 116.688C65.3293 117.096 64.5311 117.312 63.7184 117.312C62.9057 117.312 62.1075 117.096 61.4049 116.688C60.7022 116.28 60.1201 115.693 59.7178 114.987C59.3154 114.281 59.1071 113.481 59.1139 112.668C59.1208 111.855 59.3426 111.059 59.7568 110.36H56.4141V205.607H135.761V110.36H133.995Z" fill="#F5F5F5"/>
<path d="M51.5786 209.988C51.4937 209.988 51.1843 186.904 50.8931 158.42C50.6019 129.937 50.4381 106.853 50.5291 106.853C50.6201 106.853 50.9173 129.907 51.2085 158.42C51.4997 186.934 51.6696 209.988 51.5786 209.988Z" fill="#E0E0E0"/>
<path d="M64.3124 209.854C64.2275 209.854 63.9242 186.801 63.633 158.287C63.3418 129.773 63.1719 106.72 63.2629 106.72C63.3539 106.72 63.6572 129.773 63.9484 158.287C64.2396 186.801 64.4034 209.854 64.3124 209.854Z" fill="#E0E0E0"/>
<path d="M70.6268 209.854C70.5419 209.854 70.2325 186.801 69.9413 158.287C69.6501 129.773 69.4863 106.72 69.5712 106.72C69.6562 106.72 69.9656 129.773 70.2568 158.287C70.548 186.801 70.7239 209.854 70.6268 209.854Z" fill="#E0E0E0"/>
<path d="M83.5077 209.854C83.4228 209.854 83.1195 186.801 82.8283 158.287C82.5371 129.773 82.3672 106.72 82.4582 106.72C82.5492 106.72 82.8525 129.773 83.1437 158.287C83.4349 186.801 83.5987 209.854 83.5077 209.854Z" fill="#E0E0E0"/>
<path d="M96.3807 209.854C96.2958 209.854 95.9864 186.801 95.6952 158.287C95.404 129.773 95.2402 106.72 95.3251 106.72C95.4101 106.72 95.7195 129.773 96.0107 158.287C96.3019 186.801 96.4657 209.854 96.3807 209.854Z" fill="#E0E0E0"/>
<path d="M109.249 209.854C109.164 209.854 108.854 186.801 108.563 158.287C108.272 129.773 108.108 106.72 108.199 106.72C108.29 106.72 108.593 129.773 108.885 158.287C109.176 186.801 109.34 209.854 109.249 209.854Z" fill="#E0E0E0"/>
<path d="M121.461 209.854C121.376 209.854 121.067 186.801 120.776 158.287C120.485 129.773 120.321 106.72 120.412 106.72C120.503 106.72 120.8 129.773 121.091 158.287C121.383 186.801 121.552 209.854 121.461 209.854Z" fill="#E0E0E0"/>
<path d="M133.672 209.854C133.587 209.854 133.278 186.801 132.987 158.287C132.696 129.773 132.532 106.72 132.623 106.72C132.714 106.72 133.017 129.773 133.308 158.287C133.6 186.801 133.763 209.854 133.672 209.854Z" fill="#E0E0E0"/>
<path d="M77.0526 209.727C76.9616 209.727 76.6583 186.643 76.3671 158.159C76.0759 129.676 75.9121 106.592 75.997 106.592C76.0819 106.592 76.3913 129.646 76.6825 158.159C76.9737 186.673 77.1375 209.727 77.0526 209.727Z" fill="#E0E0E0"/>
<path d="M89.787 209.593C89.696 209.593 89.3927 186.54 89.1015 158.026C88.8102 129.513 88.6464 106.459 88.7314 106.459C88.8163 106.459 89.1257 129.513 89.4169 158.026C89.7081 186.54 89.8719 209.593 89.787 209.593Z" fill="#E0E0E0"/>
<path d="M102.519 209.466C102.434 209.466 102.125 186.382 101.834 157.899C101.543 129.415 101.379 106.332 101.464 106.332C101.549 106.332 101.858 129.385 102.149 157.899C102.441 186.412 102.604 209.466 102.519 209.466Z" fill="#E0E0E0"/>
<path d="M115.254 209.332C115.169 209.332 114.859 186.279 114.568 157.765C114.277 129.252 114.113 106.198 114.198 106.198C114.283 106.198 114.593 129.252 114.884 157.765C115.175 186.279 115.345 209.332 115.254 209.332Z" fill="#E0E0E0"/>
<path d="M127.467 209.988C127.376 209.988 127.073 186.904 126.781 158.42C126.49 129.937 126.32 106.853 126.411 106.853C126.502 106.853 126.806 129.907 127.097 158.42C127.388 186.934 127.552 209.988 127.467 209.988Z" fill="#E0E0E0"/>
<path d="M140.729 209.072C140.638 209.072 140.334 186.018 140.043 157.504C139.752 128.991 139.582 105.937 139.673 105.937C139.764 105.937 140.067 128.991 140.359 157.504C140.65 186.018 140.814 209.072 140.729 209.072Z" fill="#E0E0E0"/>
<path d="M154.39 196.993C154.39 197.078 131.337 197.381 102.823 197.666C74.3094 197.951 51.2559 198.109 51.2559 198.024C51.2559 197.939 74.3094 197.636 102.823 197.351C131.337 197.066 154.39 196.902 154.39 196.993Z" fill="#E0E0E0"/>
<path d="M154.955 203.502C154.955 203.593 131.901 203.89 103.387 204.176C74.8739 204.461 51.8203 204.618 51.8203 204.534C51.8203 204.449 74.8739 204.145 103.387 203.86C131.901 203.575 154.955 203.417 154.955 203.502Z" fill="#E0E0E0"/>
<path d="M154.263 184.259C154.263 184.344 131.179 184.647 102.696 184.932C74.2128 185.217 51.1289 185.375 51.1289 185.284C51.1289 185.193 74.1825 184.896 102.696 184.611C131.21 184.325 154.263 184.168 154.263 184.259Z" fill="#E0E0E0"/>
<path d="M154.136 171.519C154.136 171.61 131.083 171.907 102.569 172.192C74.0555 172.477 51.002 172.641 51.002 172.55C51.002 172.459 74.0555 172.162 102.569 171.876C131.083 171.591 154.136 171.434 154.136 171.519Z" fill="#E0E0E0"/>
<path d="M154.009 158.784C154.009 158.875 130.925 159.173 102.442 159.458C73.9589 159.743 50.875 159.901 50.875 159.816C50.875 159.731 73.9286 159.428 102.442 159.142C130.956 158.857 154.009 158.699 154.009 158.784Z" fill="#E0E0E0"/>
<path d="M153.88 146.05C153.88 146.135 130.797 146.439 102.313 146.724C73.83 147.009 50.7461 147.167 50.7461 147.082C50.7461 146.997 73.7996 146.693 102.313 146.408C130.827 146.123 153.88 145.965 153.88 146.05Z" fill="#E0E0E0"/>
<path d="M153.742 133.316C153.742 133.401 130.688 133.704 102.175 133.99C73.661 134.275 50.6074 134.432 50.6074 134.348C50.6074 134.263 73.661 133.959 102.175 133.674C130.688 133.389 153.742 133.225 153.742 133.316Z" fill="#E0E0E0"/>
<path d="M153.627 120.582C153.627 120.667 130.573 120.971 102.059 121.256C73.5457 121.541 50.4922 121.699 50.4922 121.608C50.4922 121.517 73.5457 121.219 102.059 120.94C130.573 120.661 153.627 120.491 153.627 120.582Z" fill="#E0E0E0"/>
<path d="M153.627 115.48C153.627 115.565 130.573 115.868 102.059 116.153C73.5457 116.439 50.4922 116.596 50.4922 116.511C50.4922 116.426 73.5457 116.123 102.059 115.838C130.573 115.553 153.627 115.389 153.627 115.48Z" fill="#E0E0E0"/>
<path d="M153.627 127.086C153.627 127.177 130.573 127.474 102.059 127.759C73.5457 128.044 50.4922 128.202 50.4922 128.117C50.4922 128.032 73.5457 127.729 102.059 127.444C130.573 127.158 153.627 127.001 153.627 127.086Z" fill="#E0E0E0"/>
<path d="M153.627 139.723C153.627 139.808 130.573 140.111 102.059 140.396C73.5457 140.681 50.4922 140.839 50.4922 140.748C50.4922 140.657 73.5457 140.36 102.059 140.081C130.573 139.802 153.627 139.613 153.627 139.723Z" fill="#E0E0E0"/>
<path d="M153.627 152.354C153.627 152.439 130.573 152.742 102.059 153.027C73.5457 153.312 50.4922 153.47 50.4922 153.385C50.4922 153.3 73.5457 152.997 102.059 152.712C130.573 152.427 153.627 152.269 153.627 152.354Z" fill="#E0E0E0"/>
<path d="M153.627 164.991C153.627 165.076 130.573 165.379 102.059 165.658C73.5457 165.937 50.4922 166.107 50.4922 166.016C50.4922 165.925 73.5457 165.628 102.059 165.342C130.573 165.057 153.627 164.9 153.627 164.991Z" fill="#E0E0E0"/>
<path d="M153.627 177.622C153.627 177.707 130.573 178.01 102.059 178.295C73.5457 178.58 50.4922 178.738 50.4922 178.653C50.4922 178.568 73.5457 178.265 102.059 177.98C130.573 177.694 153.627 177.537 153.627 177.622Z" fill="#E0E0E0"/>
<path d="M153.627 190.252C153.627 190.343 130.573 190.641 102.059 190.926C73.5457 191.211 50.4922 191.375 50.4922 191.284C50.4922 191.193 73.5457 190.896 102.059 190.61C130.573 190.325 153.627 190.168 153.627 190.252Z" fill="#E0E0E0"/>
<path d="M90.6484 124.156C91.2187 126.971 92.4685 129.834 94.8163 131.436C95.8308 132.135 97.0029 132.572 98.2277 132.708C99.4524 132.844 100.692 132.674 101.835 132.213C102.978 131.753 103.989 131.016 104.778 130.069C105.566 129.122 106.108 127.995 106.354 126.787C106.601 125.58 106.544 124.33 106.189 123.15C105.834 121.97 105.192 120.896 104.321 120.025C103.449 119.154 102.376 118.512 101.196 118.157C100.016 117.802 98.7659 117.745 97.5584 117.992" fill="#E0E0E0"/>
<path d="M90.4968 124.131C90.5596 125.303 90.9684 126.43 91.6714 127.369C92.3745 128.308 93.3402 129.018 94.4466 129.409C95.553 129.799 96.7503 129.853 97.8873 129.563C99.0242 129.273 100.05 128.653 100.834 127.78C101.618 126.908 102.126 125.822 102.294 124.661C102.462 123.5 102.281 122.315 101.775 121.256C101.269 120.197 100.461 119.312 99.4525 118.713C98.4439 118.114 97.2802 117.827 96.1085 117.889C95.33 117.93 94.5673 118.124 93.8639 118.46C93.1605 118.796 92.5302 119.267 92.009 119.847C91.4879 120.427 91.0861 121.104 90.8266 121.839C90.5671 122.574 90.4551 123.353 90.4968 124.131Z" fill="#7BC678"/>
<path d="M87.087 121.935C87.1239 122.639 87.3687 123.315 87.7904 123.88C88.212 124.444 88.7915 124.871 89.4556 125.105C90.1197 125.34 90.8385 125.373 91.5212 125.199C92.2039 125.026 92.8197 124.653 93.2908 124.13C93.7619 123.606 94.0671 122.954 94.1678 122.257C94.2685 121.56 94.1601 120.849 93.8565 120.213C93.5528 119.577 93.0674 119.046 92.4618 118.686C91.8561 118.327 91.1574 118.155 90.454 118.192C89.5112 118.242 88.6269 118.665 87.9956 119.367C87.3642 120.069 87.0374 120.992 87.087 121.935Z" fill="#7BC678"/>
<path d="M90.4065 125.229C90.8556 125.228 91.3032 125.177 91.7411 125.078C92.2552 124.933 92.7282 124.67 93.1223 124.31C93.5163 123.95 93.8204 123.502 94.0101 123.003C94.1748 122.494 94.2255 121.955 94.1584 121.425C94.0913 120.894 93.9081 120.385 93.6218 119.933C93.3613 119.565 93.0667 119.221 92.7421 118.908C92.8669 118.938 92.9831 118.996 93.0819 119.078C93.3659 119.277 93.6124 119.526 93.8099 119.812C94.1468 120.284 94.3675 120.829 94.454 121.402C94.5404 121.976 94.4902 122.562 94.3074 123.112C94.0844 123.715 93.6979 124.245 93.1911 124.641C92.7792 124.958 92.303 125.182 91.7957 125.296C91.4576 125.374 91.1078 125.388 90.7644 125.338C90.5278 125.302 90.4004 125.247 90.4065 125.229Z" fill="#263238"/>
<path d="M93.384 119.593C94.0657 119.767 94.7754 119.802 95.4709 119.697C96.1373 119.485 96.7557 119.145 97.2909 118.696C97.3213 118.696 97.2121 118.956 96.9269 119.248C96.5399 119.623 96.0573 119.886 95.5316 120.006C95.0049 120.13 94.4539 120.103 93.9421 119.927C93.566 119.763 93.3658 119.593 93.384 119.593Z" fill="#263238"/>
<path d="M94.2892 128.584C94.2407 128.584 94.1982 128.299 94.0344 127.868C93.8234 127.31 93.492 126.804 93.0638 126.388C92.6258 125.98 92.101 125.678 91.5289 125.502C91.0921 125.363 90.7948 125.332 90.8009 125.284C90.8069 125.235 91.0981 125.193 91.5835 125.284C92.2182 125.411 92.8046 125.714 93.2755 126.158C93.7464 126.602 94.083 127.169 94.2468 127.796C94.3742 128.275 94.3438 128.584 94.2892 128.584Z" fill="#263238"/>
<path d="M126.866 144.382C126.866 144.473 114.205 144.54 98.5954 144.54C82.9857 144.54 70.3184 144.473 70.3184 144.382C70.3184 144.291 82.9735 144.224 98.5954 144.224C114.217 144.224 126.866 144.297 126.866 144.382Z" fill="#263238"/>
<path d="M126.866 150.261C126.866 150.346 114.205 150.418 98.5954 150.418C82.9857 150.418 70.3184 150.346 70.3184 150.261C70.3184 150.176 82.9735 150.103 98.5954 150.103C114.217 150.103 126.866 150.176 126.866 150.261Z" fill="#263238"/>
<path d="M126.866 156.139C126.866 156.224 114.205 156.297 98.5954 156.297C82.9857 156.297 70.3184 156.224 70.3184 156.139C70.3184 156.054 82.9735 155.982 98.5954 155.982C114.217 155.982 126.866 156.054 126.866 156.139Z" fill="#263238"/>
<path d="M126.866 162.018C126.866 162.103 114.205 162.176 98.5954 162.176C82.9857 162.176 70.3184 162.103 70.3184 162.018C70.3184 161.933 82.9735 161.86 98.5954 161.86C114.217 161.86 126.866 161.933 126.866 162.018Z" fill="#263238"/>
<path d="M126.866 167.897C126.866 167.982 114.205 168.054 98.5954 168.054C82.9857 168.054 70.3184 167.982 70.3184 167.897C70.3184 167.812 82.9735 167.739 98.5954 167.739C114.217 167.739 126.866 167.812 126.866 167.897Z" fill="#263238"/>
<path d="M126.866 173.775C126.866 173.86 114.205 173.933 98.5954 173.933C82.9857 173.933 70.3184 173.86 70.3184 173.775C70.3184 173.69 82.9735 173.617 98.5954 173.617C114.217 173.617 126.866 173.684 126.866 173.775Z" fill="#263238"/>
<path d="M126.866 179.654C126.866 179.739 114.205 179.812 98.5954 179.812C82.9857 179.812 70.3184 179.739 70.3184 179.654C70.3184 179.569 82.9735 179.496 98.5954 179.496C114.217 179.496 126.866 179.563 126.866 179.654Z" fill="#263238"/>
<path d="M197.568 238.295C212.213 233.442 202.173 214.071 202.173 214.071L138.157 220.095C136.935 220.086 135.724 220.319 134.593 220.78C133.462 221.242 132.434 221.922 131.567 222.783C130.7 223.643 130.012 224.667 129.543 225.794C129.074 226.922 128.832 228.131 128.832 229.353C128.832 231.81 129.808 234.166 131.545 235.903C133.283 237.641 135.639 238.617 138.096 238.617L197.55 238.295" fill="#263238"/>
<path d="M212.553 238.277C226.828 233.46 216.988 214.071 216.988 214.071L154.585 219.949C148.519 220.028 145.516 222.983 145.516 229.189C145.516 234.303 147.414 238.617 154.567 238.471L212.553 238.277Z" fill="#263238"/>
<path d="M198.065 217.34H197.889H197.367L195.371 217.425L188.031 217.789L163.812 219.118C162.599 219.172 161.464 219.276 160.312 219.288C159.159 219.3 158.018 219.354 156.902 219.421C155.786 219.488 154.688 219.573 153.62 219.688C152.555 219.763 151.504 219.979 150.496 220.331C149.525 220.701 148.641 221.267 147.899 221.994C147.199 222.712 146.663 223.572 146.328 224.517C146.013 225.401 145.798 226.316 145.685 227.247C145.57 228.104 145.513 228.967 145.515 229.832C145.493 231.321 145.773 232.798 146.34 234.175C146.771 235.197 147.436 236.103 148.281 236.821C148.797 237.267 149.398 237.605 150.047 237.816C150.49 237.955 150.496 237.913 150.047 237.755C149.421 237.515 148.843 237.163 148.342 236.717C147.531 235.997 146.896 235.1 146.486 234.097C145.949 232.747 145.689 231.302 145.721 229.85C145.731 228.997 145.796 228.146 145.915 227.302C146.03 226.393 146.246 225.5 146.558 224.639C146.884 223.73 147.401 222.902 148.075 222.212C148.793 221.519 149.646 220.98 150.581 220.629C151.56 220.292 152.58 220.088 153.614 220.022C154.676 219.913 155.768 219.834 156.884 219.767C158 219.7 159.129 219.658 160.281 219.64C161.434 219.621 162.605 219.518 163.788 219.464L188.006 218.038L195.341 217.565L197.337 217.419L197.853 217.377C197.925 217.377 197.997 217.365 198.065 217.34Z" fill="#455A64"/>
<path d="M212.158 223.45C212.007 223.565 211.837 223.651 211.655 223.705C211.167 223.882 210.656 223.987 210.138 224.014C209.274 224.081 208.406 223.957 207.595 223.651C206.784 223.346 206.05 222.866 205.445 222.245C204.84 221.625 204.378 220.88 204.092 220.062C203.807 219.243 203.704 218.373 203.792 217.51C203.834 216.993 203.95 216.484 204.138 216C204.278 215.66 204.387 215.49 204.405 215.502C204.216 216.162 204.092 216.839 204.035 217.523C203.981 218.342 204.099 219.163 204.383 219.933C204.666 220.704 205.108 221.406 205.68 221.995C206.251 222.584 206.94 223.046 207.702 223.352C208.464 223.658 209.281 223.801 210.102 223.771C210.796 223.732 211.485 223.625 212.158 223.45Z" fill="#455A64"/>
<path d="M193.363 161.496C185.422 162.388 184.136 167.781 180.435 173.09L175.078 182.972L184.924 189.009L184.585 204.176L180.556 217.595L217.642 215.502L213.511 202.762L218.449 183.288C218.825 180.631 219.844 175.698 219.153 173.084C216.993 164.924 208.512 162.54 202.676 161.023C201.462 160.714 195.663 160.732 194.655 160.974" fill="#7BC678"/>
<path d="M189.179 202.999C189.651 202.91 190.14 203.013 190.538 203.284C190.993 203.547 191.36 203.94 191.593 204.412C191.876 205.001 191.924 205.676 191.727 206.299C191.546 206.926 191.137 207.463 190.58 207.804C190.125 208.068 189.601 208.191 189.075 208.155C188.595 208.165 188.131 207.984 187.783 207.652C188.198 207.815 188.636 207.911 189.081 207.937C189.557 207.933 190.022 207.801 190.428 207.555C190.917 207.241 191.277 206.762 191.443 206.206C191.609 205.649 191.569 205.052 191.332 204.521C191.131 204.093 190.816 203.728 190.422 203.466C190.035 203.244 189.616 203.086 189.179 202.999Z" fill="#FAFAFA"/>
<path d="M198.029 186.619C198.029 186.679 201.815 187.996 206.523 189.555C211.23 191.114 215.077 192.333 215.101 192.273C215.125 192.212 211.315 190.896 206.608 189.33C201.9 187.765 198.029 186.558 198.029 186.619Z" fill="#263238"/>
<g opacity="0.3">
<path opacity="0.3" d="M213.268 194.76C212.568 197.986 211.654 201.162 210.532 204.267C209.822 206.239 208.813 208.09 207.541 209.757C205.66 211.924 203.152 213.455 200.365 214.137C197.585 214.81 194.703 214.952 191.871 214.556L205.976 206.59L209.725 193.553L213.268 194.76Z" fill="black"/>
</g>
<path d="M184.592 203.763C184.652 203.414 184.683 203.061 184.683 202.707C184.72 201.955 184.768 200.966 184.823 199.771C184.932 197.29 185.053 193.856 185.169 190.064C185.284 186.273 185.369 182.839 185.411 180.358C185.411 179.144 185.411 178.168 185.448 177.415C185.466 177.053 185.454 176.69 185.411 176.329C185.35 176.686 185.318 177.047 185.314 177.409C185.278 178.161 185.229 179.15 185.169 180.346C185.065 182.827 184.938 186.261 184.829 190.052C184.72 193.844 184.629 197.272 184.58 199.759C184.58 200.972 184.58 201.943 184.55 202.701C184.536 203.056 184.551 203.411 184.592 203.763Z" fill="#263238"/>
<path d="M176.523 180.345C177.847 181.318 179.236 182.2 180.679 182.984C182.068 183.864 183.516 184.648 185.011 185.332C183.69 184.353 182.301 183.47 180.855 182.687C179.469 181.804 178.022 181.021 176.523 180.345Z" fill="#263238"/>
<path d="M195.057 174.194C194.795 174.598 194.382 174.882 193.911 174.983C193.474 175.107 193.012 175.117 192.571 175.01C192.129 174.904 191.723 174.686 191.39 174.377C191.058 174.067 190.811 173.678 190.673 173.245C190.535 172.812 190.512 172.351 190.604 171.907C190.716 171.391 190.978 170.921 191.356 170.554C191.516 170.375 191.708 170.23 191.924 170.126C192.139 170.021 192.373 169.961 192.612 169.947C192.209 170.136 191.838 170.388 191.514 170.693C191.192 171.031 190.967 171.451 190.865 171.907C190.76 172.474 190.863 173.06 191.156 173.557C191.435 174.064 191.891 174.451 192.436 174.643C192.887 174.79 193.369 174.813 193.832 174.71C194.265 174.603 194.678 174.429 195.057 174.194Z" fill="#FAFAFA"/>
<path d="M187.248 184.641C186.964 184.251 186.846 183.764 186.92 183.288C186.958 182.835 187.113 182.4 187.37 182.024C187.626 181.649 187.975 181.346 188.383 181.146C188.791 180.946 189.244 180.854 189.698 180.881C190.152 180.908 190.591 181.051 190.973 181.298C191.409 181.598 191.746 182.02 191.943 182.511C192.159 182.941 192.196 183.438 192.047 183.895C192.014 183.45 191.91 183.013 191.737 182.602C191.531 182.175 191.212 181.813 190.815 181.553C190.319 181.259 189.737 181.147 189.167 181.237C188.598 181.327 188.078 181.612 187.697 182.044C187.398 182.412 187.205 182.855 187.139 183.324C187.102 183.766 187.138 184.211 187.248 184.641Z" fill="#FAFAFA"/>
<path d="M187.248 198.03C186.964 197.64 186.846 197.154 186.92 196.677C186.958 196.224 187.113 195.789 187.37 195.414C187.626 195.038 187.975 194.736 188.383 194.535C188.791 194.335 189.244 194.244 189.698 194.27C190.152 194.297 190.591 194.441 190.973 194.687C191.409 194.987 191.746 195.41 191.943 195.901C192.159 196.33 192.196 196.827 192.047 197.284C192.014 196.839 191.91 196.403 191.737 195.992C191.531 195.565 191.212 195.202 190.815 194.942C190.322 194.652 189.743 194.542 189.178 194.631C188.613 194.719 188.096 195.001 187.715 195.428C187.416 195.795 187.223 196.238 187.157 196.708C187.113 197.15 187.144 197.597 187.248 198.03Z" fill="#FAFAFA"/>
<path d="M198.958 181.334C198.477 181.349 198.01 181.172 197.659 180.843C197.247 180.517 196.941 180.075 196.78 179.575C196.592 178.949 196.646 178.276 196.931 177.688C197.207 177.096 197.694 176.626 198.296 176.372C198.787 176.183 199.323 176.141 199.837 176.25C200.075 176.28 200.305 176.357 200.513 176.475C200.721 176.594 200.904 176.753 201.051 176.942C200.672 176.725 200.263 176.565 199.837 176.469C199.367 176.397 198.886 176.458 198.448 176.645C197.922 176.882 197.497 177.298 197.251 177.819C197.004 178.341 196.951 178.933 197.101 179.49C197.237 179.945 197.495 180.354 197.847 180.673C198.18 180.952 198.554 181.175 198.958 181.334Z" fill="#FAFAFA"/>
<path d="M194.207 186.685C194.621 186.933 194.92 187.334 195.039 187.802C195.229 188.36 195.225 188.967 195.027 189.522C194.828 190.078 194.447 190.55 193.946 190.861C193.444 191.172 192.852 191.304 192.266 191.236C191.68 191.167 191.135 190.902 190.719 190.483C190.357 190.177 190.128 189.742 190.082 189.27C190.284 189.668 190.551 190.031 190.871 190.344C191.227 190.659 191.664 190.869 192.133 190.95C192.703 191.03 193.283 190.908 193.772 190.604C194.261 190.3 194.627 189.835 194.808 189.288C194.935 188.829 194.935 188.345 194.808 187.887C194.679 187.454 194.476 187.048 194.207 186.685Z" fill="#FAFAFA"/>
<path d="M184.573 168.509C184.807 168.464 185.048 168.465 185.281 168.514C185.515 168.563 185.736 168.659 185.932 168.795C186.388 169.057 186.757 169.447 186.994 169.917C187.193 170.329 187.281 170.785 187.249 171.242C187.217 171.698 187.065 172.138 186.81 172.517C186.554 172.897 186.204 173.202 185.793 173.404C185.383 173.606 184.926 173.696 184.47 173.666C183.99 173.675 183.525 173.494 183.178 173.163C183.594 173.322 184.032 173.416 184.476 173.442C184.951 173.443 185.417 173.313 185.823 173.066C186.306 172.75 186.661 172.272 186.824 171.719C186.992 171.167 186.957 170.573 186.727 170.044C186.527 169.615 186.212 169.249 185.817 168.989C185.432 168.76 185.012 168.598 184.573 168.509Z" fill="#FAFAFA"/>
<path d="M201.292 184.592C201.05 184.176 200.982 183.681 201.104 183.215C201.198 182.698 201.441 182.22 201.802 181.838C202.267 181.378 202.884 181.106 203.537 181.074C204.125 181.034 204.71 181.198 205.192 181.538C205.673 181.878 206.023 182.374 206.182 182.942C206.354 183.392 206.341 183.891 206.146 184.331C206.158 183.884 206.099 183.437 205.97 183.009C205.808 182.563 205.527 182.171 205.157 181.874C204.695 181.53 204.127 181.358 203.552 181.389C202.977 181.42 202.43 181.652 202.008 182.044C201.673 182.379 201.436 182.798 201.323 183.258C201.244 183.698 201.234 184.148 201.292 184.592Z" fill="#FAFAFA"/>
<path d="M195.286 194.426C195.759 194.338 196.247 194.441 196.645 194.712C197.101 194.976 197.47 195.368 197.707 195.84C197.981 196.432 198.028 197.104 197.84 197.729C197.653 198.354 197.242 198.888 196.687 199.231C196.233 199.493 195.712 199.616 195.189 199.583C194.707 199.594 194.24 199.413 193.891 199.08C194.308 199.239 194.748 199.333 195.195 199.359C195.668 199.359 196.132 199.229 196.536 198.983C197.024 198.669 197.384 198.19 197.55 197.634C197.716 197.077 197.677 196.479 197.44 195.949C197.238 195.521 196.924 195.156 196.53 194.894C196.145 194.668 195.724 194.51 195.286 194.426Z" fill="#FAFAFA"/>
<path d="M204.963 211.947C204.963 211.465 205.155 211.002 205.497 210.661C205.795 210.318 206.177 210.057 206.605 209.905C207.033 209.753 207.494 209.715 207.942 209.794C208.39 209.872 208.809 210.066 209.16 210.355C209.511 210.644 209.781 211.019 209.944 211.444C210.121 211.938 210.149 212.474 210.023 212.985C209.941 213.459 209.678 213.884 209.288 214.168C209.524 213.793 209.698 213.383 209.804 212.954C209.886 212.488 209.84 212.008 209.671 211.565C209.445 211.036 209.041 210.602 208.529 210.339C208.017 210.077 207.429 210.002 206.868 210.127C206.407 210.247 205.987 210.49 205.655 210.831C205.37 211.167 205.137 211.543 204.963 211.947Z" fill="#FAFAFA"/>
<path d="M211.983 202.307C212.22 202.337 212.45 202.413 212.658 202.532C212.866 202.651 213.049 202.809 213.196 202.999C213.598 203.431 213.838 203.989 213.876 204.579C213.913 205.168 213.746 205.752 213.402 206.232C213.037 206.775 212.48 207.158 211.843 207.306C211.331 207.419 210.796 207.377 210.308 207.185C209.848 207.045 209.462 206.729 209.234 206.305C209.578 206.587 209.966 206.813 210.381 206.972C210.832 207.117 211.315 207.136 211.776 207.027C212.331 206.871 212.813 206.526 213.14 206.052C213.467 205.578 213.617 205.004 213.566 204.43C213.51 203.96 213.323 203.514 213.026 203.144C212.727 202.809 212.375 202.526 211.983 202.307Z" fill="#FAFAFA"/>
<path d="M211.983 183.749C212.462 183.816 212.897 184.066 213.196 184.447C213.548 184.837 213.778 185.322 213.857 185.842C213.936 186.49 213.774 187.144 213.403 187.68C213.032 188.217 212.477 188.599 211.843 188.754C211.329 188.864 210.793 188.821 210.302 188.633C209.841 188.491 209.455 188.173 209.229 187.747C209.572 188.034 209.962 188.262 210.381 188.42C210.833 188.567 211.316 188.583 211.777 188.469C212.334 188.32 212.821 187.978 213.149 187.503C213.477 187.029 213.625 186.453 213.566 185.878C213.508 185.408 213.321 184.963 213.026 184.592C212.725 184.258 212.373 183.974 211.983 183.749Z" fill="#FAFAFA"/>
<path d="M215.981 180.339C215.501 180.373 215.026 180.218 214.658 179.909C214.235 179.604 213.91 179.183 213.724 178.695C213.514 178.078 213.538 177.405 213.79 176.803C214.043 176.202 214.507 175.714 215.095 175.431C215.576 175.216 216.11 175.149 216.63 175.237C217.103 175.285 217.538 175.516 217.843 175.88C217.449 175.669 217.023 175.526 216.581 175.456C216.109 175.409 215.633 175.491 215.204 175.692C214.693 175.958 214.292 176.394 214.071 176.925C213.849 177.456 213.821 178.049 213.991 178.598C214.145 179.047 214.42 179.443 214.785 179.745C215.149 180.006 215.553 180.207 215.981 180.339Z" fill="#FAFAFA"/>
<path d="M209.228 170.111C208.75 170.146 208.277 169.992 207.912 169.68C207.488 169.376 207.164 168.954 206.978 168.467C206.768 167.849 206.792 167.176 207.044 166.575C207.297 165.974 207.761 165.486 208.349 165.203C208.83 164.987 209.364 164.92 209.884 165.009C210.356 165.057 210.792 165.287 211.097 165.652C210.701 165.448 210.275 165.307 209.835 165.233C209.364 165.181 208.887 165.261 208.458 165.464C207.947 165.729 207.546 166.166 207.324 166.697C207.103 167.228 207.074 167.82 207.245 168.37C207.4 168.819 207.675 169.217 208.039 169.522C208.403 169.778 208.804 169.977 209.228 170.111Z" fill="#FAFAFA"/>
<path d="M182.255 181.899C181.775 181.933 181.302 181.776 180.938 181.462C180.457 181.122 180.107 180.625 179.949 180.057C179.791 179.489 179.834 178.884 180.071 178.344C180.318 177.739 180.784 177.25 181.375 176.972C181.856 176.757 182.39 176.689 182.91 176.778C183.145 176.8 183.373 176.868 183.581 176.978C183.789 177.088 183.974 177.239 184.123 177.421C183.729 177.21 183.303 177.067 182.861 176.997C182.389 176.95 181.914 177.032 181.484 177.233C180.974 177.499 180.573 177.935 180.351 178.466C180.129 178.997 180.101 179.59 180.271 180.139C180.427 180.587 180.701 180.983 181.066 181.286C181.428 181.551 181.829 181.758 182.255 181.899Z" fill="#FAFAFA"/>
<path d="M209.307 172.453C209.545 172.483 209.775 172.56 209.983 172.68C210.191 172.8 210.374 172.96 210.52 173.15C210.875 173.539 211.105 174.025 211.181 174.546C211.258 175.192 211.097 175.845 210.727 176.381C210.358 176.917 209.805 177.3 209.173 177.458C208.659 177.568 208.123 177.525 207.632 177.336C207.171 177.195 206.785 176.876 206.559 176.451C206.902 176.738 207.292 176.966 207.711 177.124C208.163 177.27 208.646 177.287 209.107 177.173C209.664 177.024 210.149 176.679 210.472 176.202C210.801 175.729 210.951 175.155 210.896 174.582C210.836 174.111 210.647 173.666 210.35 173.296C210.048 172.962 209.696 172.678 209.307 172.453Z" fill="#FAFAFA"/>
<path d="M217.818 183.154C217.786 183.223 217.76 183.294 217.739 183.367C217.691 183.518 217.618 183.725 217.533 183.973C217.351 184.538 217.096 185.338 216.774 186.364L214.075 195.021L214.202 194.96L197.713 188.894L197.3 188.724L197.373 188.857C198.371 185.147 199.661 181.522 201.232 178.016C202.453 175.134 204.106 172.454 206.133 170.068C206.928 169.174 207.865 168.418 208.906 167.83C209.687 167.378 210.565 167.118 211.466 167.072C211.64 167.06 211.814 167.06 211.988 167.072L212.449 167.12C212.588 167.12 212.722 167.12 212.837 167.169L213.159 167.254L213.589 167.363L213.735 167.393L213.596 167.345L213.171 167.205L212.849 167.114C212.734 167.084 212.601 167.078 212.455 167.053L211.994 166.993C211.816 166.981 211.638 166.981 211.46 166.993C210.542 167.023 209.645 167.275 208.845 167.727C207.781 168.309 206.823 169.068 206.012 169.971C203.952 172.356 202.274 175.045 201.037 177.943C199.449 181.456 198.146 185.092 197.143 188.815V188.912L197.234 188.948L197.652 189.118C203.828 191.429 209.555 193.486 214.16 195.185L214.251 195.221L214.281 195.124L216.902 186.443C217.205 185.411 217.442 184.623 217.612 184.016C217.685 183.743 217.745 183.537 217.788 183.379C217.806 183.305 217.817 183.23 217.818 183.154Z" fill="#263238"/>
<path d="M186.696 193.098L183.505 203.09C182.895 205.123 181.736 206.948 180.155 208.364C178.574 209.781 176.632 210.733 174.544 211.116L153.22 215.12L147.414 214.932L153.22 207.749L169.248 202.289C170.017 202.123 170.726 201.749 171.296 201.208C171.866 200.666 172.277 199.978 172.482 199.219L178.864 185.338L186.951 190.295L186.696 193.098Z" fill="#FFBE9D"/>
<path d="M211.654 194.038L208.178 205.413C207.578 207.458 206.427 209.299 204.851 210.732C203.275 212.166 201.334 213.139 199.242 213.543L177.917 217.595L172.117 217.407L174.089 212.457L193.951 204.6C194.723 204.427 195.433 204.045 196.003 203.496C196.573 202.948 196.982 202.253 197.185 201.488L200.152 190.04L211.654 194.038Z" fill="#FFBE9D"/>
<path d="M192.757 217.747L192.575 216.364L176.195 215.721L168.15 195.446L137.52 197.52L147.857 220.028L192.757 217.747Z" fill="#455A64"/>
<path d="M156.095 208.598C156.265 208.867 156.511 209.08 156.801 209.21C157.092 209.339 157.415 209.379 157.728 209.325C158.042 209.271 158.332 209.125 158.563 208.906C158.794 208.686 158.954 208.404 159.024 208.093C159.093 207.783 159.069 207.458 158.955 207.162C158.84 206.865 158.64 206.609 158.38 206.426C158.119 206.243 157.811 206.141 157.492 206.133C157.174 206.126 156.861 206.213 156.593 206.384C156.235 206.613 155.982 206.974 155.889 207.389C155.796 207.803 155.87 208.238 156.095 208.598Z" fill="white"/>
<path d="M202.186 126.267C204.589 126.428 206.893 127.284 208.819 128.73C210.744 130.177 212.208 132.152 213.033 134.414C213.324 135.264 213.524 136.143 213.894 136.962C214.231 137.806 214.86 138.499 215.666 138.916C216.272 139.189 216.952 139.219 217.571 139.45C218.091 139.655 218.554 139.983 218.92 140.405C219.287 140.828 219.546 141.333 219.676 141.877C219.797 142.423 219.809 142.987 219.711 143.538C219.613 144.089 219.407 144.615 219.106 145.086C218.743 145.514 218.497 146.028 218.39 146.578C218.414 146.957 218.49 147.33 218.614 147.688C218.767 148.319 218.714 148.981 218.463 149.579C218.212 150.177 217.776 150.678 217.219 151.01C216.662 151.342 216.013 151.486 215.368 151.422C214.722 151.359 214.115 151.09 213.633 150.655C213.314 151.614 212.67 152.431 211.813 152.967C210.903 153.397 209.563 153.009 209.387 152.02C209.145 152.481 208.762 152.852 208.293 153.079C207.824 153.305 207.295 153.375 206.784 153.278C206.273 153.18 205.806 152.921 205.453 152.539C205.101 152.156 204.88 151.67 204.825 151.153" fill="#263238"/>
<path d="M187.642 141.191C185.665 138.879 185.634 135.252 187.036 132.546C188.437 129.84 191.1 127.978 193.903 126.873C197.762 125.357 202.366 125.199 205.836 127.48C207.353 128.502 208.569 129.909 209.36 131.557C210.152 133.205 210.49 135.034 210.339 136.856C210.188 138.678 209.554 140.427 208.503 141.923C207.451 143.418 206.02 144.606 204.356 145.365" fill="#7BC678"/>
<path d="M210.484 135.555C210.019 135.667 209.542 135.722 209.064 135.719C208.596 135.814 208.117 135.853 207.639 135.834C208.07 135.598 208.544 135.451 209.033 135.403C209.522 135.355 210.015 135.407 210.484 135.555Z" fill="#FAFAFA"/>
<path d="M208.628 130.513C208.216 130.658 207.788 130.756 207.354 130.805C206.662 130.956 206.141 131.181 206.08 131.096C206.403 130.76 206.831 130.545 207.293 130.489C207.727 130.341 208.2 130.349 208.628 130.513Z" fill="#FAFAFA"/>
<path d="M205.007 127.116C205.007 127.207 204.182 127.316 203.187 127.644C202.616 127.888 202.033 128.103 201.439 128.287C201.89 127.823 202.462 127.495 203.09 127.341C203.693 127.082 204.359 127.004 205.007 127.116Z" fill="#FAFAFA"/>
<path d="M198.97 125.775C198.97 125.86 198.218 126.109 197.429 126.691C196.64 127.274 196.161 127.905 196.082 127.868C196.294 127.27 196.705 126.762 197.247 126.431C197.726 126.016 198.336 125.784 198.97 125.775Z" fill="#FAFAFA"/>
<path d="M192.017 128.002C192.066 128.075 191.817 128.317 191.599 128.663C191.447 128.9 191.35 129.13 191.271 129.27L191.131 129.482V129.276C191.131 129.209 191.131 129.167 191.168 129.154C191.204 129.142 191.235 129.154 191.277 129.227H191.131C191.123 128.973 191.196 128.722 191.338 128.511C191.593 128.087 191.963 127.929 192.017 128.002Z" fill="#FAFAFA"/>
<path d="M209.211 140.857C209.211 140.942 208.665 140.991 208.028 140.797C207.391 140.602 206.972 140.25 207.015 140.19C207.057 140.129 207.53 140.317 208.119 140.499C208.707 140.681 209.217 140.772 209.211 140.857Z" fill="#FAFAFA"/>
<path d="M218.777 135.973C218.777 135.973 218.668 136.374 218.037 136.58C217.847 136.638 217.648 136.656 217.45 136.634C217.253 136.612 217.063 136.551 216.89 136.453C216.665 136.313 216.477 136.119 216.344 135.89C216.21 135.66 216.136 135.402 216.126 135.136C216.114 134.813 216.189 134.492 216.343 134.208C216.496 133.923 216.723 133.684 216.999 133.516C217.314 133.322 217.674 133.212 218.043 133.196C218.413 133.18 218.78 133.259 219.111 133.425C219.477 133.599 219.798 133.858 220.046 134.179C220.293 134.501 220.462 134.877 220.536 135.276C220.61 135.7 220.595 136.135 220.49 136.553C220.386 136.971 220.195 137.363 219.93 137.702C219.65 138.036 219.297 138.3 218.898 138.474C218.499 138.648 218.065 138.726 217.63 138.703C216.836 138.678 216.064 138.43 215.404 137.988C214.353 137.206 213.46 136.232 212.771 135.118C212.295 134.394 211.768 133.704 211.194 133.055C210.775 132.612 210.508 132.4 210.526 132.382C210.544 132.364 210.605 132.412 210.739 132.509C210.929 132.653 211.111 132.807 211.285 132.97C211.9 133.593 212.458 134.269 212.953 134.991C213.652 136.057 214.535 136.99 215.562 137.745C216.181 138.147 216.899 138.371 217.636 138.394C218.023 138.416 218.409 138.347 218.763 138.193C219.118 138.039 219.433 137.805 219.681 137.508C219.918 137.202 220.088 136.849 220.181 136.473C220.274 136.097 220.287 135.706 220.221 135.324C220.157 134.97 220.011 134.636 219.794 134.349C219.577 134.063 219.295 133.831 218.971 133.674C218.687 133.531 218.372 133.46 218.054 133.47C217.736 133.479 217.426 133.568 217.151 133.729C216.907 133.866 216.704 134.067 216.565 134.311C216.426 134.555 216.356 134.832 216.362 135.112C216.363 135.342 216.418 135.569 216.524 135.774C216.629 135.978 216.782 136.155 216.969 136.289C217.12 136.381 217.288 136.442 217.463 136.469C217.638 136.496 217.816 136.489 217.988 136.447C218.295 136.378 218.572 136.212 218.777 135.973Z" fill="#263238"/>
<path d="M204.836 132.77C205.37 132.826 205.863 133.081 206.218 133.483C206.573 133.885 206.764 134.406 206.754 134.942L205.54 163.899C205.492 167.32 199.292 171.361 195.627 171.288C191.933 171.209 193.019 167.284 192.964 164.008C192.873 158.548 192.879 156.534 192.873 156.564C192.867 156.594 188.202 155.787 187.237 149.69C186.752 146.657 186.903 141.688 187.164 137.624C187.389 133.984 189.815 129.482 193.455 129.864L204.836 132.77Z" fill="#FFBE9D"/>
<path d="M188.746 141.597C188.743 141.801 188.82 141.998 188.961 142.146C189.101 142.294 189.295 142.38 189.498 142.386C189.598 142.394 189.698 142.383 189.793 142.351C189.888 142.32 189.975 142.27 190.051 142.205C190.126 142.139 190.187 142.059 190.231 141.969C190.275 141.88 190.3 141.782 190.305 141.682C190.307 141.475 190.227 141.276 190.083 141.127C189.939 140.978 189.742 140.892 189.535 140.888C189.336 140.878 189.142 140.947 188.994 141.08C188.846 141.213 188.757 141.399 188.746 141.597Z" fill="#263238"/>
<path d="M188.237 140.22C188.334 140.323 188.929 139.887 189.772 139.887C190.615 139.887 191.228 140.311 191.319 140.208C191.41 140.105 191.264 139.977 190.997 139.783C190.632 139.532 190.198 139.399 189.754 139.401C189.318 139.402 188.893 139.54 188.54 139.795C188.28 140.008 188.189 140.22 188.237 140.22Z" fill="#263238"/>
<path d="M196.967 141.597C196.965 141.801 197.043 141.997 197.183 142.144C197.324 142.291 197.516 142.378 197.719 142.386C197.819 142.394 197.919 142.383 198.014 142.351C198.108 142.32 198.196 142.27 198.271 142.205C198.347 142.139 198.408 142.059 198.452 141.969C198.495 141.88 198.521 141.782 198.526 141.682C198.529 141.478 198.452 141.28 198.312 141.132C198.171 140.983 197.978 140.896 197.774 140.888C197.674 140.881 197.574 140.894 197.48 140.926C197.385 140.958 197.298 141.009 197.223 141.075C197.148 141.141 197.087 141.221 197.043 141.311C196.999 141.4 196.973 141.498 196.967 141.597Z" fill="#263238"/>
<path d="M196.507 140.39C196.604 140.493 197.198 140.056 198.042 140.056C198.885 140.056 199.498 140.481 199.589 140.378C199.68 140.275 199.534 140.147 199.267 139.953C198.901 139.702 198.467 139.569 198.023 139.571C197.587 139.569 197.162 139.707 196.81 139.965C196.549 140.16 196.458 140.348 196.507 140.39Z" fill="#263238"/>
<path d="M193.455 146.633C193.013 146.493 192.554 146.409 192.09 146.384C191.872 146.384 191.672 146.317 191.635 146.172C191.617 145.949 191.668 145.727 191.781 145.535L192.388 143.903C193.273 141.573 193.91 139.656 193.813 139.62C193.117 140.956 192.526 142.346 192.048 143.775L191.441 145.419C191.307 145.688 191.276 145.997 191.356 146.287C191.388 146.363 191.437 146.432 191.499 146.486C191.561 146.541 191.634 146.581 191.714 146.602C191.833 146.635 191.955 146.651 192.078 146.651C192.536 146.703 192.999 146.697 193.455 146.633Z" fill="#263238"/>
<path d="M192.873 156.6C195.753 156.643 198.589 155.885 201.063 154.41C201.063 154.41 199.079 158.596 192.982 158.05L192.873 156.6Z" fill="#EB996E"/>
<path d="M193.813 148.659C193.974 148.458 194.182 148.301 194.42 148.202C194.658 148.103 194.916 148.066 195.172 148.095C195.357 148.113 195.537 148.167 195.701 148.256C195.864 148.345 196.008 148.465 196.125 148.61C196.237 148.75 196.304 148.921 196.316 149.1C196.328 149.28 196.284 149.458 196.191 149.611C196.057 149.764 195.88 149.872 195.682 149.922C195.485 149.972 195.278 149.961 195.087 149.891C194.691 149.748 194.326 149.529 194.013 149.247C193.918 149.182 193.838 149.097 193.777 148.999C193.744 148.953 193.727 148.897 193.727 148.841C193.727 148.784 193.744 148.729 193.777 148.683" fill="#EB996E"/>
<path d="M195.93 147.215C195.796 147.215 195.79 148.119 195.008 148.768C194.225 149.417 193.254 149.314 193.248 149.442C193.242 149.569 193.467 149.618 193.855 149.63C194.389 149.636 194.908 149.456 195.323 149.12C195.721 148.795 195.976 148.327 196.033 147.816C196.093 147.434 195.99 147.209 195.93 147.215Z" fill="#263238"/>
<path d="M196.13 138.922C196.215 139.146 197.052 139.037 198.041 139.159C199.029 139.28 199.824 139.547 199.958 139.341C200.012 139.244 199.873 139.031 199.551 138.807C199.124 138.531 198.637 138.361 198.132 138.309C197.627 138.247 197.115 138.308 196.639 138.485C196.275 138.631 196.093 138.813 196.13 138.922Z" fill="#263238"/>
<path d="M188.547 137.794C188.699 137.988 189.275 137.794 189.973 137.794C190.671 137.794 191.259 137.927 191.399 137.727C191.453 137.63 191.362 137.436 191.108 137.254C190.759 137.039 190.356 136.932 189.947 136.945C189.538 136.958 189.142 137.09 188.808 137.326C188.566 137.508 188.481 137.709 188.547 137.794Z" fill="#263238"/>
<path d="M206.079 142.52C206.326 142.384 206.606 142.319 206.888 142.333C207.169 142.347 207.442 142.439 207.674 142.598C208.239 142.927 208.672 143.44 208.901 144.051C209.13 144.662 209.14 145.334 208.93 145.952C208.72 146.57 208.302 147.096 207.748 147.442C207.194 147.787 206.538 147.93 205.891 147.846" fill="#FFBE9D"/>
<path d="M196.495 127.862C194.421 127.967 192.408 128.593 190.64 129.682C188.644 130.72 187.141 132.506 186.46 134.651C186.375 134.871 186.335 135.106 186.343 135.341C186.351 135.577 186.408 135.809 186.509 136.022C186.701 136.268 186.973 136.439 187.277 136.506C187.582 136.572 187.901 136.53 188.177 136.386C188.724 136.079 189.189 135.646 189.536 135.124C189.684 135.686 190.015 136.183 190.477 136.535C190.94 136.888 191.506 137.076 192.087 137.069C192.669 137.063 193.231 136.863 193.685 136.501C194.14 136.138 194.46 135.635 194.596 135.07C194.642 135.654 194.912 136.197 195.35 136.587C195.787 136.977 196.358 137.183 196.944 137.163C197.528 137.109 198.084 136.888 198.545 136.525C199.006 136.162 199.351 135.673 199.54 135.118C199.687 136.172 200.051 137.184 200.608 138.091C200.898 138.538 201.318 138.885 201.812 139.087C202.305 139.289 202.848 139.335 203.368 139.219C203.152 140.116 203.167 141.053 203.411 141.943C203.732 142.805 204.691 143.502 205.558 143.205C206.426 142.908 206.729 141.913 206.93 141.039C207.365 139.371 207.585 137.655 207.585 135.931C207.64 134.157 207.064 132.421 205.958 131.032C204.853 129.643 203.29 128.692 201.548 128.348C199.809 127.946 198.023 127.783 196.24 127.862" fill="#263238"/>
<path d="M206.523 146.026C206.523 145.984 206.759 146.081 207.057 145.941C207.236 145.838 207.38 145.685 207.473 145.501C207.566 145.316 207.602 145.109 207.578 144.904C207.576 144.696 207.513 144.493 207.398 144.32C207.283 144.146 207.12 144.01 206.929 143.927C206.62 143.8 206.395 143.86 206.383 143.812C206.371 143.763 206.59 143.624 206.99 143.715C207.228 143.767 207.442 143.897 207.597 144.085C207.78 144.313 207.887 144.593 207.9 144.886C207.93 145.152 207.872 145.42 207.734 145.65C207.595 145.879 207.385 146.056 207.136 146.154C206.699 146.287 206.474 146.05 206.523 146.026Z" fill="#EB996E"/>
<path d="M208.822 146.342C208.908 146.356 208.991 146.381 209.071 146.414C209.308 146.491 209.536 146.592 209.75 146.718C210.573 147.148 211.262 147.796 211.74 148.592C212.07 149.145 212.257 149.77 212.286 150.412C212.304 151.156 212.128 151.892 211.777 152.548C211.393 153.278 210.837 153.903 210.157 154.368C209.425 154.874 208.559 155.153 207.67 155.169C206.815 155.153 205.981 154.905 205.257 154.452C204.532 153.999 203.944 153.358 203.556 152.596C203.213 151.931 203.062 151.183 203.12 150.437C203.191 149.794 203.397 149.173 203.726 148.617C204.19 147.812 204.898 147.175 205.746 146.797C205.973 146.693 206.211 146.617 206.456 146.572C206.543 146.559 206.631 146.559 206.717 146.572C206.717 146.608 206.365 146.651 205.795 146.93C205.126 147.273 204.556 147.781 204.137 148.404C203.717 149.028 203.463 149.748 203.399 150.497C203.357 151.191 203.506 151.884 203.829 152.499C204.2 153.207 204.753 153.802 205.432 154.222C206.11 154.643 206.89 154.873 207.688 154.89C208.486 154.857 209.262 154.616 209.938 154.19C210.614 153.765 211.166 153.169 211.54 152.463C211.859 151.893 212.026 151.251 212.026 150.597C212.026 149.944 211.859 149.302 211.54 148.732C211.092 147.957 210.453 147.309 209.684 146.851C209.15 146.493 208.81 146.372 208.822 146.342Z" fill="#7BC678"/>
<path d="M43.9351 224.948C43.9607 224.873 43.9911 224.8 44.0261 224.73C44.105 224.572 44.2021 224.36 44.3295 224.093C44.6903 223.269 44.9825 222.416 45.2031 221.545C45.9115 218.301 45.8929 214.94 45.1485 211.704C44.6836 209.465 44.0756 207.259 43.3285 205.098C42.558 202.756 41.6601 200.244 40.9018 197.575C40.0631 194.769 39.654 191.852 39.6884 188.924C39.7976 185.89 40.7016 182.809 41.6965 179.769C42.6915 176.73 43.7228 173.751 44.0322 170.754C44.3731 167.874 43.7933 164.96 42.376 162.43C41.0595 160.004 39.3972 157.923 38.1293 155.757C36.9692 153.76 36.1144 151.601 35.5934 149.351C34.8435 146.094 34.7877 142.717 35.4296 139.437C35.6815 138.25 36.0493 137.089 36.5277 135.973C36.5142 136.054 36.4939 136.133 36.467 136.21C36.4124 136.374 36.3457 136.598 36.2547 136.877C35.9948 137.739 35.7802 138.614 35.6116 139.498C35.0236 142.755 35.1124 146.099 35.8725 149.32C36.4013 151.542 37.258 153.672 38.4144 155.642C39.6278 157.765 41.3204 159.834 42.6611 162.315C44.1125 164.895 44.7093 167.868 44.3659 170.809C44.0565 173.842 43.0191 176.845 42.0302 179.909C41.0413 182.972 40.1374 185.975 40.0282 188.972C39.9825 191.867 40.371 194.753 41.1808 197.532C41.9028 200.214 42.7885 202.701 43.5529 205.055C44.3051 207.227 44.9131 209.446 45.373 211.698C46.1179 214.961 46.1179 218.349 45.373 221.611C45.1381 222.486 44.8234 223.337 44.4326 224.153L44.105 224.76C44.0577 224.83 44.0005 224.894 43.9351 224.948Z" fill="#263238"/>
<path d="M39.8774 157.892C39.8774 157.892 37.3536 149.836 41.8794 145.116C41.9142 145.078 41.9588 145.05 42.0083 145.036C42.0579 145.022 42.1103 145.022 42.16 145.036C42.2096 145.049 42.2544 145.077 42.2895 145.114C42.3245 145.152 42.3485 145.199 42.3587 145.249C42.5953 146.584 42.8986 150.637 39.8774 157.892Z" fill="#7BC678"/>
<path d="M41.3882 147.797C41.3812 148.299 41.3243 148.799 41.2183 149.29C41.0485 150.309 40.8543 151.516 40.6117 152.845C40.369 154.173 40.2113 155.375 40.0475 156.4C40.0014 156.896 39.9121 157.387 39.7805 157.868C39.7341 157.369 39.7484 156.866 39.823 156.37C39.9079 155.448 40.0717 154.186 40.2962 152.79C40.5207 151.395 40.7694 150.151 40.9635 149.247C41.0515 148.75 41.1939 148.264 41.3882 147.797Z" fill="#263238"/>
<path d="M42.8379 176.912C42.8379 176.912 44.3788 168.606 50.6094 166.55C50.6581 166.533 50.7105 166.53 50.7608 166.541C50.8111 166.552 50.8574 166.577 50.8945 166.613C50.9315 166.649 50.958 166.694 50.9708 166.744C50.9837 166.794 50.9825 166.846 50.9673 166.896C50.5305 168.182 48.9046 171.907 42.8379 176.912Z" fill="#7BC678"/>
<path d="M48.8922 168.691C48.653 169.123 48.3704 169.53 48.0489 169.905L45.877 172.798C45.0701 173.878 44.3361 174.849 43.7112 175.68C43.4418 176.101 43.133 176.495 42.7891 176.857C42.9809 176.393 43.2295 175.955 43.5292 175.553C44.0327 174.776 44.7425 173.733 45.6222 172.61C46.5019 171.488 47.2784 170.493 47.873 169.789C48.1697 169.386 48.5117 169.017 48.8922 168.691Z" fill="#263238"/>
<path d="M41.1565 197.745C41.1565 197.745 40.2223 189.361 45.561 185.575C45.603 185.544 45.6526 185.526 45.7043 185.522C45.756 185.519 45.8077 185.529 45.8537 185.553C45.8997 185.577 45.9381 185.613 45.9646 185.658C45.9911 185.703 46.0047 185.754 46.0039 185.805C45.9917 187.158 45.5125 191.181 41.1565 197.745Z" fill="#7BC678"/>
<path d="M44.5425 188.147C44.441 188.636 44.2906 189.114 44.0936 189.573C43.7356 190.544 43.317 191.69 42.8802 192.952C42.4434 194.214 42.0066 195.379 41.6669 196.337C41.5286 196.816 41.3479 197.28 41.127 197.727C41.1757 197.228 41.2858 196.737 41.4546 196.264C41.7094 195.379 42.1158 194.165 42.6012 192.843C43.0865 191.52 43.5658 190.337 43.9358 189.488C44.0903 189.021 44.2937 188.572 44.5425 188.147Z" fill="#263238"/>
<path d="M45.8345 218.699C45.8345 218.699 45.2278 210.272 50.6879 206.699C50.7307 206.67 50.7808 206.653 50.8327 206.65C50.8845 206.648 50.9361 206.66 50.9814 206.685C51.0268 206.71 51.0643 206.748 51.0896 206.793C51.1149 206.839 51.127 206.89 51.1247 206.942C51.0398 208.295 50.4149 212.311 45.8345 218.699Z" fill="#7BC678"/>
<path d="M49.584 209.205C49.4665 209.69 49.2977 210.162 49.0804 210.612C48.6922 211.577 48.2311 212.705 47.7215 213.949C47.2119 215.192 46.7569 216.321 46.3625 217.267C46.2029 217.742 45.9999 218.201 45.7559 218.638C45.8278 218.142 45.956 217.656 46.1381 217.188C46.4293 216.309 46.8721 215.114 47.4121 213.809C47.952 212.505 48.4616 211.34 48.862 210.509C49.0547 210.049 49.2968 209.612 49.584 209.205Z" fill="#263238"/>
<path d="M36.2492 150.813C36.2492 150.813 28.7689 146.894 28.6173 140.366C28.6161 140.314 28.6291 140.264 28.6549 140.219C28.6806 140.175 28.7182 140.138 28.7633 140.114C28.8085 140.09 28.8595 140.078 28.9108 140.081C28.9621 140.083 29.0117 140.1 29.0541 140.129C30.1703 140.894 33.2522 143.545 36.2492 150.813Z" fill="#7BC678"/>
<path d="M30.1699 142.61C30.5194 142.969 30.8323 143.361 31.1042 143.781L33.2154 146.699L35.3327 149.611C35.6544 149.989 35.9408 150.395 36.1881 150.825C35.8023 150.503 35.4561 150.136 35.1568 149.733C34.5501 149.023 33.7857 148.01 32.9606 146.869C32.1355 145.729 31.4197 144.667 30.9222 143.89C30.6241 143.493 30.3717 143.064 30.1699 142.61Z" fill="#263238"/>
<path d="M44.2932 168.127C44.2932 168.127 36.5823 164.675 36.0485 158.165C36.0429 158.113 36.052 158.061 36.0748 158.014C36.0976 157.967 36.1332 157.927 36.1774 157.899C36.2217 157.871 36.2729 157.857 36.3252 157.856C36.3775 157.856 36.4287 157.871 36.4731 157.898C37.6137 158.596 40.8533 161.053 44.2932 168.127Z" fill="#7BC678"/>
<path d="M37.7227 160.307C38.0954 160.655 38.4327 161.039 38.7297 161.454L41.0108 164.238L43.3283 166.987C43.672 167.347 43.9807 167.739 44.2505 168.157C43.8455 167.862 43.4787 167.518 43.1584 167.132C42.5214 166.459 41.6842 165.5 40.7924 164.408C39.9006 163.316 39.118 162.303 38.5781 161.557C38.2478 161.173 37.961 160.754 37.7227 160.307Z" fill="#263238"/>
<path d="M39.852 187.437C39.852 187.437 34.5618 180.867 37.0431 174.8C37.0623 174.752 37.0945 174.71 37.1361 174.679C37.1777 174.648 37.2271 174.63 37.2787 174.625C37.3304 174.621 37.3823 174.631 37.4285 174.654C37.4748 174.678 37.5136 174.714 37.5406 174.758C38.2504 175.91 40.0158 179.575 39.852 187.437Z" fill="#7BC678"/>
<path d="M37.5723 177.488C37.7476 177.955 37.8757 178.439 37.9545 178.932C38.179 179.951 38.4338 181.14 38.7189 182.457C39.004 183.773 39.271 184.956 39.4954 185.969C39.6369 186.449 39.7343 186.94 39.7866 187.437C39.5571 186.99 39.3858 186.515 39.277 186.024C39.0222 185.138 38.7068 183.901 38.4095 182.523C38.1122 181.146 37.8817 179.89 37.7361 178.974C37.626 178.487 37.571 177.988 37.5723 177.488Z" fill="#263238"/>
<path d="M45.0996 210.163C45.0996 210.163 37.4495 206.584 37.0127 200.062C37.0084 200.011 37.0184 199.959 37.0417 199.913C37.065 199.867 37.1007 199.828 37.1447 199.801C37.1887 199.774 37.2394 199.76 37.2911 199.76C37.3428 199.76 37.3934 199.774 37.4374 199.801C38.584 200.523 41.7811 203.035 45.0996 210.163Z" fill="#7BC678"/>
<path d="M38.6641 202.24C39.0323 202.579 39.3619 202.957 39.6469 203.369L41.8855 206.19L44.1302 209.005C44.4689 209.38 44.7715 209.786 45.0341 210.218C44.6256 209.909 44.2568 209.55 43.936 209.15C43.3294 208.465 42.4861 207.494 41.6125 206.384C40.7389 205.274 39.9805 204.254 39.4467 203.502C39.1414 203.111 38.879 202.688 38.6641 202.24Z" fill="#263238"/>
<path d="M60.3155 176.954C60.3253 177.016 60.3253 177.08 60.3155 177.142V177.682C60.3155 178.185 60.267 178.895 60.2245 179.726C60.1274 181.546 59.9879 184.04 59.8241 187.043C59.2781 190.076 57.7189 193.486 55.632 196.75C54.0971 199.176 52.4894 201.372 51.1001 203.423C49.8413 205.213 48.7082 207.088 47.7088 209.035C47.0521 210.355 46.52 211.734 46.1194 213.154C45.9859 213.658 45.8828 214.052 45.8282 214.319C45.805 214.458 45.7664 214.595 45.7129 214.725C45.7141 214.584 45.7303 214.444 45.7614 214.307C45.8039 214.034 45.8828 213.633 45.998 213.124C46.3563 211.68 46.8625 210.277 47.5086 208.938C48.4836 206.964 49.6051 205.066 50.8635 203.259C52.2407 201.197 53.8362 199.012 55.365 196.586C57.4459 193.316 59.0051 189.979 59.5572 186.97C59.7695 183.967 59.9454 181.461 60.0668 179.69C60.1396 178.835 60.1942 178.149 60.2366 177.645C60.2366 177.427 60.273 177.251 60.2912 177.106C60.2929 177.054 60.301 177.003 60.3155 176.954Z" fill="#263238"/>
<path d="M55.7832 196.161C55.7832 196.161 59.0228 188.366 54.9459 183.251C54.9143 183.21 54.8717 183.178 54.8229 183.16C54.7741 183.141 54.7212 183.137 54.67 183.147C54.6189 183.157 54.5716 183.181 54.5335 183.217C54.4954 183.252 54.468 183.298 54.4545 183.348C54.0966 184.653 53.4293 188.663 55.7832 196.161Z" fill="#7BC678"/>
<path d="M55.1957 185.975C55.3337 186.456 55.4192 186.95 55.4505 187.45C55.5657 188.366 55.6931 189.634 55.7963 191.041C55.8994 192.449 55.9419 193.723 55.9419 194.645C55.9742 195.146 55.9436 195.649 55.8509 196.143C55.7624 195.653 55.7177 195.155 55.7174 194.657C55.6507 193.619 55.5657 192.406 55.4808 191.065C55.3959 189.725 55.2988 188.505 55.226 187.468C55.166 186.973 55.1559 186.473 55.1957 185.975Z" fill="#263238"/>
<g opacity="0.3">
<path opacity="0.3" d="M55.7832 196.161C55.7832 196.161 59.0228 188.366 54.9459 183.251C54.9143 183.21 54.8717 183.178 54.8229 183.16C54.7741 183.141 54.7212 183.137 54.67 183.147C54.6189 183.157 54.5716 183.181 54.5335 183.217C54.4954 183.252 54.468 183.298 54.4545 183.348C54.0966 184.653 53.4293 188.663 55.7832 196.161Z" fill="black"/>
</g>
<path d="M45.7554 214.962C45.7554 214.962 48.352 206.924 43.8747 202.161C43.8392 202.124 43.7941 202.096 43.7443 202.083C43.6945 202.069 43.6418 202.069 43.592 202.082C43.5421 202.096 43.4969 202.123 43.4612 202.16C43.4255 202.198 43.4007 202.244 43.3894 202.295C43.1346 203.623 42.7948 207.676 45.7554 214.962Z" fill="#7BC678"/>
<path d="M44.3309 204.849C44.5096 205.317 44.6357 205.803 44.7071 206.299C44.8951 207.203 45.1257 208.459 45.3137 209.854C45.5018 211.249 45.6777 212.517 45.7505 213.433C45.8118 213.933 45.8118 214.438 45.7505 214.938C45.6256 214.454 45.5424 213.961 45.5018 213.464C45.3501 212.438 45.1681 211.231 44.9679 209.902C44.7677 208.574 44.5857 207.367 44.428 206.341C44.3456 205.848 44.3131 205.348 44.3309 204.849Z" fill="#263238"/>
<g opacity="0.3">
<path opacity="0.3" d="M45.7554 214.962C45.7554 214.962 48.352 206.924 43.8747 202.161C43.8392 202.124 43.7941 202.096 43.7443 202.083C43.6945 202.069 43.6418 202.069 43.592 202.082C43.5421 202.096 43.4969 202.123 43.4612 202.16C43.4255 202.198 43.4007 202.244 43.3894 202.295C43.1346 203.623 42.7948 207.676 45.7554 214.962Z" fill="black"/>
</g>
<path d="M59.9102 186.63C59.9102 186.63 66.8323 181.777 66.1346 175.286C66.1282 175.235 66.1081 175.186 66.0766 175.146C66.045 175.105 66.0031 175.074 65.9552 175.056C65.9074 175.037 65.8554 175.032 65.8047 175.04C65.7541 175.048 65.7067 175.07 65.6675 175.104C64.6665 176.014 61.9486 179.047 59.9102 186.63Z" fill="#7BC678"/>
<g opacity="0.3">
<path opacity="0.3" d="M59.9102 186.63C59.9102 186.63 66.8323 181.777 66.1346 175.286C66.1282 175.235 66.1081 175.186 66.0766 175.146C66.045 175.105 66.0031 175.074 65.9552 175.056C65.9074 175.037 65.8554 175.032 65.8047 175.04C65.7541 175.048 65.7067 175.07 65.6675 175.104C64.6665 176.014 61.9486 179.047 59.9102 186.63Z" fill="black"/>
</g>
<path d="M64.8787 177.712C64.7455 178.195 64.554 178.659 64.3084 179.096C63.908 179.933 63.3377 181.073 62.6704 182.311C62.0031 183.549 61.3539 184.659 60.8504 185.435C60.6099 185.876 60.3143 186.283 59.9707 186.649C60.1619 186.186 60.3933 185.742 60.6623 185.32L62.3853 182.165C63.0283 180.952 63.5986 179.909 64.1021 178.999C64.3175 178.545 64.5777 178.114 64.8787 177.712Z" fill="#263238"/>
<path d="M48.5352 206.99C48.5352 206.99 56.883 205.692 59.1216 199.546C59.1393 199.498 59.1433 199.446 59.1331 199.395C59.1228 199.344 59.0988 199.298 59.0636 199.26C59.0284 199.222 58.9834 199.195 58.9337 199.181C58.8839 199.168 58.8314 199.168 58.7819 199.182C57.4836 199.552 53.7101 201.075 48.5352 206.99Z" fill="#7BC678"/>
<g opacity="0.3">
<path opacity="0.3" d="M48.5352 206.99C48.5352 206.99 56.883 205.692 59.1216 199.546C59.1393 199.498 59.1433 199.446 59.1331 199.395C59.1228 199.344 59.0988 199.298 59.0636 199.26C59.0284 199.222 58.9834 199.195 58.9337 199.181C58.8839 199.168 58.8314 199.168 58.7819 199.182C57.4836 199.552 53.7101 201.075 48.5352 206.99Z" fill="black"/>
</g>
<path d="M56.9246 201.178C56.5892 201.548 56.2126 201.878 55.8023 202.161C55.0803 202.738 54.0611 203.514 52.9145 204.327C51.7679 205.14 50.7001 205.856 49.8811 206.335C49.4715 206.624 49.0272 206.861 48.5586 207.039C48.9357 206.708 49.3417 206.411 49.7719 206.153L52.7143 204.072L55.6506 201.985C56.046 201.673 56.473 201.402 56.9246 201.178Z" fill="#263238"/>
<path d="M40.5753 222.351L38.1426 238.738H53.3155L51.3438 222.351H40.5753Z" fill="#455A64"/>
<path d="M51.9493 227.429C49.9148 227.586 47.8738 227.638 45.834 227.587C43.7942 227.638 41.7532 227.586 39.7188 227.429C41.753 227.269 43.7942 227.217 45.834 227.271C47.8738 227.217 49.915 227.269 51.9493 227.429Z" fill="#263238"/>
<path d="M52.2522 228.733C52.2522 228.818 49.4251 228.891 45.9368 228.891C42.4484 228.891 39.6152 228.818 39.6152 228.733C41.7184 228.573 43.8283 228.521 45.9368 228.576C48.0432 228.521 50.1511 228.574 52.2522 228.733Z" fill="#263238"/>
</svg>
