<svg width="300" height="240" viewBox="0 0 300 240" fill="none" xmlns="http://www.w3.org/2000/svg">
<path d="M43.9331 216.166C102.51 246.767 197.49 246.767 256.067 216.166C314.644 185.564 314.644 135.948 256.067 105.34C197.49 74.7322 102.537 74.7389 43.9331 105.34C-14.6711 135.942 -14.6176 185.564 43.9331 216.166Z" fill="#F5F5F5"/>
<path d="M27.6038 165.98L8.5625 154.99V114.147L27.6038 125.145V165.98Z" fill="#E0E0E0"/>
<path d="M27.6035 125.145L54.8093 109.439V150.275L27.6035 165.981V125.145Z" fill="#EBEBEB"/>
<path d="M54.8096 109.439L27.6038 125.145L8.5625 114.148L35.7682 98.4417L54.8096 109.439Z" fill="#F5F5F5"/>
<path d="M30.329 126.712L52.0895 114.147L52.5919 114.435V129.565L30.8246 142.13L30.3223 141.842L30.329 126.712Z" fill="#E0E0E0"/>
<path d="M30.8262 127.007L52.5935 114.436V129.565L30.8262 142.13V127.007Z" fill="#F5F5F5"/>
<path d="M39.359 124.643L43.0628 122.506C43.5383 122.225 43.9267 122.352 43.9267 122.787C43.8922 123.054 43.7962 123.309 43.6463 123.532C43.4963 123.755 43.2966 123.941 43.0628 124.073L39.359 126.21C38.8767 126.491 38.4883 126.364 38.4883 125.929C38.523 125.661 38.6198 125.406 38.771 125.182C38.9222 124.959 39.1236 124.774 39.359 124.643Z" fill="#E0E0E0"/>
<path d="M29.8281 145.854L51.5887 133.29V148.419L52.091 148.707L30.3237 161.272L29.8281 160.984V145.854Z" fill="#E0E0E0"/>
<path d="M30.3223 146.142L52.0895 133.577V148.707L30.3223 161.272V146.142Z" fill="#F5F5F5"/>
<path d="M38.8567 143.785L42.594 141.655C43.0762 141.373 43.4647 141.501 43.4647 141.936C43.43 142.203 43.3331 142.459 43.182 142.682C43.0308 142.906 42.8294 143.09 42.594 143.222L38.8902 145.359C38.408 145.64 38.0195 145.513 38.0195 145.077C38.0496 144.812 38.1409 144.557 38.2862 144.333C38.4314 144.108 38.6267 143.921 38.8567 143.785Z" fill="#E0E0E0"/>
<path d="M27.6038 122.788L8.5625 111.79V70.9546L27.6038 81.9454V122.788Z" fill="#E0E0E0"/>
<path d="M27.6035 81.9457L54.8093 66.2397V107.082L27.6035 122.788V81.9457Z" fill="#EBEBEB"/>
<path d="M54.8096 66.2396L27.6038 81.9455L8.5625 70.9547L35.7682 55.2488L54.8096 66.2396Z" fill="#F5F5F5"/>
<path d="M30.3223 83.5193L52.0895 70.9546L52.5919 71.2426V86.3725L30.8246 98.9373L30.3223 98.6426V83.5193Z" fill="#E0E0E0"/>
<path d="M39.359 81.4434L43.0561 79.3068C43.5383 79.0322 43.9267 79.1595 43.9267 79.5948C43.891 79.8619 43.7938 80.1171 43.6427 80.3402C43.4916 80.5634 43.2908 80.7484 43.0561 80.8808L39.359 83.0173C38.8767 83.2919 38.4883 83.1714 38.4883 82.736C38.5235 82.4679 38.6205 82.2116 38.7716 81.9873C38.9227 81.763 39.1237 81.5768 39.359 81.4434Z" fill="#E0E0E0"/>
<path d="M29.8281 102.661L51.5887 90.0964V105.22L52.091 105.508L30.3237 118.072L29.8281 117.784V102.661Z" fill="#E0E0E0"/>
<path d="M30.3223 102.949L52.0895 90.3845V105.508L30.3223 118.072V102.949Z" fill="#F5F5F5"/>
<path d="M38.8551 100.585L42.5923 98.4484C43.0679 98.1738 43.463 98.3011 43.463 98.7364C43.4253 99.0029 43.3273 99.2573 43.1764 99.4801C43.0255 99.703 42.8258 99.8884 42.5923 100.022L38.8551 102.139C38.3728 102.413 37.9844 102.286 37.9844 101.858C38.0226 101.593 38.1209 101.341 38.2718 101.12C38.4228 100.899 38.6223 100.716 38.8551 100.585Z" fill="#E0E0E0"/>
<path d="M30.3223 83.5193L52.0895 70.9546V86.0778L30.3223 98.6426V83.5193Z" fill="#E0E0E0"/>
<path d="M62.9737 78.4292L51.0586 71.5508V84.879L62.9737 91.7508V78.4292Z" fill="#E0E0E0"/>
<path d="M38.4883 100.799V81.9455L43.1565 79.2397L43.9267 80.3783L57.5296 72.522V89.8018L38.4883 100.799Z" fill="#EBEBEB"/>
<path d="M38.4883 100.799L39.8479 84.3031L58.8892 73.3123L57.5296 89.8018L38.4883 100.799Z" fill="#F5F5F5"/>
<path d="M41.2075 90.9939L30.8262 84.9995V98.3278L41.2075 104.315V90.9939Z" fill="#EBEBEB"/>
<path d="M41.207 89.8018L62.9743 77.2371V92.3603L41.207 104.925V89.8018Z" fill="#F5F5F5"/>
<path d="M49.7398 87.4375L53.4369 85.301C53.9191 85.0264 54.3076 85.1536 54.3076 85.589C54.2714 85.8559 54.1739 86.1109 54.0229 86.3339C53.8719 86.557 53.6713 86.7422 53.4369 86.8749L49.7398 89.0114C49.2576 89.2861 48.8691 89.1588 48.8691 88.7301C48.9044 88.462 49.0014 88.2057 49.1525 87.9814C49.3035 87.7571 49.5046 87.5709 49.7398 87.4375Z" fill="#E0E0E0"/>
<path d="M41.2058 89.802L40.4824 89.3867V104.51L41.2058 104.925V89.802Z" fill="#E0E0E0"/>
<path d="M40.4824 89.3866L62.243 76.8152L62.973 77.2371L41.2058 89.8019L40.4824 89.3866Z" fill="#EBEBEB"/>
<path d="M252.564 141.24L233.516 130.242V89.4067L252.564 100.398V141.24Z" fill="#E0E0E0"/>
<path d="M252.564 100.398L279.77 84.6917V125.534L252.564 141.24V100.398Z" fill="#EBEBEB"/>
<path d="M279.769 84.6916L252.564 100.398L233.516 89.4067L260.728 73.6941L279.769 84.6916Z" fill="#F5F5F5"/>
<path d="M255.283 101.971L277.05 89.4067L277.553 89.6947L277.546 104.818L255.786 117.383L255.283 117.095V101.971Z" fill="#E0E0E0"/>
<path d="M255.785 102.26L277.552 89.6948L277.546 104.818L255.785 117.383V102.26Z" fill="#F5F5F5"/>
<path d="M264.318 99.8953L268.015 97.7588C268.497 97.4842 268.886 97.6114 268.886 98.0401C268.85 98.3082 268.754 98.5645 268.602 98.7888C268.451 99.0131 268.25 99.1993 268.015 99.3327L264.318 101.469C263.836 101.744 263.447 101.617 263.447 101.188C263.483 100.92 263.579 100.664 263.731 100.439C263.882 100.215 264.083 100.029 264.318 99.8953Z" fill="#E0E0E0"/>
<path d="M254.781 121.113L276.549 108.542V123.672L277.051 123.96L255.284 136.524L254.781 136.236V121.113Z" fill="#E0E0E0"/>
<path d="M255.283 121.401L277.05 108.836V123.96L255.283 136.524V121.401Z" fill="#F5F5F5"/>
<path d="M263.816 119.037L267.52 116.9C267.995 116.626 268.384 116.753 268.384 117.182C268.348 117.449 268.252 117.704 268.102 117.928C267.952 118.153 267.753 118.339 267.52 118.474L263.816 120.611C263.334 120.885 262.945 120.758 262.945 120.323C262.982 120.056 263.079 119.801 263.23 119.578C263.381 119.355 263.582 119.17 263.816 119.037Z" fill="#E0E0E0"/>
<path d="M71.3936 183.923C71.3936 183.923 71.4673 173.301 64.7697 165.338C58.8423 158.285 55.6877 153.811 57.5564 151.748C59.425 149.685 63.4436 149.19 68.8619 154.896C74.2803 160.602 74.7023 176.409 73.9521 179.985L71.3936 183.923Z" fill="#7BC678"/>
<path opacity="0.2" d="M71.3936 183.923C71.3936 183.923 71.4673 173.301 64.7697 165.338C58.8423 158.285 55.6877 153.811 57.5564 151.748C59.425 149.685 63.4436 149.19 68.8619 154.896C74.2803 160.602 74.7023 176.409 73.9521 179.985L71.3936 183.923Z" fill="#263238"/>
<path d="M72.5172 172.504C72.4409 172.504 72.3668 172.479 72.3071 172.431C72.2475 172.384 72.2058 172.317 72.189 172.243C69.8448 161.279 63.8304 155.217 60.4481 152.579C60.3781 152.524 60.3324 152.444 60.3211 152.357C60.3098 152.269 60.3338 152.18 60.3878 152.11C60.4433 152.039 60.5242 151.993 60.6132 151.982C60.7022 151.971 60.792 151.995 60.8633 152.049C64.3126 154.729 70.4543 160.931 72.8454 172.102C72.8552 172.145 72.8564 172.189 72.8488 172.232C72.8413 172.275 72.8252 172.317 72.8015 172.353C72.7777 172.39 72.7469 172.422 72.7107 172.447C72.6745 172.471 72.6338 172.489 72.5909 172.497L72.5172 172.504Z" fill="white"/>
<path d="M71.1382 187.868L68.4123 189.442C68.1215 188.648 67.6311 187.941 66.9883 187.391C66.3455 186.841 65.5719 186.466 64.742 186.301C61.7615 185.631 58.6672 185.745 56.5776 183.16C54.4879 180.574 57.033 177.761 56.5776 175.859C56.1221 173.957 55.8274 173.408 52.0902 171.506C48.3529 169.604 46.8794 166.449 49.6924 164.313C52.5054 162.176 57.0598 163.743 59.8192 165.652C62.2706 167.327 64.6013 167.769 67.3407 168.11C70.08 168.452 74.5406 169.972 73.8574 176.335C73.4101 180.273 72.4973 184.145 71.1382 187.868Z" fill="#7BC678"/>
<path d="M60.6775 179.51C60.6061 179.509 60.5367 179.486 60.4791 179.444C60.4214 179.402 60.3784 179.343 60.356 179.275C60.3306 179.19 60.3395 179.098 60.3808 179.019C60.4221 178.941 60.4925 178.881 60.577 178.853C60.8181 178.78 66.6049 176.944 69.0629 178.914C69.1239 178.971 69.1611 179.05 69.167 179.133C69.173 179.217 69.1474 179.3 69.0952 179.365C69.043 179.431 68.968 179.475 68.8851 179.488C68.8023 179.501 68.7175 179.482 68.6476 179.436C66.4776 177.695 60.8382 179.476 60.7779 179.496L60.6775 179.51Z" fill="white"/>
<path d="M71.4404 187.359C71.3589 187.36 71.2801 187.33 71.2195 187.275C71.1588 187.221 71.1206 187.146 71.1123 187.065C69.6187 172.959 52.6268 166.268 52.4594 166.201C52.4178 166.186 52.3798 166.162 52.3475 166.132C52.3153 166.101 52.2893 166.065 52.2712 166.024C52.2532 165.984 52.2433 165.94 52.2423 165.896C52.2412 165.852 52.249 165.807 52.2651 165.766C52.2981 165.685 52.3609 165.62 52.4407 165.583C52.5204 165.547 52.6111 165.543 52.6938 165.572C52.8746 165.646 70.2416 172.477 71.7753 187.004C71.7847 187.092 71.759 187.18 71.7038 187.249C71.6486 187.318 71.5684 187.363 71.4806 187.373L71.4404 187.359Z" fill="white"/>
<path d="M238.03 178.605C238.104 178.371 240.977 163.583 238.03 153.094C235.351 143.476 231.855 139.927 226.872 139.143C221.889 138.359 219.726 141.949 222.371 146.812C225.017 151.674 231.386 158.124 232.947 168.988C233.617 173.462 234.126 177.346 234.126 177.346L238.03 178.605Z" fill="#7BC678"/>
<path opacity="0.2" d="M238.03 178.605C238.104 178.371 240.977 163.583 238.03 153.094C235.351 143.476 231.855 139.927 226.872 139.143C221.889 138.359 219.726 141.949 222.371 146.812C225.017 151.674 231.386 158.124 232.947 168.988C233.617 173.462 234.126 177.346 234.126 177.346L238.03 178.605Z" fill="#263238"/>
<path d="M236.349 170.113C236.305 170.11 236.262 170.099 236.223 170.08C236.183 170.06 236.147 170.034 236.118 170.001C236.089 169.968 236.067 169.929 236.052 169.888C236.038 169.846 236.032 169.802 236.035 169.758C236.704 157.782 232.793 147.093 225.78 141.849C225.709 141.795 225.662 141.716 225.65 141.628C225.637 141.54 225.66 141.451 225.713 141.38C225.768 141.31 225.847 141.264 225.934 141.252C226.022 141.239 226.111 141.261 226.182 141.313C233.369 146.671 237.401 157.602 236.698 169.798C236.692 169.886 236.653 169.968 236.588 170.027C236.523 170.085 236.437 170.116 236.349 170.113Z" fill="white"/>
<path d="M245.739 186.308C245.357 183.555 246.938 179.429 250.695 178.452C254.453 177.474 256.127 175.317 254.774 172.96C253.421 170.602 253.736 168.439 257.145 167.461C260.554 166.483 263.542 164.782 261.579 161.178C260.153 158.573 259.838 156.885 263.334 151.755C266.234 147.495 263.863 144.997 260.233 145.466C256.603 145.935 254.359 150.261 252.089 150.985C249.818 151.708 249.296 147.85 246.302 149.578C243.308 151.306 243.489 155.733 243.395 158.821C243.301 161.909 243.1 162.605 240.395 162.23C237.689 161.855 235.036 162.297 235.097 168.841C235.144 174.453 238.137 181.405 238.137 181.405L245.739 186.308Z" fill="#7BC678"/>
<path d="M240.989 182.122H240.956C240.866 182.112 240.784 182.067 240.728 181.996C240.671 181.926 240.645 181.836 240.654 181.747C242.543 164.875 257.023 150.643 260.801 147.756C260.872 147.702 260.961 147.678 261.05 147.69C261.138 147.702 261.219 147.749 261.273 147.82C261.327 147.891 261.351 147.981 261.339 148.069C261.327 148.158 261.28 148.238 261.209 148.292C257.479 151.139 243.186 165.183 241.324 181.82C241.314 181.903 241.275 181.979 241.213 182.034C241.152 182.09 241.072 182.121 240.989 182.122Z" fill="white"/>
<path d="M247.593 164.085C247.525 164.085 247.459 164.064 247.403 164.026C247.347 163.988 247.303 163.934 247.278 163.871C247.25 163.786 247.254 163.694 247.292 163.613C247.329 163.532 247.396 163.469 247.479 163.435C252.877 161.426 258.999 162.377 259.26 162.417C259.347 162.432 259.424 162.481 259.476 162.552C259.527 162.623 259.548 162.712 259.535 162.799C259.519 162.886 259.47 162.963 259.399 163.015C259.328 163.067 259.24 163.091 259.153 163.081C259.093 163.081 252.944 162.116 247.714 164.065C247.675 164.078 247.634 164.085 247.593 164.085Z" fill="white"/>
<path d="M242.785 174.225C242.738 174.225 242.691 174.214 242.649 174.195C242.606 174.175 242.568 174.147 242.537 174.111C240.292 171.497 238.77 168.34 238.123 164.956C238.116 164.912 238.118 164.868 238.129 164.825C238.139 164.782 238.158 164.742 238.184 164.706C238.211 164.671 238.243 164.641 238.281 164.618C238.319 164.596 238.361 164.58 238.404 164.574C238.448 164.567 238.492 164.569 238.535 164.58C238.578 164.59 238.618 164.609 238.654 164.635C238.689 164.661 238.719 164.694 238.742 164.732C238.764 164.77 238.78 164.812 238.786 164.855C239.426 168.107 240.891 171.139 243.039 173.663C243.081 173.712 243.108 173.772 243.117 173.836C243.126 173.9 243.117 173.966 243.09 174.024C243.063 174.083 243.02 174.134 242.966 174.169C242.912 174.205 242.849 174.224 242.785 174.225Z" fill="white"/>
<path d="M71.1387 84.2094V187.875L177.242 126.619L177.236 32.3765L98.3444 77.927L95.6185 70.0707L71.1387 84.2094Z" fill="#7BC678"/>
<path opacity="0.7" d="M71.1387 84.2094V187.875L177.242 126.619L177.236 32.3765L98.3444 77.927L95.6185 70.0707L71.1387 84.2094Z" fill="#263238"/>
<path d="M71.1387 187.875L76.5771 93.6329L182.681 32.3765L177.242 126.619L71.1387 187.875Z" fill="#E0E0E0"/>
<path d="M71.1387 187.875L79.2964 95.207L185.4 33.9438L177.242 126.619L71.1387 187.875Z" fill="#7BC678"/>
<path opacity="0.7" d="M71.1387 187.875L79.2964 95.207L185.4 33.9438L177.242 126.619L71.1387 187.875Z" fill="#263238"/>
<path d="M87.4609 93.633V197.305L193.565 136.042V41.8L114.667 87.3506L111.947 79.4943L87.4609 93.633Z" fill="#7BC678"/>
<path opacity="0.5" d="M87.4609 93.633V197.305L193.565 136.042V41.8L114.667 87.3506L111.947 79.4943L87.4609 93.633Z" fill="#263238"/>
<path d="M87.4609 197.305L92.8994 103.057L199.003 41.8L193.565 136.042L87.4609 197.305Z" fill="#E0E0E0"/>
<path d="M87.4609 197.305L95.6186 104.63L201.722 43.3672L193.565 136.042L87.4609 197.305Z" fill="#7BC678"/>
<path opacity="0.5" d="M87.4609 197.305L95.6186 104.63L201.722 43.3672L193.565 136.042L87.4609 197.305Z" fill="#263238"/>
<path d="M177.216 230.291C158.168 219.294 140.499 207.339 132.436 193.314L156.949 179.162L177.216 230.291Z" fill="#E0E0E0"/>
<path d="M106.502 104.631V208.296L212.606 147.04V52.7976L133.708 98.3481L130.988 90.4918L106.502 104.631Z" fill="#7BC678"/>
<path opacity="0.2" d="M106.502 104.631V208.296L212.606 147.04V52.7976L133.708 98.3481L130.988 90.4918L106.502 104.631Z" fill="#263238"/>
<path d="M137.07 135.279C136.802 135.279 136.762 134.971 136.762 134.79V46.3811C136.783 46.0381 136.884 45.7048 137.056 45.4073C137.228 45.1098 137.466 44.8562 137.753 44.6665L214.334 0.462145C214.438 0.396732 214.558 0.359792 214.682 0.35498C214.95 0.35498 214.99 0.663073 214.99 0.843909V89.2525C214.969 89.5965 214.869 89.931 214.697 90.2296C214.525 90.5283 214.286 90.783 213.999 90.9738L137.418 135.178C137.312 135.24 137.192 135.275 137.07 135.279Z" fill="white"/>
<path d="M214.642 0.66317C214.647 0.712137 214.647 0.761552 214.642 0.810519V89.2192C214.62 89.5043 214.534 89.7809 214.392 90.0289C214.249 90.2768 214.053 90.4899 213.818 90.6524L137.237 134.857L137.103 134.917C137.094 134.868 137.094 134.818 137.103 134.77V46.3611C137.126 46.0771 137.212 45.8018 137.355 45.555C137.497 45.3083 137.693 45.0963 137.927 44.9345L214.508 0.730146C214.55 0.700601 214.598 0.680083 214.648 0.669869L214.642 0.66317ZM214.689 0.000106997C214.506 0.00553688 214.328 0.0586498 214.173 0.154155L137.592 44.3585C137.256 44.5796 136.975 44.8766 136.774 45.2255C136.573 45.5744 136.456 45.9656 136.434 46.3678V134.776C136.434 135.299 136.695 135.6 137.103 135.6C137.286 135.595 137.464 135.542 137.619 135.446L214.2 91.2418C214.538 91.0223 214.819 90.7257 215.021 90.3764C215.222 90.0272 215.338 89.6352 215.358 89.2325V0.823917C215.358 0.301502 215.097 -0.00659063 214.689 0.000106997Z" fill="#7BC678"/>
<path opacity="0.7" d="M214.642 0.66317C214.647 0.712137 214.647 0.761552 214.642 0.810519V89.2192C214.62 89.5043 214.534 89.7809 214.392 90.0289C214.249 90.2768 214.053 90.4899 213.818 90.6524L137.237 134.857L137.103 134.917C137.094 134.868 137.094 134.818 137.103 134.77V46.3611C137.126 46.0771 137.212 45.8018 137.355 45.555C137.497 45.3083 137.693 45.0963 137.927 44.9345L214.508 0.730146C214.55 0.700601 214.598 0.680083 214.648 0.669869L214.642 0.66317ZM214.689 0.000106997C214.506 0.00553688 214.328 0.0586498 214.173 0.154155L137.592 44.3585C137.256 44.5796 136.975 44.8766 136.774 45.2255C136.573 45.5744 136.456 45.9656 136.434 46.3678V134.776C136.434 135.299 136.695 135.6 137.103 135.6C137.286 135.595 137.464 135.542 137.619 135.446L214.2 91.2418C214.538 91.0223 214.819 90.7257 215.021 90.3764C215.222 90.0272 215.338 89.6352 215.358 89.2325V0.823917C215.358 0.301502 215.097 -0.00659063 214.689 0.000106997Z" fill="white"/>
<path d="M144.592 49.7367L171.798 34.0308V65.4426L144.592 81.1486V49.7367Z" fill="#7BC678"/>
<path opacity="0.8" d="M144.592 49.7367L171.798 34.0308V65.4426L144.592 81.1486V49.7367Z" fill="white"/>
<path d="M167.718 41.8604V51.304L166.861 51.7795V48.8929C166.861 47.2988 165.568 46.7563 163.961 47.6806L152.434 54.3447C150.834 55.269 149.534 57.3118 149.534 58.9058V61.7925L148.684 62.3015V52.8779L167.718 41.8604Z" fill="white"/>
<path d="M162.481 65.9048C161.088 66.7085 159.956 65.8646 159.956 64.0094V48.8928L156.453 50.7949V66.032C156.453 67.8806 155.321 70.0506 153.928 70.8342L151.396 72.2943V73.299L164.999 65.4427V64.4447L162.481 65.9048Z" fill="white"/>
<path d="M177.215 32.4836C177.215 33.3543 177.998 33.6021 178.956 33.0529L205.425 17.7488C205.895 17.4826 206.296 17.1113 206.599 16.6639C206.901 16.2166 207.095 15.7053 207.167 15.1703C207.167 14.3063 206.383 14.0517 205.425 14.6077L178.976 29.8782C178.499 30.1439 178.091 30.5182 177.785 30.9708C177.479 31.4234 177.284 31.9416 177.215 32.4836Z" fill="#263238"/>
<path d="M177.215 41.8603C177.215 42.731 177.998 42.9855 178.956 42.4296L205.405 27.159C205.875 26.8928 206.276 26.5215 206.579 26.0741C206.881 25.6267 207.075 25.1155 207.147 24.5804C207.147 23.7164 206.363 23.4619 205.405 24.0178L178.956 39.2884C178.487 39.5539 178.086 39.9242 177.784 40.3703C177.482 40.8165 177.287 41.3264 177.215 41.8603Z" fill="#263238"/>
<path d="M177.215 51.3038C177.215 52.1745 177.998 52.429 178.956 51.8731L205.405 36.6025C205.874 36.337 206.275 35.9667 206.577 35.5206C206.879 35.0744 207.074 34.5645 207.147 34.0306C207.147 33.16 206.363 32.9054 205.405 33.4613L178.956 48.7319C178.487 48.9975 178.086 49.3677 177.784 49.8139C177.482 50.26 177.287 50.7699 177.215 51.3038Z" fill="#263238"/>
<path d="M177.215 60.7276C177.215 61.5983 177.998 61.8528 178.956 61.2969L205.405 46.0264C205.874 45.7608 206.275 45.3906 206.577 44.9444C206.879 44.4983 207.074 43.9884 207.147 43.4545C207.147 42.5838 206.363 42.3293 205.405 42.8852L178.956 58.1558C178.487 58.4213 178.086 58.7916 177.784 59.2377C177.482 59.6838 177.287 60.1938 177.215 60.7276Z" fill="#263238"/>
<path d="M144.592 89.0048C144.592 89.8755 145.369 90.13 146.333 89.5741L205.426 55.4162C205.896 55.1515 206.297 54.7814 206.6 54.3351C206.902 53.8889 207.096 53.3785 207.168 52.8443C207.168 51.9736 206.384 51.7258 205.426 52.275L146.333 86.4329C145.863 86.6972 145.461 87.0672 145.159 87.5135C144.857 87.9599 144.663 88.4704 144.592 89.0048Z" fill="#263238"/>
<path d="M144.592 98.4284C144.592 99.299 145.369 99.5535 146.333 98.9976L205.426 64.8799C205.896 64.6137 206.298 64.2424 206.6 63.7951C206.902 63.3477 207.096 62.8364 207.168 62.3014C207.168 61.4374 206.384 61.1829 205.426 61.7388L146.333 95.8565C145.863 96.1208 145.461 96.4907 145.159 96.9371C144.857 97.3835 144.663 97.894 144.592 98.4284Z" fill="#263238"/>
<path d="M144.592 107.859C144.592 108.723 145.369 108.977 146.333 108.421L205.426 74.3035C205.896 74.0373 206.298 73.666 206.6 73.2186C206.902 72.7713 207.096 72.26 207.168 71.7249C207.168 70.8609 206.384 70.6064 205.426 71.1623L146.333 105.28C145.863 105.545 145.46 105.916 145.158 106.364C144.856 106.811 144.662 107.323 144.592 107.859Z" fill="#263238"/>
<path d="M106.502 208.296L125.543 125.052L231.647 63.7883L212.606 147.04L106.502 208.296Z" fill="#7BC678"/>
<path d="M132.461 131.568V193.313L156.947 179.175V117.436L132.461 131.568Z" fill="#7BC678"/>
<path opacity="0.2" d="M132.461 131.568V193.313L156.947 179.175V117.436L132.461 131.568Z" fill="#263238"/>
<path d="M177.263 229.889C175.18 228.335 155.1 212.991 144.893 191.043C134.03 167.708 134.043 140.489 134.043 130.249V129.927L206.833 87.9062C206.833 98.2407 206.833 125.5 217.743 148.915C227.716 170.347 247.025 185.497 250.086 187.815L177.263 229.889Z" fill="white"/>
<path d="M206.497 88.5092C206.497 99.279 206.704 126.016 217.44 149.083C227.078 169.778 245.403 184.66 249.482 187.802L177.281 229.488C174.462 227.364 155.139 212.275 145.2 190.929C134.35 167.662 134.35 140.496 134.35 130.269V130.142L206.47 88.5025L206.497 88.5092ZM207.139 87.3439L133.68 129.76C133.68 139.398 133.479 167.401 144.564 191.211C155.474 214.579 177.214 230.291 177.214 230.291L250.694 187.868C250.694 187.868 228.927 172.156 218.05 148.788C206.959 124.978 207.166 96.975 207.166 87.3372L207.139 87.3439Z" fill="#7BC678"/>
<path opacity="0.7" d="M206.497 88.5092C206.497 99.279 206.704 126.016 217.44 149.083C227.078 169.778 245.403 184.66 249.482 187.802L177.281 229.488C174.462 227.364 155.139 212.275 145.2 190.929C134.35 167.662 134.35 140.496 134.35 130.269V130.142L206.47 88.5025L206.497 88.5092ZM207.139 87.3439L133.68 129.76C133.68 139.398 133.479 167.401 144.564 191.211C155.474 214.579 177.214 230.291 177.214 230.291L250.694 187.868C250.694 187.868 228.927 172.156 218.05 148.788C206.959 124.978 207.166 96.975 207.166 87.3372L207.139 87.3439Z" fill="white"/>
<path d="M198.855 101.57L175.627 114.965C175.162 115.221 174.766 115.585 174.472 116.027C174.178 116.469 173.996 116.976 173.939 117.503C173.973 118.354 174.783 118.595 175.741 118.039L198.975 104.644C199.435 104.39 199.827 104.031 200.119 103.595C200.412 103.159 200.596 102.66 200.656 102.139C200.616 101.255 199.819 101.014 198.855 101.57Z" fill="#263238"/>
<path d="M199.35 110.712L176.123 124.107C175.663 124.354 175.274 124.713 174.991 125.151C174.707 125.589 174.539 126.092 174.502 126.612C174.576 127.436 175.42 127.657 176.377 127.101L199.611 113.706C200.068 113.46 200.455 113.101 200.735 112.664C201.016 112.227 201.18 111.726 201.212 111.208C201.145 110.377 200.315 110.176 199.35 110.712Z" fill="#263238"/>
<path d="M200.283 119.599L177.049 132.995C176.091 133.551 175.394 134.656 175.508 135.453C175.622 136.25 176.5 136.457 177.464 135.901L200.698 122.506C201.656 121.95 202.339 120.852 202.218 120.055C202.098 119.258 201.241 119.044 200.283 119.599Z" fill="#263238"/>
<path d="M201.675 128.219L178.441 141.615C177.483 142.17 176.82 143.255 176.981 144.032C177.142 144.809 178.053 144.983 178.99 144.428L202.218 131.032C203.182 130.476 203.825 129.398 203.664 128.621C203.504 127.844 202.666 127.663 201.675 128.219Z" fill="#263238"/>
<path d="M203.563 136.551L180.329 149.946C179.371 150.502 178.748 151.561 178.99 152.304C179.231 153.047 180.148 153.215 181.106 152.659L204.34 139.264C205.304 138.708 205.907 137.656 205.68 136.906C205.452 136.156 204.521 135.995 203.563 136.551Z" fill="#263238"/>
<path d="M206.014 144.582L149.393 177.273C148.435 177.829 147.852 178.86 148.113 179.577C148.374 180.293 149.372 180.427 150.33 179.871L206.952 147.18C207.916 146.624 208.472 145.6 208.211 144.876C207.95 144.153 206.939 144.026 206.014 144.582Z" fill="#263238"/>
<path d="M208.996 152.251L152.381 184.942C151.417 185.498 150.888 186.502 151.209 187.185C151.531 187.869 152.549 187.976 153.527 187.42L210.148 154.729C211.113 154.173 211.629 153.168 211.307 152.485C210.986 151.802 209.961 151.701 208.996 152.251Z" fill="#263238"/>
<path d="M212.712 159.558L156.091 192.249C155.126 192.805 154.651 193.782 155.032 194.432C155.414 195.082 156.506 195.149 157.47 194.593L214.052 161.902C215.01 161.353 215.472 160.381 215.09 159.732C214.708 159.082 213.65 159.002 212.712 159.558Z" fill="#263238"/>
<path d="M217.046 166.47L160.431 199.154C159.466 199.71 159.038 200.668 159.473 201.277C159.908 201.887 161.054 201.947 162.018 201.384L218.633 168.693C219.597 168.137 220.013 167.193 219.577 166.577C219.142 165.961 218.01 165.914 217.046 166.47Z" fill="#263238"/>
<path d="M221.988 173.04L165.367 205.724C164.409 206.28 164.027 207.211 164.509 207.794C164.992 208.377 166.177 208.403 167.142 207.847L223.763 175.143C224.721 174.587 225.103 173.669 224.607 173.087C224.112 172.504 222.953 172.464 221.988 173.04Z" fill="#263238"/>
<path d="M227.447 179.295L170.845 211.98C169.881 212.536 169.506 213.447 170.068 213.989C170.631 214.532 171.823 214.545 172.781 213.989L229.402 181.298C230.367 180.742 230.702 179.845 230.166 179.289C229.63 178.733 228.425 178.746 227.447 179.295Z" fill="#263238"/>
<path d="M233.476 185.276L176.854 217.961C175.896 218.517 175.582 219.408 176.184 219.937C176.787 220.466 178.02 220.446 178.984 219.89L235.559 187.199C236.517 186.643 236.818 185.772 236.229 185.236C235.639 184.7 234.414 184.721 233.476 185.276Z" fill="#263238"/>
<path d="M167.21 119.847L140.5 135.252C140.795 144.93 141.9 158.888 145.945 172.946L172.662 157.542C168.61 143.483 167.505 129.519 167.21 119.847Z" fill="#7BC678"/>
<path opacity="0.8" d="M167.21 119.847L140.5 135.252C140.795 144.93 141.9 158.888 145.945 172.946L172.662 157.542C168.61 143.483 167.505 129.519 167.21 119.847Z" fill="white"/>
<path d="M151.39 133.122C151.426 132.497 151.329 131.872 151.105 131.288C150.881 130.704 150.535 130.174 150.091 129.733L140.5 135.265C140.58 137.824 140.714 140.684 140.949 143.765C142.196 143.908 143.458 143.675 144.572 143.095C148.343 141.367 151.39 136.886 151.39 133.122Z" fill="#7BC678"/>
<path opacity="0.6" d="M151.39 133.122C151.426 132.497 151.329 131.872 151.105 131.288C150.881 130.704 150.535 130.174 150.091 129.733L140.5 135.265C140.58 137.824 140.714 140.684 140.949 143.765C142.196 143.908 143.458 143.675 144.572 143.095C148.343 141.367 151.39 136.886 151.39 133.122Z" fill="white"/>
<path d="M170.39 148.299C168.609 146.055 164.985 139.123 163.438 136.102C163.377 135.983 163.282 135.885 163.165 135.82C163.047 135.755 162.913 135.727 162.78 135.739C162.647 135.752 162.52 135.804 162.416 135.889C162.313 135.974 162.237 136.088 162.199 136.216C160.525 141.938 159.554 147.841 159.306 153.798C157.075 152.027 155.157 149.894 153.633 147.488C153.568 147.395 153.477 147.322 153.373 147.279C153.268 147.235 153.152 147.223 153.04 147.242C152.929 147.262 152.825 147.313 152.741 147.39C152.657 147.467 152.597 147.566 152.568 147.676C149.648 158.921 151.114 169.986 151.114 169.986L172.661 157.542C171.763 154.434 171.02 151.34 170.39 148.299Z" fill="#7BC678"/>
<path opacity="0.6" d="M170.39 148.299C168.609 146.055 164.985 139.123 163.438 136.102C163.377 135.983 163.282 135.885 163.165 135.82C163.047 135.755 162.913 135.727 162.78 135.739C162.647 135.752 162.52 135.804 162.416 135.889C162.313 135.974 162.237 136.088 162.199 136.216C160.525 141.938 159.554 147.841 159.306 153.798C157.075 152.027 155.157 149.894 153.633 147.488C153.568 147.395 153.477 147.322 153.373 147.279C153.268 147.235 153.152 147.223 153.04 147.242C152.929 147.262 152.825 147.313 152.741 147.39C152.657 147.467 152.597 147.566 152.568 147.676C149.648 158.921 151.114 169.986 151.114 169.986L172.661 157.542C171.763 154.434 171.02 151.34 170.39 148.299Z" fill="white"/>
</svg>
